/* XPM */
static char *_80caf55680443eb8a86f86a62114181awCvEaHIssFF5c0J[] = {
/* columns rows colors chars-per-pixel */
"54 23 9 1 ",
"  c None",
". c #40221F",
"X c #44281F",
"o c #552E23",
"O c #603E21",
"+ c #566424",
"@ c #885620",
"# c #A97032",
"$ c #B6905E",
/* pixels */
"            .......                          .......  ",
"           .$#####$.                        .$#####$. ",
"          .$#######$.                      .$#######$.",
"          .$#######$.                      .$#######$.",
"          .$#######$.                      .$#######$.",
"          .$$#####$$.                      .$$#####$$.",
"...........O$$$$$$$O........................O$$$$$$$O.",
"@@@@@@@@@@XoO@OOO@OoX@@@@@@@@@@@@@@@@@@@@@@XoO@OOO@OoX",
"@@@@@@@OOOXoO@@OO@OoX@@OOOOO@@@@@@@@@@@@OOOXoO@@OO@OoX",
"OOOOOOOOOOXoO@@OO@OoXOOOOOOOOOOOOOOOOOOOOOOXoO@@OO@OoX",
"ooooOOOOOOXoO@@OO@OoXOOOOOOOoooooooooOOOOOOXoO@@OO@OoX",
"ooOOOOOOooXoO@@OO@OoXXoOOooooooooooOOOOOOooXoO@@OO@OoX",
"OOOOOOooooXoO@@OOOOoXXoOOOOOOOOOOOOOOOOooooXoO@@OOOOoX",
"ooOOoooooXXoOO@OO@OoXXooOOOOoooooooOOoooooXXoOO@OO@OoX",
"OOooooooXXXoOO@OO@OoXXXoooOOOOOOOOOooooooXXXoOO@OO@OoX",
"ooooooXXXXXoOOOOOOOoXXXXoooooOOOoooooooXXXXXoOOOOOOOoX",
"ooooXXXXXXXoOO@OOOOoXXXXXXoooooooooooXXXXXXXoOO@OOOOoX",
"ooXXXXXXXXXoOO@OOOOoXXXXXXXXXooooooXXXXX+XXXoOO@OOOOoX",
"XXXXXXXXXXXooO@OOOooXX+XXXXXXXXXXXXXXXX++XXXooO@OOOooX",
"...........ooo@OOooo..+................++...ooo@OO+oo.",
"           .o+ooooo.  +                +    .ooooo+o. ",
"            .+.....         +                ...+.+.  ",
"             +              +                         "
};
