/* XPM */
static char *_e1b673aa24e4502bb90ab6b996bad00zpdww7sV01XkAhBS[] = {
/* columns rows colors chars-per-pixel */
"54 23 9 1 ",
"  c None",
". c #40221F",
"X c #44281F",
"o c #552E23",
"O c #603E21",
"+ c #566424",
"@ c #885620",
"# c #A97032",
"$ c #B6905E",
/* pixels */
"  .......                          .......            ",
" .$#####$.                        .$#####$.           ",
".$#######$.                      .$#######$.          ",
".$#######$.                      .$#######$.          ",
".$#######$.                      .$#######$.          ",
".$$#####$$.                      .$$#####$$.          ",
".O$$$$$$$O........................O$$$$$$$O...........",
"XoO@OOO@OoX@@@@@@@@@@@@@@@@@@@@@@XoO@OOO@OoX@@@@@@@@@@",
"XoO@@OO@OoX@@OOOOO@@@@@@@@@@@@OOOXoO@@OO@OoX@@OOOOO@@@",
"XoO@@OO@OoXOOOOOOOOOOOOOOOOOOOOOOXoO@@OO@OoXOOOOOOOOOO",
"XoO@@OO@OoXOOOOOOOoooooooooOOOOOOXoO@@OO@OoXXOOOOOOooo",
"XoO@@OO@OoXXoOOooooooooooOOOOOOooXoO@@OO@OoXXoOOoooooo",
"XoO@@OOOOoXXoOOOOOOOOOOOOOOOOooooXoO@@OOOOoXXXOOOOOOOO",
"XoOO@OO@OoXXooOOOOoooooooOOoooooXXoOO@OO@OoXXXoOOOOooo",
"XoOO@OO@OoXXXoooOOOOOOOOOooooooXXXoOO@OO@OoXXXXooOOOOO",
"XoOOOOOOOoXXXXoooooOOOoooooooXXXXXoOOOOOOOoXXXXXooooOO",
"XoOO@OOOOoXXXXXXoooooooooooXXXXXXXoOO@OOOOoXXXXXXooooo",
"XoOO@OOOOoXXXXXXXXXooooooXXXXX+XXXoOO@OOOOoXXXXXXXXooo",
"XooO@OOOooXX+XXXXXXXXXXXXXXXX++XXXooO@OOOooXXXXXXXX+XX",
".ooo@OOooo..+................++...ooo@OO+oo........+..",
" .o+ooooo.  +                +    .ooooo+o.        +  ",
"  .+.....         +                ...+.+.            ",
"   +              +                                   "
};
