/* XPM */
static char *_ead081d87ce47a8f805385b9b736f40CgMjOETxiYMuergl[] = {
/* columns rows colors chars-per-pixel */
"14 44 9 1 ",
"  c None",
". c #40221F",
"X c #44281F",
"o c #552E23",
"O c #603E21",
"+ c #566424",
"@ c #885620",
"# c #A97032",
"$ c #B6905E",
/* pixels */
"    .......   ",
"   .$#####$.  ",
"  .$#######$. ",
"  .$#######$. ",
"  .$#######$. ",
"  .$$#####$$. ",
"  .O$$$$$$$O. ",
"  XoO@OOO@OoX ",
"  XoO@@OO@OoX ",
"  XoO@@OO@OoX ",
"  XoO@@OO@OoX ",
"  XoO@@OO@OoX ",
"  XoO@@OOOOoX ",
"  XoOO...@OoX ",
"  XoO.@Oo.OoX ",
"  XoO.@Oo.OoX ",
"  XoO.@@o.OoX ",
"  XoO.@@o.OoX ",
"  Xoo.@@o.ooX ",
"  .oo.O@o.oo. ",
"   .o.O@o.o.  ",
"    ..ooo..   ",
"    .......   ",
"   .$#####$.  ",
"  .$#######$. ",
"  .$#######$. ",
"  .$#######$. ",
"  .$$#####$$. ",
"  .O$$$$$$$O. ",
"  XoO@OOO@OoX ",
"  XoO@@OO@OoX ",
" +XoO@@OO@OoX ",
"++XoO@@OO@OoX ",
"+ XoO@@OO@OoX ",
"  XoO@@OOOOoX ",
"  XoOO@OO@OoX ",
"  XoOO@OO@OoX ",
"  XoOOOOOOOoX ",
"  XoOO@OOOOoX ",
"  XoOO@OOOOoX ",
"  XooO@OOOooX ",
"  .ooo@OO+oo. ",
"   .ooooo+o.  ",
"    ...+.+.   "
};
