/* XPM */
static char *a61be0803cca476ea88677a313dba43fACrWWZy7Q4zkSNBh[] = {
/* columns rows colors chars-per-pixel */
"60 55 236 2 ",
"   c #004700",
".  c #00481E",
"X  c #005329",
"o  c #00533C",
"O  c #1A5737",
"+  c #0D662B",
"@  c #186438",
"#  c #24772A",
"$  c #226C3C",
"%  c #287338",
"&  c #32783D",
"*  c #4F7F2F",
"=  c #124943",
"-  c #286843",
";  c #317345",
":  c #497C4D",
">  c #507F43",
",  c #188A1C",
"<  c #38961C",
"1  c #008225",
"2  c #368323",
"3  c #389828",
"4  c #2A8930",
"5  c #3D8437",
"6  c #3D8C34",
"7  c #49991A",
"8  c #4DA316",
"9  c #53A41A",
"0  c #5CA51B",
"q  c #60AC03",
"w  c #6DB200",
"e  c #67AC1B",
"r  c #79AE17",
"t  c #75AD1E",
"y  c #6CB419",
"u  c #75B41D",
"i  c #7CB51B",
"p  c #7CB41D",
"a  c #468C29",
"s  c #4C9E24",
"d  c #479729",
"f  c #539C24",
"g  c #53962E",
"h  c #599728",
"j  c #559B2D",
"k  c #5B9C2C",
"l  c #448C35",
"z  c #4B8938",
"x  c #4C9335",
"c  c #489736",
"v  c #4D933C",
"b  c #559737",
"n  c #5B9C33",
"m  c #649F2C",
"M  c #6B9A2D",
"N  c #54A525",
"B  c #5BA325",
"V  c #5EAB24",
"C  c #5CA12B",
"Z  c #58A62A",
"A  c #5EA930",
"S  c #63A524",
"D  c #64AB23",
"F  c #6AAD24",
"G  c #63A42C",
"H  c #68A72A",
"J  c #64AB2B",
"K  c #6BAC2B",
"L  c #74AC25",
"P  c #7BAE24",
"I  c #75AD29",
"U  c #75A82E",
"Y  c #6CB225",
"T  c #6EB32C",
"R  c #74B325",
"E  c #7BB523",
"W  c #7CBA24",
"Q  c #74B52B",
"!  c #7AB52C",
"~  c #76BA2A",
"^  c #7CBB2B",
"/  c #64A436",
"(  c #65AB34",
")  c #6BAC33",
"_  c #62A13A",
"`  c #69A83A",
"'  c #72AD33",
"]  c #7DAB32",
"[  c #73AB3B",
"{  c #67B636",
"}  c #6EB333",
"|  c #74B433",
" . c #7AB533",
".. c #73BA33",
"X. c #7CBB33",
"o. c #77B53B",
"O. c #7CBB39",
"+. c #7EC12B",
"@. c #7DC038",
"#. c #398744",
"$. c #3F8654",
"%. c #488948",
"&. c #459244",
"*. c #569947",
"=. c #488B55",
"-. c #589751",
";. c #649B49",
":. c #59A54C",
">. c #6EA443",
",. c #68AB47",
"<. c #7AB546",
"1. c #66A258",
"2. c #6CB255",
"3. c #76B05F",
"4. c #69A861",
"5. c #74AF61",
"6. c #7FB862",
"7. c #8BB611",
"8. c #8AB415",
"9. c #82B51D",
"0. c #8AB51D",
"q. c #85BA1D",
"w. c #8BBC1B",
"e. c #82B523",
"r. c #89B624",
"t. c #84BB25",
"y. c #8BBD25",
"u. c #85B62B",
"i. c #84BD2B",
"p. c #8BBE2B",
"a. c #94BC24",
"s. c #92BE2B",
"d. c #98BE2A",
"f. c #82AC3B",
"g. c #83BC32",
"h. c #8ABC33",
"j. c #80B63E",
"k. c #85BC3B",
"l. c #8DBD3C",
"z. c #94BA33",
"x. c #95C11E",
"c. c #B8CF00",
"v. c #B8D507",
"b. c #84C126",
"n. c #8DC325",
"m. c #8EC825",
"M. c #84C12C",
"N. c #8BC32C",
"B. c #8DCA2C",
"V. c #94C425",
"C. c #9CC524",
"Z. c #94C924",
"A. c #9CCA25",
"S. c #93C52B",
"D. c #9BC42B",
"F. c #94C92C",
"G. c #9CCB2C",
"H. c #95D329",
"J. c #83C232",
"K. c #8BC332",
"L. c #8ECA32",
"P. c #8DC339",
"I. c #8AC73A",
"U. c #92C533",
"Y. c #94CC32",
"T. c #9CCC32",
"R. c #98C63A",
"E. c #9CCC3A",
"W. c #9ED135",
"Q. c #A2C627",
"!. c #A4CC26",
"~. c #AACF26",
"^. c #A3CD2B",
"/. c #AACE2B",
"(. c #B4CF2E",
"). c #A4D027",
"_. c #ACD224",
"`. c #ACDA26",
"'. c #A5D22B",
"]. c #ABD32C",
"[. c #AED92D",
"{. c #B4D525",
"}. c #B8D726",
"|. c #B4DA26",
" X c #BADA26",
".X c #B3D62D",
"XX c #B9D72C",
"oX c #B5DA2C",
"OX c #B9DA2E",
"+X c #A3C731",
"@X c #A3CD33",
"#X c #AACE31",
"$X c #A5D332",
"%X c #ABD332",
"&X c #AEDA32",
"*X c #A3D13A",
"=X c #ACD639",
"-X c #A8D93B",
";X c #B3D632",
":X c #BAD732",
">X c #B6DA32",
",X c #B9DA32",
"<X c #B4D639",
"1X c #B4DC3A",
"2X c #BADB3A",
"3X c #B6E02C",
"4X c #BAE137",
"5X c #C3DC3B",
"6X c #C1E236",
"7X c #82BC4B",
"8X c #94BF45",
"9X c #87BD6A",
"0X c #8FC443",
"qX c #95CB42",
"wX c #9EC843",
"eX c #A5CE47",
"rX c #A6D340",
"tX c #ADDA43",
"yX c #BADE42",
"uX c #BEDD4B",
"iX c #BEDB5D",
"pX c #BFE147",
"aX c #9DCD71",
"sX c #C2DC45",
"dX c #CBDF4C",
"fX c #C5E148",
"gX c #C8E556",
"hX c #C4DE62",
"jX c #C8E461",
"kX c #D4E968",
"lX c #D7EF75",
"zX c #E4F17A",
"xX c #B2D798",
"cX c #D8EA95",
"vX c #E2E89A",
"bX c #F2F8D2",
/* pixels */
"zXkXjXgXgXgXsXsXyXuXsXsXsX<X2X2X.X:XzXkX<XfX2X2X2X2X2X1X$XuXsX;XOX:X5X2X<X(.jXgX.XdXfXOX,XfX2XfXpX!.;XOX2X2XjXcXcXvXvXbX",
"OX{.}.XXXX}.OX,X,X,X,XOXOX,XOXOX,X,X,XOX.X}.,X,X,X,X,X,X,XOXXXOXOXOXOXOXOX,X}.}.,XXX}.OXOX}.XXXXXXOXOXOXOXOX Xv.v.c.c.vX",
"2X,X,X,X,X,X,X,X,X>X,X,X,X,X,X,X,X,X,X,X,X2X,X,X,X,X,X,X,X,X,X,XOXOX,XOXOXOX,X,XOX,X,XOXOX,XOXOXOXOXOXOX,XOX,X2X2X2X2X<X",
",XOX,X,X,X,X,X,X,X,X,X,X,X,X,X,X,X,X,X,X,X,X,X,X,X,X,X,X,XOXOXOXOXOXOXOXOXOXOXOXOXOXOXOXOXOXOXOXOXOXOXOXOXOXOXOX,X,X.XiX",
",X,X,X,X,X,X,X,X,X,X,X,X,X,X,X,X,X,X,X,X,X,X,X,X,X,X,X,X,XOX,X2X,X,XOXOXOXOXOXOXOXOXOXOXOXOXOXOXOXOXOXOXOXOXOXOXOX}.;XlX",
",X,X,X,X,X,X,X,X,X,X,X,X2X,X,X,X,X,X,X,X,X,X,X,X,X,X,X,X,X,X>X;X;X,XOXOXOXOXOXOX,XOXOXOXOXOXOXOXOXOXXXOXOXOXOXOX,XOX2XkX",
",X,X,X,X,X,X,X,X,X,X,X,X,X,X,X,X,X,X,X,X,X,X,X,X,X,X,X,XXX,X;X7.Q.,XOXOXOXOXOXOX,XOXOXOXOX,XOXOXOXOXXXOXOXOXOXOX,X6X2XjX",
":X,X,X,X,X,X,X,X,X,X,X,X,X,X,X,X,X,X,X,X,X,X,X,X,X,X,X,XOX,X;XQ.~.,XOXOX,X,XOXOXOXOXOXOXOXOXOXOXOXOXXXOXOXOXOXOXOX,XyXhX",
",X,X,X,X,X,X,X,X,X,X,X,X,X,X,X,X,X,X,X,X,X,X,X,X,X,X,X,X,XOX,X,X,XOXOXOXOXOXOXOXOXOXOXOXOXoX,XOXXXXXOXOXoX].].OX>X.XT.l.",
",X,X,X,X,X,X,X,X,X,X,X,X,X,X,X,X,X,X,X,X,X,X,X,X,X,X,X,X,XOXOXOXOXOXOXOXOXOX,X,XOXOXOXOX;X].;XOX XOX;X.X'.q.p $X;X%XD.! ",
",X,X,X,X,X,X,X,X,X,X,X,X,X,X,X,X,X,X,X,X,X,X,X,X,X,X,X,X,XOXOXOXOXOXOXOXOXOXOX,XOXOX,X].q.G.%X].'..XOX,X.XG.A.%X,X[.;Xh.",
",X,X,X,X>X].Q..X,X,X,X,X,X,X,X,X:X,X,X,X,X,X,X,X,X,X,X,X,XOXOXOXOXOXOXOXOXOXOXOXOXOXOX[.y.@X^.r y.[.XXXXXXOXoX`.[.`.oXh.",
",X,X,X,X>XV.7.].,X,X,X,X,X,X:X:X:X,X,X,X,X,X,X,X,X,X,X,X,XOXOXOXOXOXOXOXOXOXOXOXOXOXOXOXOXXX!.q.G.oXXXOXXXoX.X.XoX`.'.'.",
",X,X,X,X,X;X%X,X,X,X,X,X,X,X:X,X,X,X,X,X,X,X,X,X,X,X,X,X,XOXOXOXOXOXOXOXOXOXOXOXOXOXOXOX.X,X;X].[.OXOXOXOXOX.X.XOX.X'.E.",
",X,X,XOXOX,X2X,X,X,X,X,X,X,X,X,X,X,X,X,X,X,X,X,X,X,X,X,X,XOXOXOXOXOXOXOXOXOXOXOXOXOXOX%Xt.'.XX_._.OXOXOXOXOX.X.X.X.X2Xf.",
",X,X,X,X,X,X,X,X,X,X,X,X,X,X,X,X,X,X,X,X,X,X,X,X,X,XOXOXOXOXOXOXOXXX>X,XOXOXOXOXOX>XOX[.S._.oX_._.OXOXOXOXOX.X.XOX;X1Xl.",
",X,X,X,X,X,X,X,X,X,X,X,X,X,X,X,X:X,X,X,XOX>X>X,X,XOXOXOXOXOXOXOXOX,X%X^.,X,XOX,X,X,X|.|.OXoXoXoX_..X.X.XOXOXOXOXOX<X<X=X",
",X,X,X,X,X,X,X,X,X,X,X,X,X,X,X,X,X;X#X].[.^.V.].,XOXOX,XOXOXOXOXOXOX/.V.'.;X,X^.^.Q.|. X X|.oXXXoX_._..XOXOXOXOXOXOX,X@X",
",X,X,X,X,X,X,X,X,X,XOXOXOXOX,X,X,X;Xr.r.%XG.i ].,XOXOXOXOXOXOXOXOXXXoX^.0./.4Xy.e.0.|. XXXOX|.XX;X]._.OX,X.XXXOXOXoX1X] ",
",XOX,X,X,X,XOXOXOXOXOXOXOX,X,X,X,X;XS.D.,X;XG.;X,XOXOX,X,XOXOXOXOXOXOX;XQ.].,X/.+X^.|. X|.oX,X.Xs.y.$X%X^.;X<X,X<X,X1Xf.",
",X,X,X,X,X,X,XOXOXOX,X,X,X,X,X,X,X>X>X,X:X,X,X,X:XOX,X%X^.[.OX,XOXOXOXoXoXoXOX,XOXOX X X>Xa.C..XD.^.&Xs.y.;X<X,X>X,X;XE.",
"OX,X,XQ.^./.%X,XOXOXOX,X].q.]..X.X,XOX.XOX,X;X,X,X,X,XG.E %XOX,XOXOXOXOXOXOXOXXXOXOXXXXX,XD.Q.oX.XoXoXQ.+X>X X|.XXXX.X%X",
"1XOX,Xa.d.@X].,X,X,XOXOX.X!..XOXXXOXOXOXoX,X2X,X,X,X,X,X1X>X,X,XOXOXOX,X,XOXOXXX|.OXOXOXOXOXOX XOXOXOX,X,XOXXX|.,XyX1X=X",
"u.[.>X%X@XP D.,X,X,X,XOX,X,XOXOX,X,X,X,XoX,X,X,X,X,X,X,X#X%X.X%X,XOXOXOXOXOXOX XOXOXOXOX XXXOXOXOXOXOXOXOXOXOX2XR.* o.[ ",
"I =X,X2X].r.+X,X,X,X,XOXOX,X2X;Xs.r.^.2XOX,X2X2X,X,X;XV.r p.S.V.,XOXOXOXXX,X,X[.OX,X>XXXOXOXOXOXOXOXOXOXOX,XOX4Xz.  <.>.",
"s.<X:X:XOX,X,X,XOXOXOXOXOXOX,X.Xa.0.^.,XXX,X,XOXOX,X%Xr n.t.t G.OXOXOXXXXX4X%Xy.;XG.w.}.OXOX,XOXOXOXOXOXOXOX|.3X[.I M wX",
".X,X,X,X,X,X,X,XOX,XOXOX,X,XOX XOX>XOXOX,XOX,X,X,X:X;XD.&X@XD.&XOXOXOXXXOX].T.^.>X$XA.OXOXOXOXOXOXOX|.XXOXXX XoX;Xz.M E.",
"2X,X,X,X,X,X,X2X2X2X2X2X;X2X,XXX>X%X.X,X,X,X;X$X;X,X,X>X,X,X,X,XOXOXOXOXOX!.^.>X].;X,XOXOXOX,X,X,X,X,XXX,X>XOXOX5XpX*XN.",
",X,X,X,X,X,X.X%X;X;X>X;X%X<X;XOX1X8.Q.;X].5X%Xt D.2X,XOXOX,X,X,XOXOXOXoXoX>X>X`.q.G.OXXXOXOX;X%XoXoX,XoXZ.t.'.oX>X%X9.S.",
",X,X,X,XOX>Xe.0 S.%X>XT.P <X2XT.S./..X;X;X,X;X^.%X>X,X,XOX,X,XOXOXOXXXXXOXXXOX.Xy.G.,XXX|.3XT.s.oX3X>X,XS.e.'.`.[.'.w R ",
":X,X,X,XXX2XT 3 U.G.R K H E.E.X.u.1XOXOX,XOXOX,X,XOX,X,X,XOXOXOX,XOXOX XXXXXXXXX,X%XD.OX|.tX<.m &Xn.e.>X,X>X.X[.2XyX=Xh.",
",X,X,XXXXX2X! 7 I.L.s N 0 Q K Q S..XOXOX,X,X,X,X,X,X,X,X,XOXOX,X,X.XG.[. XXXXX|.OX].V.'.[.0X:.j $XR D &XOX.XoX[.yXgXgXeX",
"OX;X,XXX,XOX].$Xi.G N N 9 B d N.;XXXOXOX,X,X,X,X,XOX,X,X,XOXOXOX>X].E G.OXXXXX|.OX[.m.^ E.>.4 j I.J B &XOX[.oXoXyXuXpX8X",
".X;X;X;X;X.XXX,XN.F Q F 7 D F F.>X.XOX,XOX;X;X,X.X%X;XOX2X;X[.!.}.,X[..XXXXXXXOXOXG.V G o.*.#.d A T U..X.XoX|..XeXeXtXtX",
";X;X;X;X.X;X;X.X.X[.&XE.L s.$X.X.XA.^.].>X>X;X.X$XL p.4X@XE F.].|.|.|.|.XXXXXX X XG.J a x #.&.n 7 i.>X`.oXoX,X4XK B T.V.",
";X;X;X%XD.n.M.G..X{..X;X%X].[..X;XC.x.C.%X1X1X_.T.1 k -Xg., Q &XoXoXOXOXXXXXXXXX|.oX*X' ) g ' qXU.G..X[.A.S.U.U.| ! @XU ",
"=X;X:X;Xy.u t S.]./.~.{..X.X%X;X;X.X'.V.p ^.;Xw.^ # g L.} 3 K y.A.$X^.'..X X|.XXOXOX;XG.S.p.S.%X;X.XOX=XI f C B @.R.%XrX",
"$X%X].].!.G.G.^.'.%X%X;X[.[.;X;X.X.X].S.r ^.;Xw.~ 2 6 ` c 4 B Y M.Y.p y.[.3X3XoXXXXXXXoX.X.X[.[.&X[.oX&XL.J.P.K.L.Y.Y.k.",
"F.N.M.V./..X].]..X%Xu.i.G.].^.V.'.'.'.'.^.'.'.^.T.| l X + C ^ e.F.T.n.V.[.'.t.F.[.XXOX|.|.3XG.^ ~ F.oXoXH.B.Y.B.N.M.X.d ",
"N.R Y i ^.;X].].;X#XI ! G.].D.q.S.A.].].].'./.'./.^.U . # l.'.^.^.'.'.'.'.G.R K.&X|.OX X XOXF.Y K S.OX[.B.M.J.+.M.M.M.k ",
"A.t.N.T.G.G.@X'././.%X=X].[.S.e D Y W.%X%X'.^.^.!.~.S.^ h.+X^.!.).'.'.).G.G.S.^.%XoX|. XOXOX3X3X%X[.OX=XF s s O.tX=X=XrX",
"N.i.i.g.Q Q R G.].A.i W G.].F.~ D D e y..X/.Q.^.~.~.'.'.$X@X^.!.'.'.'.'.y.i.G.^.].]..XoXoX>X>X.XG.F.G.W.! J Z ..qXE.*XE.",
"..^ ^ ..s < < n.'.n.8 9 W V.F.M.e 0 p S.].!.Q.].].'._.!.^.^.^.!.'.'.'.^.L G T.G.A.G.'.[.[.&X%XG.F B F N.L.J.^ J d ( X.` ",
"{ ~ t.J.~ ~ ^ M.n.W R ~ E n.m.n.W u G.%X/././.G.F.^.^.^.^.!.!.^.'.^.^.^.U.K.R e.U.E N.T.T.T.T.S.E R g.K.K.M.M.~ } | k.( ",
"{ ^ b.B.B.Y.Y.M.E t p.F.S.S.n.n.S.n.Z.G.^.#X%Xe.p ^.^.!.^.^.!.^.!.!.^.G.^.T.C ( O.C X.U.K.U.K.M.i.M.U.K.J.J.M.J.J.i.X.,.",
"T J.~ D 0 B B ^ i.i.M.N.N.R F n.V.S.S.t.R S.@X^.G.B.^ R G.^.V.E u N.G.G.n.N.G f S f k.P.K i.N.M.M.N.+.F C G O.} G O.y xX",
"S i.M.~ Q J f ^ M.M.M.n.n.V V N.S.S.S.R 9 M.A.].].M.V J T.^.F.Q Y M.F.F.E R ~ ^ ^ Q K.P.C i.N.M.M.M.M.^ | } O.} ( ..| 9X",
"! J.M.N.N.M.e.y.y.p.y.y.N.Y Y N.W t.N.E F M.n.A.G.G.i.Y T.S.S.S.t.S.S.L.R D B.Y.F.F.L.h.m g.K.M.M.M.p.K.M.X.......Q X.G ",
"M.i.i.i.N.p.p.y.y.y.y.y.N.W E N.e F N.y.n.n.n.y.y.^.t.Y T.y.n.^.G.N.~ ^ U.R.i.W S.S.i.! h.M.M.M.M.p.h.M.i.^ ^ ~ Q Q ~ | ",
"b.W E i.N.N.N.y.y.y.y.S.N.y.i.n.b.M.t.y.n.n.n.E W A.i.R i.p.A.A.S.N.! E G.$Xi.R F.A.y.i.M.N.M.M.M.p.h.K.M.i.i.^ ~ ~ ^ y ",
"| ^ g.i.X.g.p.p.p.p.i.g.p.r.y.y.N.M.~ ^ ^ ^ M.~ ! h.g.~ P s.S.E R h.i.e.N.J.I D M.i.t.N.R Q ^ i.p.p.p.M.! Q X.X.^ ~ y aX",
"l O.U.X.x ( g.h.h.h. .k  .y.V.n.R Y Y V Z Z D ^ ! j H X.K.S.G k J | K.U.' d ) ' k.h ! K.K Z J i.K.K.M.M.S f X.O.!  .q xX",
"5 ^ n. .l _ | i.i.N.[ z | t.y.i.B D ^ k l j J X.| v n K K.N.n x j j I U.[ x / k _ a m h.K g H g. .) ' k.k a ! ! !  .n - ",
"; <.0X,.&.v *.>.j.P.[ &.o.!  .o.l C L.n #.:.{ / *.%.b ) X.g.n v v 6 / l.` v b 2 l 6 b k.` v / O.G c _ 7Xx 5 <.o.<.,.=.o ",
"= : > %.=.$.$.; -.2.v :.2.v %.=.@ z qXz o 4.1.@ $ @ ;.7Xz a 6.4.$ $ #.*.z # *.3.% #.4.-.5 & %.9X1.O : 5.=.- %.z z ; - O "
};
