/* XPM */
static char *_5cf0793eb1f4e6f9603709e7ef8492bxk43nHrs1tR3Ag5N[] = {
/* columns rows colors chars-per-pixel */
"64 64 250 2 ",
"   c #8C6505",
".  c #926B0A",
"X  c #8E6623",
"o  c #926B29",
"O  c #946C33",
"+  c #976E3B",
"@  c #9A723A",
"#  c #996F48",
"$  c #9C7244",
"%  c #9F7841",
"&  c #9D744B",
"*  c #9E7552",
"=  c #A1784B",
"-  c #A17754",
";  c #A57B5C",
":  c #A87D66",
">  c #AB7E73",
",  c #B5935D",
"<  c #8A8C7B",
"1  c #968F75",
"2  c #9A947A",
"3  c #AC8265",
"4  c #AD816B",
"5  c #B3876C",
"6  c #A1966B",
"7  c #BB9968",
"8  c #AE8274",
"9  c #AE817B",
"0  c #B28575",
"q  c #B2857B",
"w  c #B78B79",
"e  c #B6897D",
"r  c #A69B7B",
"t  c #BB9975",
"y  c #B2A179",
"u  c #B9A378",
"i  c #C19E6F",
"p  c #C29A7A",
"a  c #C3A37A",
"s  c #C3AB7B",
"d  c #7FAFDF",
"f  c #8A8D88",
"g  c #8E9185",
"h  c #8C928C",
"j  c #999687",
"k  c #94948B",
"l  c #8A8E96",
"z  c #908F93",
"x  c #8B9397",
"c  c #8D949B",
"v  c #949593",
"b  c #9A9994",
"n  c #93969B",
"m  c #94999C",
"M  c #9B9B9B",
"N  c #AF8381",
"B  c #B48684",
"V  c #B68983",
"C  c #BA8C84",
"Z  c #B6888A",
"A  c #BB8C8B",
"S  c #A79C86",
"D  c #A39C8B",
"F  c #BE9885",
"G  c #BE918B",
"H  c #BC8D93",
"J  c #BC8C98",
"K  c #A39D96",
"L  c #BF9093",
"P  c #BF909A",
"I  c #ACA288",
"U  c #B6A589",
"Y  c #A9A296",
"T  c #B4A797",
"R  c #B7B09E",
"E  c #8B94A2",
"W  c #8994A6",
"Q  c #9195A2",
"!  c #989BA7",
"~  c #9B9DB4",
"^  c #A29EA6",
"/  c #A29FBB",
"(  c #9DA1B2",
")  c #A8A4A9",
"_  c #B7AAA7",
"`  c #A6A2B5",
"'  c #A4A3BC",
"]  c #AAA4BB",
"[  c #ACA9BD",
"{  c #B9ACB6",
"}  c #B3ABBB",
"|  c #B1B2B8",
" . c #BBB6BA",
".. c #C1968A",
"X. c #C18F9C",
"o. c #C29394",
"O. c #C3939C",
"+. c #C89A9A",
"@. c #C7A688",
"#. c #CCAA98",
"$. c #D3AC9B",
"%. c #CEB391",
"&. c #C595A3",
"*. c #C897A6",
"=. c #CA9AA5",
"-. c #C696A9",
";. c #CB9BAC",
":. c #D09FAE",
">. c #CD9CB3",
",. c #CE9AB7",
"<. c #D09EB4",
"1. c #D19EBB",
"2. c #CAA8A9",
"3. c #D4AAAA",
"4. c #C8B4A9",
"5. c #D8B5A9",
"6. c #C3AEB9",
"7. c #D4A2B4",
"8. c #D9ABB6",
"9. c #D4A2BC",
"0. c #D8A6BD",
"q. c #C3B3B4",
"w. c #C9B9B7",
"e. c #C3B3BC",
"r. c #CBB9BD",
"t. c #DCB3B3",
"y. c #D7BAB6",
"u. c #DDB4BC",
"i. c #DCBDBB",
"p. c #E2BAAB",
"a. c #E1B8B9",
"s. c #DEC5AA",
"d. c #C8C6BB",
"f. c #CCCBB8",
"g. c #D8C5B9",
"h. c #D6D4BC",
"j. c #E3C6A9",
"k. c #E2C6BB",
"l. c #E6D4B1",
"z. c #84B2DE",
"x. c #8BB5DC",
"c. c #8FB8DC",
"v. c #94B8D6",
"b. c #9CBBD4",
"n. c #94BADC",
"m. c #9ABDDB",
"M. c #A5A5C4",
"N. c #AAA6C4",
"B. c #ADAAC4",
"V. c #A8A6CA",
"C. c #ACAACC",
"Z. c #B2ABC5",
"A. c #BCAEC4",
"S. c #B3ACCC",
"D. c #BAAECC",
"F. c #AEB3C6",
"G. c #A5BECD",
"H. c #BCB2C4",
"J. c #B4BAC7",
"K. c #BABDC4",
"L. c #B5B1CC",
"P. c #BCB3CC",
"I. c #BCBCCA",
"U. c #ADACD4",
"Y. c #AEABD8",
"T. c #B3ACD3",
"R. c #BAAED4",
"E. c #B4AEDA",
"W. c #BAAFDB",
"Q. c #A2BED3",
"!. c #ADB8D0",
"~. c #B5B2D3",
"^. c #BCB3D4",
"/. c #BCBCD1",
"(. c #B5B1DA",
"). c #BBB3DB",
"_. c #84B4E3",
"`. c #8AB7E2",
"'. c #8DB9E3",
"]. c #86B7E9",
"[. c #93BBE2",
"{. c #9ABFE0",
"}. c #BBB4E3",
"|. c #B8B4E6",
" X c #D49EC3",
".X c #C0AECD",
"XX c #D5A2C3",
"oX c #D9A5C4",
"OX c #DCA9C4",
"+X c #D6A0C8",
"@X c #DAA6CB",
"#X c #DDA9CB",
"$X c #C3B4C4",
"%X c #C7B9C6",
"&X c #CCBAC3",
"*X c #C3B4CB",
"=X c #CBB6CB",
"-X c #CDBBCB",
";X c #D4BCC4",
":X c #DBBCC5",
">X c #D3BDCC",
",X c #DCA7D2",
"<X c #DEA9D2",
"1X c #C3B5D2",
"2X c #C7B8D4",
"3X c #CCBBD3",
"4X c #C2B5DC",
"5X c #C5BADC",
"6X c #CCBCDC",
"7X c #D3BED7",
"8X c #E2AECD",
"9X c #E4BAC3",
"0X c #E5B8C9",
"qX c #E1ACD4",
"wX c #E3ADDA",
"eX c #E7B4D5",
"rX c #E6B1DC",
"tX c #C2B6E3",
"yX c #C3BAE5",
"uX c #C7BAE8",
"iX c #D3BEE2",
"pX c #E7AFE0",
"aX c #EAB3E4",
"sX c #EBB5E8",
"dX c #9EC1DB",
"fX c #ACC2C8",
"gX c #ACC3CD",
"hX c #BBC4C4",
"jX c #B4C5CB",
"kX c #B9C6C8",
"lX c #BBCACC",
"zX c #A5C1D4",
"xX c #ABC3D3",
"cX c #A3C2DA",
"vX c #ACC7D8",
"bX c #B3C6D2",
"nX c #B4CAD4",
"mX c #B9C8D2",
"MX c #C6C8C4",
"NX c #C2CDCB",
"BX c #D7C4C7",
"VX c #C8D1C8",
"CX c #D2D1C8",
"ZX c #D4C1D4",
"AX c #D4C2DC",
"SX c #DBC4D8",
"DX c #E7C4C8",
"FX c #E4C2CC",
"GX c #E7C7D4",
"HX c #D7C3E2",
/* pixels */
"O : &.O.C A 7 U E n D D v v s w A A o.4 o & + A J : C t U v b S M n Q U 5 e : O.Z O $ o 0 ..V G 0 u j k D S v c T a V C ..o.= O ",
"O - O.o.C O.@.) ~ ! T Y ! ) %.o.o.o.;.e % ; & L >.C O.+.#.! ) _ ) ! n U e L q ;.O.; : $ e =.o.&.C s M ! Y T ) ( _ a A G +.=.& $ ",
"Z O.wX#XoXqX0X6X}.).7X5X|.yXGXqXwXqXsXXXA *.&.qXsX7.wXeXGXyXyX6X6X}.).FXoXqX9.sXqXO.*.C 9.aXqXwX#XDXtX|.6XAXyXyXSX9X<XqXrXrXP L ",
"J *.aXqXoX@Xu.*XT.S.e.H.U.L.a.oXoX7.qX*.0 L L oXqXO.oXOXBX).^.*X$XS.T.BX3.XX=.qX7.A Z 3 -.<X9.@X0.i.T.T.2X-X^.E.-Xt.XX9.@X@Xq A ",
"V P OX0.7.XXt.H.N.] _ } V.Z.t.<.;.>.OXO.9 A q <.oXL 7.7.i.C.Z.{ { B.B.y.=.9.O.#X;.3 q : &.#X7.1.;.5.Z.C.P.&XZ.B. .5.1.>.1.oXN B ",
"H Z @XoX1.+Xu.$XV.S.{ S.T.D.u. X>.1.qX-.B H B 1.,X&.+XOX:XT.T.*XH.U.C.:XoX@X,.wX>.0 Z 0 >.wX1.oX<.i.T.T.*X=XT.U.*Xt. X1. X,XZ H ",
"@.7 a.t.5.8.5.w.|  .w.%XI.K.j.t.3.t.0X2.t t 7 t.9X#.u.a.k.K.K.d.d.J.J.k.a.9Xt.0X3.7 @.7 5.FXt.a.5.l.hXI.MXf.K.J.f.j.t.t.u.9X@.7 ",
"R U 7Xr.q.&Xg.lXb.G.jXzXb.zXMX*X$X%XAX_ j D S =XAX{ *X%XNXcXcXgXgXdXdXNX%X*Xq.HX&XI _ Y H.AXH.2Xe.CXcXcXnXlXcXdXnXMX*XH.*X2XY S ",
"E ~ |.V.M.V.F.b.d x.b.v._.c.J.T.V.C.|.~ f z z T.}.~ U.C.xX`.`.v.b.'.'.mXC.E.M.uXC.E ! c N.|.C.E.Z.lX[.`.m.zX[.`.dXJ.U.C.T.(.c W ",
"n ! }.Z.N.C.| Q.z.v.zXb.n.b.MXR.B.C.}.^ < b k Z.).` S.Z.jXc.c.b.b.n.n.mXL.R.] yXS.M ) j [ yXD.4XL.NXm.n.m.xXm.[.vX .S.L.^.(.v z ",
"I _ 7Xe. .$Xd.hXQ.xXhXxXQ.bXBX-X6.e.7XT r S 2 { 3X_ $Xe.d.b.Q.fXfXQ.Q.CXw.>Xq.SXr.y Y 6 { 7X&X>Xe.f.zXQ.jXkXxXQ.mXd.$X$X*X=XI K ",
"j ^ 4XA.} D.w.xXn.Q.gXcXm.cXMX^.} A.4X) k v k Z.5X) S.H.kXc.b.G.G.v.n.NXe.1X} 5XH.2 K g } 6X*X2XH.MXn.n.Q.gXm.[.nX .S.Z.^.^.S 2 ",
"f ! }.C.V.C.| m.`.n.Q.n.'.[./.E.C.T.}.~ l E x C.}./ T.S.xXz.x.v.v.x._.mXS.E.' |.C.f Q c V.tXT.(.C.kXc.`.n.Q.[.].xX .V.T.E.E.h f ",
"n ^ tXS.N.C.K.cXm.m.zX{.[.dXkXT.T.T.4X^ n ! j } 6X) *X$XlXv.v.G.b.c.c.lXL.~.` }.Z.j ! n B.yX^.1XH.f.m.n.cXgXm.m.mXw.H.P.2X2Xm j ",
"t @.DXy.5.i.s.VXkXVXh.VXlXVXl.i.y.y.0X#.U ..7 t.eX3.:Xt.g.I.hXf.d.hXhXl.s.u.#.FXi.s @.s 5.DXa.a.a.l.MXkXMXCXNXmXh.j.9Xa.0X0XF s ",
"4 A 0.0.7.>.5. .N.Z.w. .C.H.5.<.=.;.@X&.Z H C XXpX1.@X0.;XT.S.$XA.Z.B.w.7.7.=.qX0.G O.C ;.wXoXoXOXk.P.(.1X-X).Y.;Xa.@XoXqXwX&.C ",
"Z -.<XXX,. Xu./.).^.-X^.Y.^.DXXXXXXXwXO.; Z A <.OXO.>.=.q.' ] e.A.S.C.;XOX@X;.#X7.C L 4 O.#X0.7.0.y.L.C.} q.[ V.BXa.@XOX#X7.A 8 ",
"Z *.#X;.;.1.8.^.S.Z.&XP.U.S.i.1.,.1.<X&.4 A e 0.#X>.9.7.e.M.C.$XH.S.C.;X0.@X>.qXoXA A 4 &.qXoX0.oXa.P.U.P.e.S.Y.BXa.oXOXqX#Xe 4 ",
"P >.aX@XXX<X9X2XtX}.ZX6X}.tXFX@XXX@XsX<.C O.O.rXsXqXqX8X7X|.).3X2X).}.SX8XrXOXsXrXo.O.e 1.sXwXqXwXGXAX|.AXAXyX|.SX9XqXrXaXrXo.C ",
": Z 1.-.&.,.#.) / ` _ } / ] #.*.O.-.oXo.; : > ,.7.;.;.;.4./ ] { ) ` M.w.7.1.-.oX=.- : * H 9.;.O.>.t.) / { { ' M.q.$.;.+.oX;.: * ",
"X $ e 8 8 Z F M f 1 r j < < 7 0 > 0 A ; o + O q e 4 V V I f < 2 1 g x y 5 q 8 -.e o +   9 *.A 4 Z @.b x Y Y n f r , e e H Z O o ",
"+ ; o.V B J ..K n m Y b v m @.H J Z &.> @ $ # H L 0 P H U v v D K ! Q U C A V &.V + & . 9 =.e V O.u b ! ) T M Q U p X.o.L J # # ",
"o & J V N Z t 2 f k r 2 f v u 4 8 V O.; o + O V o.: A e t g v b j k < t 5 C 9 o.0 O # X > O.e q A u m Q ) I h E I 7 Z 0 C O.O o ",
"q &.qXXX,. X8.H.U.S.e.Z.V.B.5.;.&.<.#XO.Z Z q XX<X&.XX0.y.C.S. .e.Z.N.r.8.<X7.rXoXZ O.Z ;.rXoX7.#Xk.).).3X$XC.C.{ 3.>.<.9.oXZ 4 ",
"&.;.pX@XXX+Xa.3X}.4X3X4X|.5XFXwXXX@XaX,.O.o.C <XpX7.qX8XSX|.).3X6X}.|.GX8XqX0.sX#XO.=.C >.sX#XoXrXk.4X).2XAX}.}.ZX0X<X<XwXaX;.O.",
": V ,.O.*.>.3. .M.] _ ) ' [ 3.>.*.*.,.e ; : ; ,.XXL -.#.R ~ ' _ ) ` ` 4.+.>.+.#X<.0 e 4 o.#X9.7.OX5.S.S.A.q.' N.4.3.>.;.>.XXq 8 ",
"e O.qX1.>.1.t.2XT.^.*XS.T.P.u.@X>.XXqX&.q Z B XX<X,.XX8.&XY.(.=XD.C.T.BX7.#X<.rX#XC A 0 -.wXoX9.#Xy.T.T..X*XU.V.&X0. X9.@X,XH Z ",
"C o.8X8.3.8.j.MXH.P.r.H.B.} t.#X;.7.eX+.w C e OX8X3.0.a.g.L.P.r.{ B.Z.g.3.OX3.eXOXw ..5 2.eX0.3.a.s. .|  .w.F.F.g.p.9.:.OX0.C w ",
"T _ SXi.r.=Xf.NXxXjXMXNXbXlXk.:Xy.i.GX4.U U I ;XBXw.-X;XVXzXbXVXMXjXbXCX;X;X4.GX:XU U r q.SXy.w.BXf.zXb.jXMXxXxXh.g.&Xw.FX;XY U ",
"c ~ }.S.N.T.K.m.z.c.Q.n.z.n.jXT.^.).yX' Q Q W U.E.N.E.T.bX_._.zXm.x.z.mX~.Y.] }.T.n ! c N.}.T.C.U.fXx._.v.b.z._.zXL.Y.V.}.(.E W ",
"k ^ yXS.B.S.K.b.z.c.G.b.`.n.kX^.^.~.yX' n v n T.).S.E.P.mX'.n.b.b.x.x.lXP.~.[ tX^.! ! n [ yX^.(.L.kXc.x.b.Q.c.x.jXI.).^.4X).! n ",
"S ) 6XH.} A.w.gXv.b.fXG.n.cXCX*X*X*X6X_ D j j H.2X{ *X;XVXzXxXkXfXb.b.d.e.*X{ 6X*XK Y S { ZX-X-Xr.f.zXQ.jXlXQ.v.lXd.3X;XZX7XT r ",
"D _ 6X%Xe.$Xd.jXb.G.hXgXm.vXBX*Xe.%X7X_ r S j .X2Xe.*X$XlXm.m.fXb.v.v.hX{ D._ 3X$Xj D 2 ) 6X*XH.*XMXm.n.Q.gXb.v.NXg.2X*X5X5XD b ",
"m M ).R.S.T.K.zXx.v.G.b.'.dXkXR.B.S.yX] h n Q R.4XD.R.L.xXx.c.gXb.x.x.jXN.T.` 4XS.g v g ` yX^.^.L.lXn.`.b.zX'.`.nXK.).L.).}.m n ",
"m n }.E.U.U.J.cXz.x.G.n.`.dXMXW.B.S.}.~ c E E U.E.C.T.F.gXx.c.Q.v.x.z.fX] T.' }.C.g v f ' yX).).L.lX[.`.m.xXx._.vXK.(.~.).tXm l ",
"U T GXBXr.&Xg.VXxXfXd.kXbXNXl.FXy.i.GX4.I U S &X>X;X;Xs.h.gXjXMXhXjXjXh.5.;X4.SXy.t U y 4.GXBXBXi.h.mXmXNXVXbXcXNXs.:Xi.FXFXU U ",
"p @.0XOX8.8.p.BXP.H.e.H.S.H.t.0.7.7.OX+.w C 5 8.0X7.9.t.w.N.Z.q.A.[ [ 5.=.1.&.#X7.5 C e ;.8XOXOX8.k.1X^.-X&XP.~.BXt.7.3.OXOXV +.",
"Z O.qXoXXX+Xt.-XE.R.$XP.T.^.i.oX,.1.<X&.Z Z q XXqX>.XXu.-XU.T.&XP.T.U.i.7.XX>.<X,.5 A B ,.rXoX#X@X0X).W.1X-X(.Y.;Xu.@XoXwXqXP e ",
": C #X>.=.1.$.e.N.Z.{ ] N.N.3.;.&.;.XXJ > 4 : ;.XXo.>.$.q.M.B._ } S.C.r.3.*.O.1.J ; 8 : &.0.=.7.:.5.} ' { 4.[ ' 4.$.<.;.oX0.V : ",
"A =.sXwX#XwX9XSX|.5X7X5XyXtXFXwXoX#XsXXXO.O.A qXsXoXwX0XSX}.yX7X4X).Y.>XOX,X9.aXXXC *.&.#XsX#XrX#XGX5X|.6XAX}.|.SX9XqXOXqXaX;.G ",
"O.O.qXwX#X@Xa.;XY.~.r.Z.Z.C.3.<.;.>.@X&.> q e @XqX9.@Xa.;XT.C.{ ` ` ' y.7.XX>.wX,.q A q 9.rX0.qX8.k.(.Y.H.&XT.U.-Xt.oX0.#XrXo.C ",
"* * &.-.A Z t y h b Y j g j 7 e 8 V O.*   O $ O.=.e V p I h g 6 1 h x u 4 Z : A > X $ . 0 O.A P 0 u n E j S m W S 7 Z V P *.& O ",
"% 3 =.O.e A p T ! b S K n ) @.O.Z H &.: O & & -.;.e A p U x n K K Q Q u 4 P 9 o.0 o - @ C ;.A o.w s ! Q K Y ! W S t H A H O.= $ ",
"O @ ..C q B 7 Y c j 6 j c b F H > : e *   . o P A 3 A t U x c r b l f , : A Z O.>   +   8 *.V ..A @.M x j Y W l r t B 8 q C @ X ",
"; V 9.=.O.&.@._ ` ` _ [ N.| 3.1.&.O.9.J : q 9 1.>.O.*.#.4.~ ' q.} / ] 4.=.,.;.#X*.: 8 ; *.OX&.;.=.5.[ M.} q.N.~ _ #.&.J &.,.4 3 ",
"+.:.sXqX#XqX9XHX|.4X3X).}.6XGXwXoX@XaX,.O.;.=.wXrXqX<X9XSX|.yXSXiXyX}.GX8XrXeXsX#Xo.O.G #XsXOXrXOXGXyX}.6XSXtX|.AX9X<XoXqXsX+.o.",
"A O.qX7.>.,.5.&XC.Z. .S.E.H.u.#X7.7.<X-.Z A A oX#X;.1.3.&XE.4X-X} ] ' 4.=.#XOXrX7.0 V 0 oXqX<.oX7.g.(.).2X>X^.U.&X5.1.;.9.qXA V ",
"V q 9.>.;.>.3.q./ Z.{ D.E.*X9X<X7.oXaX<.C o.C OXwX;.<X8X>XW.1X2X1X(.).k.0.qXoXrX>.w H C 9.rX9.<X0.g.S.).3X>X^.U.&X5.;.;.0.OXA C ",
"G O.wX@XoX Xt.*XY.D.$XS.V.{ 3.7.=.7.8Xo.3 e 0 7.#X+.0.8.w.B.} q. .B.L.g.7.OX7.8X+.3 e 5 :.8X7.7.3.DX^.S.$X&XZ.Y.>Xa.@X#XqXOX0 5 ",
"s %.GXu.3.u.s.d.jXK.r.K.J.d.l.i.5.t.FX#.7 a u k.DX5.k.k.h.kXlXh.VXNXNXl.5.g.5.GXy.u %.s g.GXi.:Xi.h.mXlXMXh.lXjXh.s.u.u.0XDXs s ",
"M ) yXP.Z.R.%XQ.x.m.fXb.c.b.MXR.B.Z.}.! < M n ^.yX[ ^.I.nX`.n.xXcXm.[.lXZ.^.[ uXD.m ^ 2 B.|.B.S.(.mX[.'.m.zX'.[.nX .D.P.2X6X! m ",
"c m tXE.C.T.I.v.z.c.b.x._.n.I.T.M.V.|.~ f Q W (.|.' E.P.bX`.[.cXn.`.'.mXZ.).C.uXS.m ! h Z.uXS.B.T.!.'.'.m.cX'.].xX .E.E.}.}.M h ",
"D K iXP.A.*XMXzXv.b.G.Q.n.xXMX1X} Z.5X) j Y M 1X6X{ 2X-XNXm.dXbXxXm.n.NXH.2XH.iXH.D Y b H.HXH.} *X%XdXm.xXbXcXm.lXMX1X*X2X5XK j ",
"S T AX$Xe.-Xf.jXQ.G.hXgXzXmXBX=X{ { 6X_ Y T Y -X7Xq.-XBXVXzXcXNXlXQ.b.h.w.-Xq.AXe.r T I e.SX&Xq.>XMXzXQ.xXlXxXm.NXd.-Xr.ZX-XI r ",
"m ) uXL.[ E.J.v.x.v.Q.m.'.m.kXE.B.S.yXN.Q ! v ^.tXZ.).^.bX'.[.zXQ.'.n.lXZ.).[ }.S.k ! m S.uXL.Z.).lX[.'.cXxX[.'.mXI.^.Z.yX).k v ",
"c / }.C.V.U.J.c._._.zX[.].'.kXC.E.T.}.M.c c z R.tXB.E.~.xX].`.n.n.`.].bX(.Y.' |.T.c ! W N.|.Y.|.).kX`.].m.cX`.].cX~.T.N.}.(.c l ",
"I _ AX%X .-XCXNXxXnXNXnXcXvXh.r.ZX-XAXq.r I D 3XAX&X3X-XVXzXxXlXmXvXvXCXg.-X_ AX-XT R I q.ZX>X>Xw.CXvXvXlXVXbXvXVXf.>X;XSXZXU y ",
"t @.0Xt.3.t.j.f.K.d.g.d.J.hXj.t.t.t.9X#., 7 t t.9X5.t.p.s.J.K.f.d.hXK.l.5.t.@.9Xt.i p , #.9Xt.a.5.l.%XK.d.g.I.~.BXp.8X0X9Xa.7 7 ",
"J &.wXXX<. Xt.3XE.R.=X^.Y.^.DXoXoX@XqX-.q A H @XqX1.XXoX:XT.T.&X*XE.E.:X1.XX-.,X1.e C 5 ;.wXXX@X7.i.S.(.*X-X(.E.3Xu.@X#X<X<XZ 0 ",
"o.O.#X7.;.1.t.&XV.T.&X1X(.^.i.7.oXoXqX-.q H Z oX#X>.oXOXg.T.L.$X*X~.T.i.<.XX*.#X9.e V 5 <.rX#X#X=.5.Z.U.*Xw.B.N.r.$.>.=.oXqXG L ",
"o.+.rXwX#X,Xa.3XE.).ZX2X}.4XDXOX#X#XwX1.H &.O.#XrX7.#X8XBX).).3X3X).(.BXoX@X>.wX@XV o.C 9.aX8XqX7.i.^.).5XZXyX}.SX9X<X#XrXaX;.&.",
"G G qXqXOX+Xt.-X}.4XZX2X).).DXOXqXqXaXXXO.*.O.qXsXoX<Xu.BX(.^.*X*XT.T.BXoX@X>.wX@XC O.L oXaX#XqXOXGXyXyX6XZX).E.>Xt.@X@XqXwXO.o.",
"@ & &.&.Z B 7 Y W ! T K n v @.C O.o.;.9 O - $ G =.o.O...R E v S j h x U V A : o.V @ - % A ;.Z L G %.) ! Y T v x I 7 Z O.&.O.& @ ",
"$ & *.P 0 B t Y W n U D f g s e J A O.> X + O e O.0 H G U z k r 2 h x U q q ; H V O $ . e +.0 e 0 @.m v S r g h y 7 H A o.G @ O "
};
