/* XPM */
static char *fe79311a2ac04085ca2a75aab05f0448neDIJQ6KJVTdAr0i[] = {
/* columns rows colors chars-per-pixel */
"64 64 248 2 ",
"   c #9A9D06",
".  c #9A9A17",
"X  c #9DA10C",
"o  c #A1A21B",
"O  c #9B9E2A",
"+  c #9EA434",
"@  c #A2A32A",
"#  c #A5A639",
"$  c #9CA549",
"%  c #9EAA59",
"&  c #A8AB47",
"*  c #B7B54C",
"=  c #A3AC59",
"-  c #AAB153",
";  c #B7B555",
":  c #BCB954",
">  c #BDBA5A",
",  c #9EAD66",
"<  c #96AB7B",
"1  c #9EB17C",
"2  c #A3AD65",
"3  c #A9B66A",
"4  c #BDBB64",
"5  c #B2B769",
"6  c #B3BB6B",
"7  c #BDBC6B",
"8  c #ABB675",
"9  c #A4B47B",
"0  c #ACBB7C",
"q  c #B4B875",
"w  c #BCBC74",
"e  c #B4BC7B",
"r  c #BBBC7B",
"t  c #C2BE5C",
"y  c #C3BE63",
"u  c #C2BE6B",
"i  c #C0BE75",
"p  c #C1BE7A",
"a  c #BAC06A",
"s  c #B8C379",
"d  c #BCC17C",
"f  c #C6C15E",
"g  c #C5C164",
"h  c #CAC565",
"j  c #CDC867",
"k  c #C4C26C",
"l  c #CBC56B",
"z  c #CEC86B",
"x  c #D1CB6C",
"c  c #C5C374",
"v  c #CBC672",
"b  c #CEC973",
"n  c #C3C37C",
"m  c #CBC97B",
"M  c #D2CC74",
"N  c #D4CD7B",
"B  c #D8CF7D",
"V  c #D6D075",
"C  c #D6D17C",
"Z  c #D9D17D",
"A  c #96AD87",
"S  c #9DB185",
"D  c #9BB18C",
"F  c #96AD94",
"G  c #9BB498",
"H  c #A4B788",
"J  c #B4BA83",
"K  c #B5BB87",
"L  c #BBBD81",
"P  c #A5BA96",
"I  c #ABBA9A",
"U  c #B2BF99",
"Y  c #9AB7A7",
"T  c #9ABBB7",
"R  c #A6BDA6",
"E  c #AABDA9",
"W  c #C1BF81",
"Q  c #BDC283",
"!  c #B5C389",
"~  c #BDC38B",
"^  c #B8C595",
"/  c #B4C49B",
"(  c #BCC69C",
")  c #B2C899",
"_  c #BDCA9D",
"`  c #9FC2BC",
"'  c #ABC3A9",
"]  c #B4C4A4",
"[  c #B9C7A5",
"{  c #BDCAA3",
"}  c #B4C4AB",
"|  c #B4CAAD",
" . c #BCCBAC",
".. c #BBD1AA",
"X. c #A9C6B4",
"o. c #A4C5BC",
"O. c #AAC5BD",
"+. c #ACC9BB",
"@. c #B4C5B3",
"#. c #B5CBB3",
"$. c #BCCBB4",
"%. c #B5C6BA",
"&. c #B4CCBC",
"*. c #BCCCBB",
"=. c #BCD2B7",
"-. c #C3C484",
";. c #C7C786",
":. c #CBCB84",
">. c #C2C48B",
",. c #C4CB8C",
"<. c #CBCC8C",
"1. c #D3CD88",
"2. c #CCD18E",
"3. c #D5D183",
"4. c #DCD483",
"5. c #DCD689",
"6. c #D8D58C",
"7. c #C5C594",
"8. c #C3CC93",
"9. c #CCCD94",
"0. c #C3CB9B",
"q. c #CCCD9B",
"w. c #D3CE95",
"e. c #D2CE9B",
"r. c #CDD194",
"t. c #C6D39C",
"y. c #CDD39B",
"u. c #D3D394",
"i. c #DAD395",
"p. c #D8D995",
"a. c #D4D49B",
"s. c #DAD49B",
"d. c #D6D99C",
"f. c #DCDB9D",
"g. c #E0D686",
"h. c #E1D887",
"j. c #E4DB8C",
"k. c #E8DE8F",
"l. c #E5DD92",
"z. c #E9DF91",
"x. c #E2DA9C",
"c. c #E5DA9C",
"v. c #DFE09E",
"b. c #ECE294",
"n. c #E6E29B",
"m. c #EDE49B",
"M. c #F0E497",
"N. c #F1E69A",
"B. c #F3E89E",
"V. c #C2CDA4",
"C. c #C3CEAA",
"Z. c #C8CDA8",
"A. c #C5D2A5",
"S. c #CCD3A4",
"D. c #C4D1AC",
"F. c #CCD4AC",
"G. c #CDD9A8",
"H. c #D3D4A3",
"J. c #DAD6A2",
"K. c #D5DAA4",
"L. c #DCDCA3",
"P. c #D2D6AD",
"I. c #DBD7AA",
"U. c #D4DBAC",
"Y. c #DCDBAB",
"T. c #C2CEB5",
"R. c #CBCEB4",
"E. c #C2CEBC",
"W. c #CBCEBB",
"Q. c #C5D2B3",
"!. c #CCD5B3",
"~. c #CDD9B4",
"^. c #C4D2BC",
"/. c #CBD4BC",
"(. c #CBD8BC",
"). c #D4D5B4",
"_. c #DAD6B5",
"`. c #D4DBB4",
"'. c #DBDAB3",
"]. c #D3D4BB",
"[. c #D8D6B9",
"{. c #D4DCBA",
"}. c #DBDABB",
"|. c #E3DCA4",
" X c #E9DFA4",
".X c #E3DDAB",
"XX c #E9DFAA",
"oX c #E3DDB4",
"OX c #E3DEBC",
"+X c #DEE1A8",
"@X c #D9E0B5",
"#X c #DAE2BC",
"$X c #E3E3A5",
"%X c #EBE2A6",
"&X c #EDE8A6",
"*X c #E4E3AC",
"=X c #EBE3AC",
"-X c #F4EBA2",
";X c #F9EDA4",
":X c #F4EAAB",
">X c #F4EBAC",
",X c #FBF0A6",
"<X c #F6F0AB",
"1X c #FCF2AB",
"2X c #E5E3B2",
"3X c #ECE5B3",
"4X c #ECE9B4",
"5X c #E5E6B8",
"6X c #EAE5BA",
"7X c #EEEABA",
"8X c #F0E7B3",
"9X c #F3EAB3",
"0X c #F2ECBB",
"qX c #FDF5B2",
"wX c #FEF9B9",
"eX c #8CB6CE",
"rX c #98BEC8",
"tX c #8EB9D6",
"yX c #93BDD7",
"uX c #A4BECB",
"iX c #9DC2C1",
"pX c #9DC2CD",
"aX c #9BC2D2",
"sX c #97C0D8",
"dX c #A4C4C5",
"fX c #ABC4C4",
"gX c #ACCAC4",
"hX c #A8C7CA",
"jX c #ACC5CB",
"kX c #B2C6C4",
"lX c #B5CAC4",
"zX c #BBCCC3",
"xX c #B0C6C9",
"cX c #B4CACB",
"vX c #BBCDCA",
"bX c #BBD3C7",
"nX c #A6CAD4",
"mX c #BACED2",
"MX c #C1CFC1",
"NX c #C4D3C3",
"BX c #C9D7C6",
"VX c #CDDAC3",
"CX c #D6DBC5",
"ZX c #C5D5D4",
"AX c #E2DFC2",
"SX c #DAE3C4",
"DX c #E7E3C4",
"FX c #F3EEC2",
/* pixels */
"N.j.k.B.B v $.U.*XoX=X3X2X*XVXp.N <X<Xb.B.,XN.b.qXn.M #XSX2X7X0X9X3X*X`.!.x j.<Xb.M.;XB.z.<Xn.z U.{.*X}.3X3X'.f.F.T.l 4.-Xb.4.N.",
"g.N B j.k > E ^ <.9.9.i.9.,.| -.> z.b.3.j.b.4.4.<Xl.g F.Q.K..X|.J.J.d. ._ * N m.4.g.b.g.Z b.4.* ( V.y.H.a.q.w.<.( ] : l j.Z v g.",
"N.j.z.B.3.v $.A.f.I.|. XY.d.*.<.v -X;Xb.m.B.j.b.qXn.M {.{.+XXX%X|.|.$XF.F.y 4.-Xj.j.B.z.g.B.j.t q.Q.d.I.|..X.XJ.A.$.k M B.b.4.N.",
"B.j.z.B.b v T.A.f.I.|.|.Y.d.^.2.b ;X;Xm.;X,Xm.-XwXm.4.SX`.*X3X:X>X3X&X}.{.z j.1Xm.m.;XN.j.;Xz.f t.$.H.P.|.|.Y.L.d.*.c l B.N.g.N.",
"M 4 t l @ $ F 3 q J w p J 8 F 2 # b B k 3.4.l m j.c & I I ~ 7.:.:.;.Q I I @ u Z g k M l 4 B l . , A 3 e 6 7 q 6 3 F % O g y * g ",
"1.n n 1.2 1 T ! ^ 9.( 7.U ! Y 9 - <.6.c m C c k C 4 # H P ! >.-.-.>.! P P # 4 C k k N m w 1.:.& H Y ! U ^ ~ ^ ~ P Y 2 % :.c 6 <.",
"^.@.$.(.P G yXdXjXzXxXlXjXo.tXY A *.*.' ^.NX$.%.(. .A pXpXfXvXzXzXcXgXpXyXD } VX .#.(.$.@./.E.A T tXO.fXzXkXkXO.rXtXY P /.$.E *.",
"d.,.r.L.e 0 O._ D.F.D.S. .[ o.P 3 S.y.,.U.`.V.V.2X_ 1 ` X. .T.Q.!.Q...o.o.8 8.@X0.9.K.y.,.K.y.3 ) o._ C.C.C.C.V.' o.0 e f.a.;.d.",
"Y.q.H..X>.e fXC.!.).!.P.T. .fX/ q I.I.9.$X=XL.a.3X:.w O.%.F.!.P.`.].Q.*.%.e K.*Xu.u.Y.J.9.I.H.q } dX$.E.W.W.W.T.@.fXK J I.H.9..X",
" Xi.x.%X<.w %.F.]._.].[./.Q.cX( w |. Xw..X2XI.H.2X7.i *.T.P.]._.'.].~.zXlXw Y.3Xi.i.XX|.i. X|.u V.lXF.]._._.).P.Z.kX-.p  Xc.i. X",
"XXi.s.=X<.q %.T.)._._.[.].!.cX^ 7 |.XXw.XX=XJ.J.=X<.w %.$.P._._.'.[.).NXzXc Y.3Xa.a. X|.<. X|.4  .xXF./.[._.).F.C.xXQ q |.|.w.|.",
"%Xi.s.%X1.w %.$.P.'._._.[.P.vX( w XXXXa..X=Xs.s.=X<.w E.T.U.]._._.[.).NXlX-..X3Xi.i.%X X1. Xs.q $.xXP.].[._.].P.C.kXQ 7  X|.1. X",
".Xq.a..X>.0 O.@.T._.!.)./.Q.cX} q Y.Y.S.'..Xs.K.7Xa.~ vXbX{.CX_._.].~.*.lX~ I.2Xq.q.Y.I.9..XH.J @.jX!.NX].].W.P.$.fXK 0 Y.J.9.I.",
"f.9.r.L.d 8 ` [  .S.S.H.D.A.&.) 6 f.f.2.f.$XK.L.4Xr.s &.=.G.{.U.K.F.S.#.#.s f.$X<.r.L.a.,.f.r.5 ] +.t.F.F.F.Q.A.| o.0 8 f.d.;.d.",
"^.@.$.VXI G tXO.jXzXlXlXjXo.yXT D ^.^.] BXCX^.^.SX$.P aXnXlXmXcXvXvXlXaXaXG ^.VX] | NX*.} VX$.A T tX+.jXcXxXjXgXrXtXY G ^.T.E $.",
"9.-.9.a.8 8 R ! ] 0.( 0.] / T H 3 y.y.~ U.Y.q.9.Y.8.8 O.+.D.^.Q.C.C._ ' R 2 0.L.-.;.<.-.d r.,.2 P T ) [  .[ } [ R Y = 2 <.<.r ,.",
"M y g z # = P 3 5 u ;.:.Q s S = o g h y C V h h 4.> # P H d -.c w q 0 0 9 o g C k b M g > z g o 2 A 6 J L L r w 8 A + # l l > N ",
";Xl.m.-Xv :.BXU.J. X4X3X'.+X*.u.l m.N.l.>X<Xm.&X<X4.l {.`.L.oX=Xc.Y.I.!.!.t n.qXn.-XqXm.j.B.n.t q.*.p.I..X.X'.2X{.T.l B B.B.l.;X",
"<Xb.-X<XN p.VXU.*X%X=X9X2X+X*.p.M B.;Xb.;X<Xm.b.;Xj.h {.#X2X0X9X=X=X%X~.~.l &XqXn.-X1X-Xj.B.m.f S.(.$X2X3X=X6X9X#X!.h 4.B.b.j.>X",
"j.B l.m.c m $.0.u.i.w.s.P.r.} n > j.b.Z k.b.4.Z z.N :  .!.L.XXi.s.s.u.V.{ > l.-X5.j.m.b.5.m.l.* ~ } u.H.J.s.'.L.A.] > v j.4.l g.",
"m.g.M.-XB 3./.K.L.'.|. XY.d.^.<.h B.-Xj.B.;Xz.z.;Xj.l `.`.*X.X%X%X=XL.U.P.b m.qXb.m.<X-Xb.<X-XM y.^.v.*X=X=X4X*X`.^.N 4.;Xz.4.N.",
"B.j.B.;X4.4.VXU.$X2X3X=X*X$X(.u.z -X;Xb.;X,XM.m.1Xj.z }.@X*X3X>X:X3X*X@X{.Z m.wX-X-X<X<Xm.<X<XZ L.{.$X3X:X9XFX7X5XVX4.4.;XN.j.-X",
"z.B j.m.b h  .A.d.J.L.L.s.u.$.Q t l.z.4.j.b.g.j.N.C : Z.A.a.|.x.x.L.d.A.C.g l.<Xb.b.-Xm.l.-XB.b <.$.p.L.|.x.Y.L.d.*.m h b.g.4.z.",
"z.B j.&XN k  .t.a.J.f.J.a.u. .-.t z.k.Z j.b.4.4.b.B : V.V.a.L.x.x.L.a.A.V.> C b.h.j.m.b.4.m.m.g -.$.u.S.J.s.J.a.r.$.k v m.j.Z b.",
";Xm.qXwXj.C VX+X2X3X3X3X6X$XVXa.M ;X;Xk.;X,Xb.b.1Xj.h {.{.*X8X9X9X4X*X@X{.V j.1XN.N.<X;Xb.,X;XM d.VX$X2X3X3X3X2X@XBX5.5.qX<X-X1X",
"n.5.n.&Xc 4 } 8.y.H.a.a.H.2.] Q : j.j.M 5.j.N N j.v * ] [ 8.i.i.i.a.t._ [ > b b.4.4.b.j.N j.j.> Q  .r.H.J.J.s.y.8.@.c u m.j.5.n.",
"M > l Z # # A 3 8 K L L ~ e A % @ h l : l M > : h &   D H 8 w 7 7 r 0 H S X & j * : M x > j f   = F - 8 r J r 5 , D - # C b y M ",
"{.{ A.`.I P pXX.&.zXzXNXNX=.aXR 9 !.).V.!.`.V.V.~./ S dXdX&.E.E.E.NXbXhXdX1 _ `.[ V.{.).Z.`.F.9 R pXX.&.*.*.lX$.o.pX] U #X`.A.{.",
"{.V.F.~.P I aX+.&.zXzXBXBX=.nX' 0 `.{.V.!.{.C.Z.`./ S dXgX=./.^.(.VXNXmXgX9 _ `.A.F.SX{.Z.`.~.9 ' aX&.&.&.lXlX*.dXaX] ] SX`.A.#X",
"2Xy.J.L.K ! gX#.F.!./.#X(.Q.cX_ e +X2Xy.L.*Xa.y.*X9.8 &.&.Q.).`.}.{.~.NXbX8 ,.*XY.L.2X2Xy.+XL.6 / gXt.U.~.!.Q.S.#.gX,.8.5X+XK.2X",
"7Xs.|.=X-.>.vXQ.].].}.DXCX{.ZXZ.-.2X7XJ.*X8X|.L.9Xi.w ^./.`.OXoXDXAX{.CXVXn a.9X*X.X0X4XJ.=X*Xi [ cXF.].[.}.}.).*.lX-.e.0X7X.X0X",
"9Xs.%X=Xi n bXQ.`.}.oX}.}.U.vXV.r =X%Xi.%X:Xc.x.:Xi.7 ^.^.`.OX6X6X6X}.VXVXc s.9X=X%X9X4Xf.=X=Xc V.vXP.]._.[.oX`.Q.zXn ;.9X=X|.9X",
"9Xi. X=Xc d vX{.#XDXOX'._.H.lX( 7  X%Xi.%X=X|.x.:Xi.7 E./.#XDX6X6XOX`.VXVXk i.9X=X*X0X4Xf.=X=Xc V.cXF._.'.'._.`.!.vX-.n >X Xx.0X",
"0Xs.XX3X>.n ZXVX{.DXOX_.).F.xX( w .XXXi.*X3XL.s.8Xa.q zXBX{.AXOXOXCX{.BXBXn a.3X2X*X0X4Xs.=X*Xi V.cXF.].[.].}.).^.vX>.-.3XXXs.7X",
"2Xy.L.&X<.e cX~.Q.{.~.F.C._ dXI 5 J.L.r.|.%Xp.u.*Xr.8 &.bX~.{.`.}.{.~.bXbX5 r.*XL.*X7X*Xr.$X+Xa ] gXA.^.).)./.Q.#.gX! Q *XL.r.*X",
"`.{ F.#X^ K nX=.lXVXMX*.&.| rXY 9 F.~.V.`.`.A.V.{.{ H dXgXbXVXVXVXBXNXcXhX1 V.`.V.!.SX`.V.`.`.0 ' aX=.zXNX^.MX*.+.pXI U @XU.V.`.",
"!./ !.}.] G aX=.zX/.*.*.*.#.rXR 9 !.~.V.`.}.Z.V.{.[ D dXdX&.MX^.E.zX&.dXdXS ( `.V.V.{.).V.`.!.9 R aX#.vXMXMXzX&.o.rXP I }.!.{ `.",
"h * h M & $ F 8 e w 5 q 0 3 F % o f g * b 4.h g V > X S H 0 r u 4 7 3 H S   : z : : h h : l h o % < 5 q r J J 5 , < + # x h : h ",
"j.M 4.j.y 5 ] r.S.a.w.w.9.<.} Q > j.j.B n.&Xj.5.m.3.4 { _ y.s.s.i.a.r.0.[ : 3.b.Z 4.l.5.N j.j.: Q ' <.9.w.a.e.9.^ } 4 u b.j.B j.",
";Xz.;X1Xj.<.VX+X'.=X=X=X*X$XVXa.M ;X,Xb.<XwX;X;XwXm.V `.`.*X8X>X>X3X*X`.{.x b.1XN.N.<X;Xb.,X;XM a.BX$X2X3X=XoX*X`.VXM Z 1X-Xb.;X",
"j.Z z.N.M d $.2.q.i.w.i.H.r.#.;.t b.b.4.z.m.h.j.;X5.> { V.a.L.f.x.J.y.V. .: 4.N.h.h.m.b.4.b.b.f ,.$.p.H.s.s.J.L.A. .g k m.j.4.z.",
"b.Z z.-XB n *.r.H.x.x.x.H.r.$.-.t b.m.4.b.m.h.4.N.B :  .V.a.L.x.x.J.y.C. .: 4.N.h.j.N.b.4.b.j.t ,.$.u.H.s.XX.XL.F. .g b N.j.4.b.",
",Xb.;XwX5.6.NXK.Y.%X=X%X'.L.BX1.z ;X;Xb.;X<Xm.b.1Xj.b {.`.+X3X:X:X3X*X`.{.h l.1XN.N.1XB.b.;XN.l d.VX+X2X:X0X0X4X#X/.M j.,X;Xb.;X",
"-Xj.B.1X3.3.^.K.L.XX|.XXI.f.^.<.g B.B.k.B.;Xb.z.;Xj.l ~.`.L.=X%X%X=XL.`.~.h j.;Xz.b.-Xb.j.B.l.g u.VXL.%X=X3X2X*XF. .h 4.;XN.j.B.",
"j.N j.B.v k %.8.y.i.i.s.H.2.@.d : j.j.M j.k.4.4.b.B : V.V.r.s.s.i.s.u.F.Q.g 5.;X5.4.z.g.N z.4.: -.} u.i.a.w.e.r._ ] > b z.4.N k.",
";Xj.B.;XB 3.VXU.*X=X=X=X.Xn./.9.l B.B.j.B.;Xb.b.,Xj.z `.`.+X=X=X%X4X5X#XSXC m.qX-X-XqX;Xk.;XM.l H.^.f.*X=X*X=X%XF.^.b 4.;Xb.b.;X",
"-Xj.m.-Xv m /.G..X.X|.XX.Xf./.<.v B.B.j.N.;Xb.z.;Xj.h ).`.L.XX%X=X7X2X#X{.M l.1Xm.m.>X-Xl.N.l.y S.^.K.*X=X=X.X|.A. .y 3.;Xb.l.-X",
"h : z z @ & A 9 w L p p q 5 S % @ l z : l x t f M : @ 9 0 q i w m ;.d J H @ t Z g g M l > h t   3 S 6 L r p J 6 9 < O * x t t z ",
"8.K q.q., H T ) 8.0.0.q.] ) Y H = r.r.Q r.a.,.,.K.Q % R ' / 0.0.F.~.D.@.X.3 8.+X9.8.K.y.,.u.,.% P T ) ] { 0.{ ^ / R = r a.>.~ y.",
"Q.] !.!.1 Y sX+.cXvXcXzXxX+.yXR S ^.^.} ^.VX$.$.VX} A aXpXgXcXvXNXZXmXnXnXS | SX*.$.VXVX$./.^.< T tX+.jXvXvXcXlXpXyXG E (. .[ ^.",
"d.,.K.K.3 H o.{ D.K.U.Y.`.A.fX^ 5 f.f.2.f.$Xp.u.$Xr.6 #.#.D.P.U.U.#X~.^.+.5 :.$Xf.f.$X$Xp.n.L.5 / +.t.Q.F.F.Q.A.| +.s ;.+Xr.,.J.",
"'.q.J..Xq K jXD.E._.CXCXCX(.jX( e Y.Y.q.Y.7XY.a.5XS.K lXzXQ.].'.}.CXCX(.gXr r.2XH.I.6X5XH..X.Xq } fXD.E.].]./.).&.fX0 7.*XJ.7.Y.",
"XXi.x.%Xp r kXC.R.I._.OXCX{.vX0.i XX.Xs.=X9X.Xs.3XJ.L MXE.P.[.oX_.}.{./.zXr i.3Xa.Y.0X6Xa.=X=Xp [ fXF.W.].[.[.I.E.%.w -.|.|.w.|.",
"XXa.x.%X;.w kXC.F.).).}.CX{.vX( w XXXXa.%X=XL.s.3Xx.w E.^.)._.oXoX}.).^.lXL i.3Xa.a.3X*Xs.=X=Xp  .fXF.W.).]./.!.$.xX-.W *XL.9.I.",
".Xe.J.oX7.J fX$.F.W.R.].CX{.mX] r =X=Xi..X=Xc.J.9Xi.w E.MX/.[.}.}.}.`.*.E.n I.oXa.J.3XoXH.3X=Xi @.uXF.W.W./.W.F. .xX[ 7.6X.X9.|.",
"L.9.i..X-.e O.{ A.R.F.).(.~.cX^ e I.L.9.I.2XH.y.4X0.q &.&.Q.`.I.`.(.=.&.%.r I.*Xu.d.*XY.u.+XI.5 _ O.t.F.F.F.F.Z.| fX~ Q =XL.<.L.",
"F.( { F.I P rXX.| %.@.*.zX=.hXP 3 K.d.,.L.$Xy.r.@Xt.3 +.+...Q.F.F.F.| iXX.3 V.U.0.q.Y.K._ K.d., R rX} %.*.$.*.#.o.rX9 / #XF.( F.",
"Q.] } Q.P G eXT X.fXxXvXcX&.sXY A (./.$.CXSXQ.*.VX$.A pXpXgXvXvXlXcXO.yXrX< ] ^.} $.VX/.} /.^.< Y eXX.O.%.*.kX@.rXrXA I /. .] Q.",
"N y g h # & D 0 d >.-.-.K Q G = & :.1.n u.6.m m 3.7 + P P ! >.d n ~ e P P O ; b 4 k 3.3.4 N 1.+ = A 5 8 6 q 0 5 1 A + & h t ; M ",
"l.3.6.j.4 7 } ^ 9.q.9.w.V.8.R 2 # z b k 3.5.m v N 4 # I I ~ 7.;.m -.L I I @ 4 N u k B 4.y M l @ L R Q >.1.<.7.;.! I - 4 g.N l l.",
"qX-X-X<X4.3.VX`.*X2X2X3X5X4XCXa.x -X-X&X<X1X-XB.1Xj.M `.`.*X3X:X:X3XL.`.`.l l.,Xz.m.,X;Xk.;XB.M d.zXL.Y.%X=X2X$XK.(.b 4.,XN.j.qX",
"m.g.g.b.l c $.A.d.x.J.|.Y.L.VXr.l N.N.n.>X<X-XN.;X5.g F.F.L.XX%X%XXXJ.F.F.h 5.B.g.b.;XB.j.-X-XN 0.@.r.q.i.a.a.9.8.@.7 y b.j.4.b.",
"k.B 4.b.l 7 *.y.a.L.Y.|.I.d.^.<.y b.n.5.z.m.4.Z b.N ; { A.d.|.x.x.s.u.0._ * 4.b.N 4.b.j.M j.l.: A.*.y.H.L.H.e.u._ } u u b.j.Z z.",
"B.z.b.;X4.v NX`.*X6X3X9X6X*XCXd.C <XqXb.B.;Xb.k.1Xl.C #XSX2X0X0X9X3X$X`.~.z b.;Xj.b.;XB.j.<X-Xh {.(.*X3X3X6X2X.XF.Q.b 4.;XN.j.B."
};
