/* XPM */
static char *e2174debc73a40708e4294460703fc42jQ6iFy8jPbo1Aqve[] = {
/* columns rows colors chars-per-pixel */
"64 64 255 2 ",
"   c #000000",
".  c #000018",
"X  c #000229",
"o  c #000138",
"O  c #041236",
"+  c #03243C",
"@  c #010546",
"#  c #001A46",
"$  c #070B50",
"%  c #021857",
"&  c #241E59",
"*  c #022947",
"=  c #06324C",
"-  c #042B57",
";  c #172956",
":  c #033353",
">  c #063857",
",  c #0D3D5B",
"<  c #173858",
"1  c #123D5A",
"2  c #0E1263",
"3  c #032E69",
"4  c #033A67",
"5  c #173A66",
"6  c #253D67",
"7  c #0B425B",
"8  c #17445C",
"9  c #1F515F",
"0  c #26485D",
"q  c #0A4866",
"w  c #124463",
"e  c #124A65",
"r  c #1C4865",
"t  c #154B6A",
"y  c #1B4D6B",
"u  c #195667",
"i  c #15526C",
"p  c #1B536C",
"a  c #1C4A73",
"s  c #065370",
"d  c #1C5572",
"f  c #175875",
"g  c #1C5B74",
"h  c #234566",
"j  c #224C6B",
"k  c #394F6B",
"l  c #24546A",
"z  c #254A77",
"x  c #235473",
"c  c #245C74",
"v  c #235C7C",
"b  c #2A5879",
"n  c #355B7B",
"m  c #156778",
"M  c #1B637A",
"N  c #23637D",
"B  c #286779",
"V  c #2C647C",
"C  c #34667C",
"Z  c #31737F",
"A  c #4B5E7C",
"S  c #0A5482",
"D  c #285A84",
"F  c #32598C",
"G  c #1B6A85",
"H  c #18788E",
"J  c #256483",
"K  c #2B6383",
"L  c #236C83",
"P  c #2C6C83",
"I  c #2C648A",
"U  c #266D88",
"Y  c #2C6C8C",
"T  c #336B84",
"R  c #33658C",
"E  c #336B8B",
"W  c #386888",
"Q  c #2B728B",
"!  c #29768A",
"~  c #34748C",
"^  c #3B748D",
"/  c #357889",
"(  c #2C6B95",
")  c #386B95",
"_  c #2C7593",
"`  c #2C7C93",
"'  c #337294",
"]  c #3A7394",
"[  c #347B94",
"{  c #3B7B94",
"}  c #3B749C",
"|  c #34799A",
" . c #3C7C9B",
".. c #186FA0",
"X. c #3C7BA2",
"o. c #3D79A8",
"O. c #457091",
"+. c #447896",
"@. c #427B9A",
"#. c #437CA3",
"$. c #457BA5",
"%. c #507CA1",
"&. c #2C8598",
"*. c #3A8597",
"=. c #3A8994",
"-. c #34849B",
";. c #3D849B",
":. c #348B9D",
">. c #069BAD",
",. c #3B8CA3",
"<. c #3988A5",
"1. c #388CAB",
"2. c #3A96A8",
"3. c #3D9CB3",
"4. c #3CA4B5",
"5. c #45869B",
"6. c #4C8D9D",
"7. c #4485A3",
"8. c #4A86A7",
"9. c #448BA3",
"0. c #4484AB",
"q. c #438BAC",
"w. c #4B8CAC",
"e. c #548BA9",
"r. c #4493A4",
"t. c #4B93AC",
"y. c #4799AA",
"u. c #5295A9",
"i. c #4888B5",
"p. c #4A8DB4",
"a. c #528CB8",
"s. c #4496B4",
"d. c #4D95B4",
"f. c #449CB4",
"g. c #4B9CB3",
"h. c #4C94BB",
"j. c #4C9BBC",
"k. c #5597B8",
"l. c #539CBC",
"z. c #619BAE",
"x. c #48A3AC",
"c. c #48A4B4",
"v. c #44A4BA",
"b. c #4DA4BB",
"n. c #44ABBC",
"m. c #4CABBC",
"M. c #52A3B4",
"N. c #51ABB4",
"B. c #53ABBC",
"V. c #58A8B9",
"C. c #59B5BD",
"Z. c #67A7B8",
"A. c #6BB5BD",
"S. c #4D9AC1",
"D. c #5393C1",
"F. c #539CC4",
"G. c #589DC8",
"H. c #4CA9C4",
"J. c #54A5C4",
"K. c #5BA4C3",
"L. c #5BABC4",
"P. c #5AA4CC",
"I. c #57A9C9",
"U. c #55ABCC",
"Y. c #4BB4C5",
"T. c #4CBBCB",
"R. c #54B3C4",
"E. c #5BB3C5",
"W. c #57B8C9",
"Q. c #5AA9D2",
"!. c #4CBCD2",
"~. c #5CB3D3",
"^. c #54BDD3",
"/. c #5BB8D7",
"(. c #64A9C8",
"). c #65B9C9",
"_. c #76B9C8",
"`. c #64ACD8",
"'. c #66B8D7",
"]. c #73B4D9",
"[. c #6FB7E5",
"{. c #67BBE3",
"}. c #57C2CA",
"|. c #5CC3CD",
" X c #50C6D3",
".X c #59C6D8",
"XX c #67C4CC",
"oX c #76C4CD",
"OX c #6BCBD4",
"+X c #67C7D9",
"@X c #75CAD7",
"#X c #69D1DA",
"$X c #78D5DB",
"%X c #5BCAE3",
"&X c #5CD3E3",
"*X c #5CD9E8",
"=X c #64C3E4",
"-X c #69C9E8",
";X c #74C7E8",
":X c #6CD4E4",
">X c #68D7E8",
",X c #63DDED",
"<X c #76D8E8",
"1X c #6CCDF3",
"2X c #76CDF3",
"3X c #6BD7F4",
"4X c #77D8F8",
"5X c #5CE1EE",
"6X c #6AE3ED",
"7X c #77E4EB",
"8X c #64E4F3",
"9X c #6AE8F7",
"0X c #77E7F7",
"qX c #7CE3FE",
"wX c #7BECFD",
"eX c #6CF3FD",
"rX c #6BF7FE",
"tX c #79F1F4",
"yX c #74F5FD",
"uX c #7CF3FD",
"iX c #73FBFF",
"pX c #7CFCFE",
"aX c #87CAD6",
"sX c #8BD0D5",
"dX c #85D5DA",
"fX c #ADD0DB",
"gX c #84DCE6",
"hX c #8AD9F2",
"jX c #84E6EB",
"kX c #96E7E9",
"lX c #88EAF4",
"zX c #81E4FD",
"xX c #83EDFD",
"cX c #95EBF6",
"vX c #89F2F5",
"bX c #83F2FC",
"nX c #8BF3FC",
"mX c #83FCFE",
"MX c #8CFEFF",
"NX c #94F4F9",
"BX c #93FEFE",
"VX c #9CFEFF",
"CX c #A9E8EB",
"ZX c #A3F7F8",
"AX c #A3FFFF",
"SX c #ABFEFE",
"DX c #B4F4F5",
"FX c #B3FFFF",
"GX c #BCFEFE",
"HX c #CFE9ED",
"JX c #C2FEFF",
"KX c #CBFFFF",
"LX c #D3FFFF",
"PX c #DBFFFF",
"IX c #E3FEFE",
/* pixels */
"` O : ` &.3.U.U.W.R.=.~ ] i.#.o.q.k.h.U N ,.,.Q &.4.:XW |.6X6 > 3.|.n }.>Xh = , e e w , g r.g.-.M ` c.c./ = = 1 v K 7 , r L ! ` ",
"n.2.* p ! ,.3.f.v.y.g.B ] i.0.i.0.| ( i M ! N L ` T.b.o XXmX0 * v.=.& .XtXX = > e e 7 , w M &.3.1.` 2.,.g W j , w + * = > f ! :.",
"&.3.` e Q 2.3.2.,.*.B 8 ] 0.i.#.o.} v d g i i L &.W.XX$ ).tXQ # c.E.& OXyX{ o > w w w , w c U ` :.1.` y.B h 1 : * * * , y e i U ",
"= i ! <.j.j.f.3.;.;.c B j ] #.X.$.#.I e 7 e g Q &.m.P h ,.pX).X ,.5.z ).MX2.  7 w w t t w 7 i U _ G 9.t.u V ] 8 : = w E j = 1 , ",
"p e N -.s.Q.U.s.q.T 8 c l b ] } } @.K y e i N | ` OX+.# | 3XV.@ B.6.@ b.mXN.o , w w w t 7 1 7 i g 8.g.V ^ V T +.r x R < X = 1 y ",
"E 7.| <.1.H.F. .r l P *.B 8 j z D D D v v N Y <.1.y.] o q.=X+XC ;.@.  h.-X:Xl : 7 , w j 8 = * j  .t.c B y.r.s x W R < . = t D 1 ",
"U +.' | <.-.T l B b.B.R.:X.Xm 5.{ n z @ 3 z R I l.V.} z { F.9.^ [ E h { j.~ 8 b O ; < o   4 c t.l.P m.:X0XuX$Xx./ ^ . + > t w X ",
"J N J U ' ;.l ;.2.m.^. X0XBXvX,.y.>XW.A.)./.L.).s.@X$Xt.w.M.E.b.B.r.Q T B ;.c.V V ^ *.x.oXsXcX@XI.#XMXBXBXVXGXFX#XU W * * 1 * = ",
"J v q N d.c T j.H.Y..XY.&XMXGXDXs ! 8XpXeXyX>XvXA.d.7XtX7X>X+X^.l.:X<X.X).).:X+.>XuXBXAXGXSX<X .#XBXVXAXVXVXGXAXyXx.b $.= O 8 r ",
"K b @.;.V B { q.h.j.*Xv.Y.yXFXPXCX  r T.eXeXyXuX_.3 <XmXpXuXuX.XD ^.BXBXwXlX7X4 E.BXAXZX<X1XH.).MXBXVXSXVXVX<X9XpX#XP E } ^ j n ",
"x j +.+.B c V | <.X.f.f.3.6XFXKXLXdXX 6 K.,XyXpXXXj ~ wXmXMXpXW.E ' 3XMXMXAX<Xd 1.;XjXf./.+Xt.2XqXBXVXSXVX+X!.3XwX>X*.P 6.{ l n ",
"x.r.B ~ ^ K E ' q.h.h.1.4.>XAXFXKXGX5.% %.w.|.pXuX^ * 1.wXMXyX2.W | 1.0XVXAX#XD j.| G j.-Xt.J.{./.4XwXMXuX,X3X9X9XR.[ 7.5.M.B.x.",
"KXJXkXC.L ^ T E 0.p.h.I [ !.tXAXSXJXjX% +.8.5 2.jXn q $ |.pX9X9.5 7.( @XAXVX6.b C < | /.'.9.Q.j.j.U.-XwX>XT..X%X^.B.{ 8.~.uXBXAX",
"PXPXKXJX$XH j b } #.0.R 5 [ .XpXBXSXSXV.z T V ] V.M.w o W.yX9X+XV.X.( $XAXVX.XL < h ~ ~.t.j.F.q.X.j.J./.L.y.v.v.J.g.7.+XbXBXMXBX",
"PXLXPXIXLX$Xr.V z ] R a > # Q 3XpXBXAXcXK 8.V.+X+X0X>XK v.uXMXmXmX7Xg.$XAXZXAXvXY.E n L. .P.h.<.| <. .' P | -.[ g.M.l.qXMXVXwX0X",
"LXKXPXPXIXLXC.C.V 5 b r * + . ~ 3XuXmXMXA.q.W..X3X3XqX3X.XmXBXBXwXuXwX).VXVXAXSXAXmX|.{ l.~.j.q.J d e c J g g q.:X9.9.3XmXVXNX/.",
"SXGXPXPXIXIXdXZ.kXH % h = * : o [ >X>X^.t.w.d.J.U..X=X=Xt.2.yXmX3X-X-Xq.5.jXBXnXlXOX0XV.} Q.F.| v V d x > ^ b.@X-XT M U.wXBXSXgX",
"AXAXGXPXPXIXDX% fXKX2.4 $ 1 , y a Q t.l.C.x R W x <.'.;X@.o 7.0XQ K.-Xl.o d 7XuX%XK.(.M.b < Y ( E g q x 7.'.nXlX(.@ c <.=XuXBXSX",
"VXVXMXAXGXLXGXr.} HXPXdX` ; 5 v I c t.V.7XdXb j y l.;X(.i = E 1X9.;X1Xd.1 t ~.bX3XL.;.:XjX6 > ] v v @.J.zXVXNX>X@Xo p v h.{.0XAX",
"U.1X0XuXMXSXJX).3 _.IXLXSX|./ x K 7.u.V.Y.6XXX- D Q.'.d.v o < E.].;X{.' < , J.wX:X9.xXVXnX<X} $.d.L.@XnXVXVX>X X5.: y d } h.o.I.",
"j.~.=X3XuXBXFXXXz ..sXLXGXAX7XQ 5.x.j a.U. X:XO.#.Q.d.j.@Xu.@ 5.;X`.J.).8.5 P 1X:Xq.@X@X3.<XV.@Xd.+XnXVXVX<X%X0XC : v v J 0.0.0.",
"/./.~.=XwXMXAXOXD 7.X.kXBX0XL.P r.7Xu.3 X.p.|.^ t.k.t.~.0XvXu.z K.t.~.wXvXg.z '.XX#.} s ).M.U.BXoX$.p.+X<X3X9XlX+.t Y I v ' h.P.",
"/.U./.1XwXMXBX-X+.' 4 [ MX7X+.V 2.^.lXC.+.@. .P d.g.~.4X9XyXvXC.l.~.qXuXpXmXV.K.M.} a.d.M.+XbXAXZX8.+.p.1./.uXnX5.Y 7.X.|  .<.F.",
"<.j.J.1XwXBXBX'.W 1 r . V.@XT [ f. X*X7XOX^.#Xy.g.9.-X4X9XrX6X<XV.1XqXuXmXwX<XL.t.B.:X3X7XMXBXFXFXaXR X.o.} d.<X(.p.G.d.0.' ' Y ",
"I K v d Y ).@XM.;.i T 5.l C N -.,.T.&X Xv.g.).r.N.5 } F./.T.W.L.x h.{.3XwXwX@Xj.'.a.;XMXMXMXBXFXGXZXe.e.(.+X~.:X(.$.D > - 1 r y ",
"q 3 - 5.T 1.Q K.M.M C.7X>XR.U | -.4.m.V.k.k.T B.7X@XW 0.j.m.R.B.V.} `.-X9X4X>X3XvXA.F ].4XzXVXFXJXFXVXVXVX7XOXxXqX).Z.n W o X o ",
"+.@X@X7XnXNXOXd.+.g 3.4.T.*Xn.J ;.f.L.L.g.P t./.*XpX7Xa.j.Y.'.J.<XO.P.=X,X0XMXAXVXVXZ.F G.`.2XSXJXSXAXAXAXSXAXxX+X1XSXGXNX_.aX+.",
"nXMXVXVXGXKXGXXXW x g -.3.4.Y.-.H.~.~.H. .r.+X/.^.8XpX7Xj.|.V.~.pXz.a.-XtXMXVXAXAXVXAXV.I F.Q.hXFXVXAXAXSXFXVXxX'.4XBXFXKXGXGXFX",
"v W O.A.nXVXVX).K V N d t i q ;.mXVXAXjX{ ) X.X.q.j.J.'.J.-X7.=XiX$XO.@.;.7.w.~.-X-X<X:X~.4X4XqX4X@X<X4XVXVXVXvXk.(.;X'.].F.a.a.",
"A.q n X F 1X-X7.8.> d w w t x b R.pXMXMXjXe a } p.G.G.e.8.g.F.=XrXMXz.:   @ # <././.'.J.4X4X4XqX4Xo.i.G.;XNXVXVXe.i.D.O.3 +. .@X",
"FXCXAXdXoXl.~ K.w.r x x y w x R D v.%X8XyX$X1 R w.e.+.b.m.2.f.{.yXSXFXVX@X+.D E ~.'.J.-X4X4X4X4XbX-XR ( 0.P.<XVXjXl.@XgX@XBXVXBX",
"GXGXGXJXFXZX$X9.5.^ T b b p r K K d L -.v.$XC.c ^ *.m.m.v.v.n.W.bXVXVXVXVXnX@Xw.(.(.~.2X2X;X1XzXxX7XZ.dX(.e.a.(.<X<XnXBXVXBXNXNX",
" .' ) b %.e.u.V.y.x.x.2.2.M.V Q [ n.Y.f.-.;.~ B.#XM.b % 1 r y h.L.Q.Q.P.h.~.@X:XNX(.D.2X4XqXBXGXKXSXjXBXBXnXnXnX<X@.6.K $ j x K ",
"e.O.(._.W.lXr.w.^ / n.T. X*Xc.P *.f.f.s.,.^ { H.pXMX7XA.V . O.G.v.K.K.L.).W.m.:XBXvX$.G.;X;XhXFXKXSXMXMXMXBXMXxX+X;XAXkXaXz.k n ",
"vXBXpXmXBXJXkXg.^ : g :.4.Y..X_ 1.H.H.H.;.~ g.Y.tXVXSXSXVXOX@.G.1.|.+XW.n.4.4.7XVXMXoX%.G.].'.cXFXMXMXBXVXAXBXwX'.1XMXFXFXSXFXVX",
"n.}.OXjXSXFXFXm.x 7 t i L ! ! [ <XlXlX#XV ] q.1.H.OX@XaXxXMXO.a.g.M.8.s._ g.J.-X7X7XOX).l.=X-X2XzX0XxXnXVXVXVXjXi.=XqXlXkXgXaX@X",
"A &   2 L.MX:Xt.8.: x w * # o w :XMXBXMX}.; R ) D S ( i.%XpX_.) E.g.D.>XR.) G.`./.Q.(.I.=X3X3XqXqX[.2X4XbXVXBXNXe.D.].G.o.S #.%.",
"AX<XoXXXb K.d.K.5.> 8 * * = j w s .X8XiX6Xx.z } ' T 7.P.-XeX7X5.E.7.G.-XiXM.) P./.'.g.I.2X-X1XqXmX2XP.{.;XhXnXBX@Xi.(.8.@XaX<XvX",
"SXAXAXVXVXlXr.I.j > > 8 r < 5 t y d [ b..X>X5.W @.C q.Q./.8XtXZ.E d.Q..XiXmXZ.) Q.(.L.;X;X{.1XqXbXlX8.e.k.F.P.K.$X#XbXmXtXmXyXpX",
"FXFXFXFXSXFXNXR.M.W.V.&.R.C.- w y t t 7 v 9.E.T ;.V h.P.j.Y.6XgXE J.`.I..XuXNXoXV.k.G.].[.;X;XwXxX;X_.nXbXMXNX<XF.;XqXuXMXMXBXMX",
"VXAXAXAXAXFXAX.X8.r.m.>.CXkXs * i q c V b K E { P R i.D.0.` -.).+.i.(.k.<.s.).XX).+.e.k.e.(.;XwX4X'.P.wXBXBXMXjXl.].;X1X4XxXbXmX",
"VXVXVXAXSXFXAX:X+.N &.oXKXJXN.r e 9.5.;.m.B.u.b XX6.D 0.<.! 5./ M.I i.h.<.t.J.+XC.B.|.OX$X+.(.3X-X(.{.2XnXMXMXBXO.p.].'.=X4XxXMX",
"VXAXAXAXSXFXSX@XI [ ,.nXNXAXgXN +.L.V q.,X>XB.j R.uXN.D E { *.:.BXdXb X.;.B.g.XX).R s.T.$X$Xn I.d.(.;X;X1XeXpXNXA S l.(.U.3XBXMX",
"VXAXSXAXAXSXFXXXa X.:XbX1XI.] B =.8 ^ q.Q n.m.y _ pXyX}.^ / m N.BXVXdX~ g.-.3.uXlX' P.3XW.gXy.oXA.#.D.].].3XeXbXC - E 7.U.qXnXMX",
"nXVXAXAXVXAXAXE.D L.MXzXk.C ;.b.Y.m.~ h q e.K.V s <XMXiXW.N ! OX$XAXSXOX<._ .XBXVX5.) `.'.j.b.#XjX@XZ.+.k.`.9X6XA.o y f P.1X1XxX",
"hXbXBXBXBXAXNX9.X.zX;X .y.W.^.T.T.yX7X/ d.u.c p 4 XXMXMX}.s y.vXc.BXFXsXH *.,XVXBXlX5.8.d.r.Y.&X5XtXvX$Xu.F `.tXaX  8 t h.{.[.hX",
"2X4XxXMXMXAXjXG ;X(.*..X%XT.n.n.3.:XVX#Xg _ -.J q <.bXVXOXG c.<X[ 7XAXaXH -.,XpX9X$XvX,.;.J.^.&X,XeXiXpX7XoXD .XXX; < W 0.`.;X4X",
"4X4XzXxXmXBX).h.l.b.3X>XR.x.2.:.^.>X.X:XN.E [ U E } X.lX@XQ ;.;.G.P.lX@XH j.U.=X%Xb.V.[ 8.P.F.^..X*XeXiXmXmX$XD $XO.* ] a.Q.;XF.",
"qX4XzXzXMX:X@.;.f.-X=Xv.y.:.&..XpXuX9X'.y.P b a I } X.( *.U c ] F.G.i.E.j.<.S.I.l.7.r.u.) G.G.F.^..X9X9XyXiXpXgX_.u.5 #.a.`.Q.( ",
"4XqXzXxXqXd.~ d.J.~.H.g.` H ,.mXMXMXbXV.{ }.C.6.z D K X -..X2.b #.i.D XXMXE.<.~ 5.r.B.jXC p.F.G.F.-XpXyX8X8XeXyXgXV.+.$.P.`.p.0.",
"4XzXzX4XJ.{ w. .p.q.q.Y g G M.BXVXVXlX5.9.#X6XtX@X0 + X *.^.,Xy.; | a |.MXMXu.;.c.2..XBXN.R D.D.D.0.>XpX&XT.&X8X>XdX*.@.G.`.P.G.",
"`.].K.9.T 7.9.f ' ' ' 7 8 > OXVXAXAXE.c I.3XuX6XbXC o X <.^. XP x ' - R.mXBXC.R f.b.6XBXvXW p.a.h.i.0./.W.2.n..X&X<X).r.) w.a.D.",
"'.E.g.V.t.7.l d v J K j * J 1XMXVXlXg t.=X+XW.T..XV   y ' Y..X&.n v g X.6XBXOX- X.<.&XBXSX).F D.D.D.i.F.J.,.v.^..X0XL.M.E.V.E.~.",
"6X0X:X5.7  .n e J Y J = = U =XMXBX;.V ~.j.d -.T.y.h r ' K <..Xc.K t X.i.<.mX#X: } #.h.:XAXSX:.$.D.D.D.P.P.H.T. X^.-Xg.p V.:XbXtX",
"9X&XY.r.=.x E t I y v 8 : J {.MXE.s q.~ * e q c.XX- J E K D f.m.K d 7.p.K E.#Xb #.p.a.i.'.AXkX6 i.a.h.F.G.G.f.4.b.E.T 9.L.,.f.T.",
"rX9X*X&X.XZ r r > = t 7 w | -X'.~ V <   - D a ] 6.E k.7.w.K 8.g.{  .E n h @.B.b b F #.) F i.cX7XR a.a.D.F.F.Q.f.g.t.;.5.L :.,.3.",
"9X,X9XrXtX}.,.V * * : > i 0.9.l y 7 r.E.OX@X@X@XC.u.d.R.XXN.' 7.{ P ~ x.r.r V / u.C.:XW.m.*.a E.B.] 0.p.h.j.P.J.9.5.5.s ,.f.` ` ",
"*X&XeXiXpXpXXX! 8 l C K T V p P E.vXMXVXAXVXBXMXtXx.r.-.$XlX:.*.;.9.m $XlX2.u y.E.#X7XpXpXtXtXR.B.r.r ] w.p.w.V r.r.7 L -.f.2.f ",
"n. X9XrXiXMXMX|./ l c 8 V T t.<XMXMXMXMXMXpXyXpX6Xm.+.S @XBXE.P c.^ s @XVX|.r :.v.Y.-X0XiXpXpXmX7X$Xu.~ T ~ B / V.B.L 7 ! ,.x.` ",
":.2. X8XiXmXpXeX#XB 9 P N l.-XqXwXuXmXyX8X*X*X8X*XjXk @ |.>X/ e .Xb % oXMX! h Q 2.3.Y.=X,XeXeXpXiX6X7Xr.q.P [ ;.L <.3.B 7 G ! 2.",
"&.2.3.Y.eXrXrXyX>X/ 9 V { J.=X=X1XqX>X.XT.T.T. X&X>X*.@ `  XB.q .X;.@ ).6Xx.o J -.1.f.H.Y..X8X9X9X9X.XR.8 V ;.i N g U ,.M e M &.",
"` <.` :. X8X8X,X,Xc.u 8 7.~./.~./.H.3.4.n.4.4.n. XyXoX  :.T.r i 5Xx.  c.T.V w g _ [ -.! &.4. X8X,X,X&X=.u W T f p e e g &.N w Y ",
"Q g m 2.2.Y..X8XeX.XZ B q.'.=X'.(.K.J.4.x.R.M.c.T.eXC.  :.3XT i ,X2.$ ,..X0 , d Q ! M N &.m.E..X&X8X9Xm.Z C C N N y 8 e L 4.! g ",
"i = e &.&.Y.yXeXiX7X*.P q.Q.{.1X'.z.h.-.=.B.B.y.Y.5XbXk :.W.b V 6X0Xh -.m.j e i N N g i L y.V..X,X8XeX*X6.+ 8 C L _ c 8 r ,.2.M "
};
