/* XPM */
static char *d4de14511bc041bacb353084278c25bd9WVE8PhDkvd0slOU[] = {
/* columns rows colors chars-per-pixel */
"64 64 255 2 ",
"   c #2E7576",
".  c #39827A",
"X  c #235A90",
"o  c #356987",
"O  c #387987",
"+  c #346D91",
"@  c #387895",
"#  c #375CA9",
"$  c #3A6FB1",
"%  c #477787",
"&  c #477C9A",
"*  c #4772AE",
"=  c #467AB8",
"-  c #5279C5",
";  c #378788",
":  c #3B8996",
">  c #359797",
",  c #3B87A8",
"<  c #3D94AE",
"1  c #478799",
"2  c #4A9191",
"3  c #479698",
"4  c #4AA49C",
"5  c #50A695",
"6  c #488BA8",
"7  c #5589A8",
"8  c #4A97A9",
"9  c #5498AA",
"0  c #498AB8",
"q  c #5288B8",
"w  c #4B93B3",
"e  c #4B9BB4",
"r  c #4794B8",
"t  c #4C9CBB",
"y  c #5698B5",
"u  c #539CBB",
"i  c #5B9DBB",
"p  c #6597B2",
"a  c #48A6AA",
"s  c #58A6A8",
"d  c #4EBAAC",
"f  c #57B4AB",
"g  c #4CA4B8",
"h  c #54A3BC",
"j  c #5BA4BD",
"k  c #56A8B8",
"l  c #5AB7B8",
"z  c #66BBAA",
"x  c #6AAAB2",
"c  c #64A6B8",
"v  c #65B7B9",
"b  c #5BC4B6",
"n  c #6AC6BA",
"m  c #70C9B6",
"M  c #3D96CF",
"N  c #4F8FCC",
"B  c #548CC7",
"V  c #4B9AC5",
"C  c #549CC3",
"Z  c #5797C8",
"A  c #599BD6",
"S  c #6A93CC",
"D  c #6698C9",
"F  c #659CD8",
"G  c #4CA6C4",
"H  c #54A5C3",
"J  c #5BA5C4",
"K  c #55ACC3",
"L  c #5CABC3",
"P  c #54A4CA",
"I  c #5BA5CB",
"U  c #55AACC",
"Y  c #5AACCD",
"T  c #5CB2C3",
"R  c #57B8C7",
"E  c #5BB2CC",
"W  c #5DBCCC",
"Q  c #4DA4D5",
"!  c #5CA4D4",
"~  c #56A8D7",
"^  c #5CACD3",
"/  c #5CAADA",
"(  c #5DB2D4",
")  c #5CB3DC",
"_  c #59B8D8",
"`  c #66A9C7",
"'  c #63ACCB",
"]  c #67B7C8",
"[  c #64B3CC",
"{  c #6ABBCD",
"}  c #74B7CA",
"|  c #63ACD3",
" . c #67A7D8",
".. c #64ACDC",
"X. c #74ABD9",
"o. c #63B4D5",
"O. c #6AB4D3",
"+. c #64BAD4",
"@. c #6BBCD4",
"#. c #64B5DD",
"$. c #6BB4DB",
"%. c #65BBDC",
"&. c #6BBCDC",
"*. c #72BCD4",
"=. c #72BBDA",
"-. c #76B9D8",
";. c #579AE8",
":. c #6A9DE3",
">. c #5BACE4",
",. c #5DBAE5",
"<. c #5DB3F2",
"1. c #64ABE3",
"2. c #68A8E4",
"3. c #75AAE7",
"4. c #64B4E3",
"5. c #6BB5E2",
"6. c #64BBE4",
"7. c #6BBCE3",
"8. c #63B3EA",
"9. c #6BB4EC",
"0. c #65BCEC",
"q. c #6CBCEB",
"w. c #73B4E4",
"e. c #72BCE3",
"r. c #72BBEB",
"t. c #78B8EA",
"y. c #67ADF3",
"u. c #6BBCF3",
"i. c #68B8F7",
"p. c #74BCF3",
"a. c #78B8F6",
"s. c #5CC7CB",
"d. c #5DC4D9",
"f. c #69C4C9",
"g. c #75C6C9",
"h. c #6AD6C6",
"j. c #78D5CA",
"k. c #65C4D4",
"l. c #6BC3D4",
"z. c #65CBD7",
"x. c #63C4DA",
"c. c #6CC3DC",
"v. c #6CCADC",
"b. c #73CBD4",
"n. c #77C7D9",
"m. c #73C4DD",
"M. c #6CD5DB",
"N. c #78D5DA",
"B. c #5EC4E4",
"V. c #5FC4F1",
"C. c #65C3E3",
"Z. c #6CC3E3",
"A. c #6BCBE3",
"S. c #65C3EC",
"D. c #6CC3EC",
"F. c #65CBE8",
"G. c #6CCAEB",
"H. c #73C4E4",
"J. c #7BC4E3",
"K. c #74CBE3",
"L. c #7CCCE4",
"P. c #74C4EB",
"I. c #7BC2EC",
"U. c #74CAEC",
"Y. c #7BCBEB",
"T. c #6DD3E3",
"R. c #6BD5E9",
"E. c #74D2E3",
"W. c #7BD3E4",
"Q. c #74DBE7",
"!. c #7DDCE4",
"~. c #75D3EC",
"^. c #7BD4EC",
"/. c #7DDBEE",
"(. c #6DC3F2",
"). c #69C6F6",
"_. c #6DCCF3",
"`. c #73C5F3",
"'. c #7BC4F4",
"]. c #74CCF3",
"[. c #7BCCF3",
"{. c #77C4FB",
"}. c #73CCFC",
"|. c #7BCCFB",
" X c #6CD5F9",
".X c #74D2F4",
"XX c #7BD3F3",
"oX c #73D9F3",
"OX c #7CDBF4",
"+X c #75D3FC",
"@X c #7CD4FC",
"#X c #74DBFB",
"$X c #7CDAFC",
"%X c #77E4E7",
"&X c #7DE2ED",
"*X c #6FE0FF",
"=X c #7AE6F8",
"-X c #7DE3FD",
";X c #85B2ED",
":X c #83BBF5",
">X c #84DACE",
",X c #85CADB",
"<X c #84DAD7",
"1X c #8DEDD3",
"2X c #86E4DA",
"3X c #83C8E8",
"4X c #88D8E7",
"5X c #83D3EB",
"6X c #83DBEB",
"7X c #95DBEC",
"8X c #84CCF4",
"9X c #84C8F9",
"0X c #93CCF6",
"qX c #83D4F4",
"wX c #8AD4F2",
"eX c #83DCF4",
"rX c #8CDCF5",
"tX c #83D4FD",
"yX c #8CD5FC",
"uX c #84DBFD",
"iX c #8ADCFD",
"pX c #94D7F7",
"aX c #92DBFD",
"sX c #86E7E9",
"dX c #8AE4EC",
"fX c #94E6EB",
"gX c #8CF1E8",
"hX c #84E3F4",
"jX c #8BE3F4",
"kX c #84EAF4",
"lX c #8BEBF5",
"zX c #84E3FC",
"xX c #8BE3FD",
"cX c #84EBFE",
"vX c #8CEBFD",
"bX c #96E9F5",
"nX c #93E4FD",
"mX c #93ECFE",
"MX c #9BECFD",
"NX c #89F3F8",
"BX c #8DF2FE",
"VX c #96F5F6",
"CX c #94F3FD",
"ZX c #9CF3FE",
"AX c #94FAFE",
"SX c #9CFCFE",
"DX c #A4E8FC",
"FX c #A5F9F2",
"GX c #A3F5FE",
"HX c #AAF5FC",
"JX c #A3FCFE",
"KX c #ACFEFF",
"LX c #B3FEFF",
"PX c #BBFFFF",
"IX c #C5FEFF",
/* pixels */
"!.sXK.tXs 6X) 0.).u 9 8 u C Z ...XR Z.p.iX#.u $.e.e.P.7.P.].tXxX%Xb.U.iXg.W.G.U.CXn.] { @.$.t.MXSX2X7XDXPXMX=.3XqX8XwXY.5XeXiXMX",
"R.xXP.0 ; rXH.: ,.^.W.w.0 r u l yX..a C oXD.w 1 k k.] O.'  .uXSXSX+X#.X.m [ o.h CXdX@.I.| | 4XgXaX3X] t.vXiX-.s v b.l.*.O...+XPX",
"].i.kX7 + 3XI.oXn.O.@.b.5X3X3 T t. .5X- 0 ! ! 4X4XdX4X4XqXxXmXAXMXyX=Xp y Z C kXW.I e ] xXeXg.jXt.C fX;X| 5.r.mXmXZXMXMXmXxXHXIX",
"|.@.5 %Xs 8X] 3 & 2 8 e ] mX4X' a.7XJXfX% | nXJXGXJXZXZXAXz j.mXiXO.2 M.s w.] s 7   O @ e eXN.J.9.*.zXjXp ` `.zXuXxXuXzXvXm >XJX",
"U.f f T.kXqXn s k f.f.] l %.tXuX4X&X=XCX6XK.!.~.^.hX/.~.k.f l kXH.a s W Q.[.n f j a a 8 > t Y.qXE.Q.kXvXkXK.&XzXzXvXzXhXhXj.b.lX",
"].6 s ` k ~.ZXHX0X6Xe. .i 4.zXBXbXkXZXMXE.A.OXuXOXOXXXXXq.| ! OXxX9 3 ` y c.^.|. .+.$. .y / $XCXzXE.|.tXeX/.xXvXxXzXhXXX[.aXnXmX",
"$X&.c c . XXuXpX;X-.O.D B q.*XcXnXwXbXH.< oX}.(.(.0.0.(..X5.e.@X$XN.` s   ( |.a.B i O.D B 7.#X-Xq.J.CXjXf.F.+XuXuXuXuXuXXXP.8X@X",
").+Xv.- + 9.p.P.} } ' C @.9 M  XeXm.OXi.Y 6.).0.&.l.M.M.M.C.I.P.S.+Xk.# o A A &.i k ] ` ' 3 Q +XG.G $XyXH.) <.p.OXhXlXlXBX@Xr.7.",
"U +X@.B 1 @.' l.~.g.L H.v . : x.xXeX@Xi.G.Z.D.D.(./ P ,._.C.0...U +XV = 2 J w e A.g.' o.4   3 z.}.%.+XuXzX%.%.6.].[.P.uXBXvXzX5.",
"O.T.9X3.c eXtX5.w.F.] @.L ' L ' 2.U A = r H I Y ( c.@.E ( 6.) V O.jX3.= 1 G.D.Z N G.f.{ [ { { $.A r A Z H h J ( %.~.&.c.Z.K.K.#.",
"^.vXpX;X} tX|.t.t.#.v.' Z.@X$XXX5.j 5.' j v { @.[.uX^.c.G.].U.[ T.KX4X= & [.r.! 2.$.k.@.K.$X$XXX7.[ $.u 9 v @.@.[.@XA.[ C.D.7.+.",
"c.tXn.;Xx yX9X'.@XK.b.Z.j @..XuXP.o.'.r.[ c.H.H.Y.Z.( 7.H.].@XZ.c.iXg.* 1 I...2.uX] a _ ' @.].OXY.+.p...L l.m.e.P.Y.K.Z.%.U.@XU.",
"6.2.m.D >XZX|.|.W [ U.XXG.h [ .X`.[ 9Xr.[ c.H.e.o.U U ) ) o.%.6.].9.c.1 s hX`.|.k.e G U %.] @.XX].@.'.1.L H.H.H.H.c.Z.].Z.&.U.`.",
"8.= OXl z vXuXtX! ' D.U.$XG.k %.0.&.P.2.[ &.c.o.I H H P U P U ) {.:.].g s lXuX$X..e V U ~ 6.] H.D.&.U.1.L H.Y.P.H.c.&.P.XXU.Z.D.",
">.r a OXi OXcX$X6.L I G.].@XD.l v.~.z.K b.!.o.P C t r r P ( P t {.| a ,.i .X*X-XD.t , U U ( %.g.c.C.z.c.b.hXU.7.5.&.O.&.K.XXP.#.",
"u.l.W P.H.+.G  X_...w Y G.a.3.l.b.R A. XoX&Xb.l.l.+.r C C P P 0 |.W K Z.^ V G  X+XI + r Q A B W ] a x.#XcXlX6X!.6X^.o.&.7.5.D...",
"xXiX8X'.!.E.x 2XSX3X6 9 [ w. .&.hXfXFXKXT.MXPXLXKXbX^.m.=.O.| `.uXiXaX9Xz.T.x j.lX-.1 9 T  .D &.Q.f.N.&XA.hXVXVXbX6XK.@.O.' Z |.",
"-X{.6X~.N.AXN.1XJX7Xs v f.l.Z.XXuXCXLX,X6 r.bXKXSXAXeX!.W.n.K.zXSXyXjX&.l =XM.j.NXN.3 f v ' G.uX0.&XvXn.y q.hXBXvXvX/.W.L.n.K.AX",
"i.;._.cXc.jXzXB.R. .@ 6 P _ U q.XX#XP.N 6 O.w./.o./ ^ ^ ! o.+X}.iXa.B.B.G (.F.T.=X$.@ 6 V _ ) D.) ,.P.3.` u ..kX&.7.#.#...#.uXuX",
"<.7.) #XJ 5.4 a #XI   : , G k >.'.) R z.2 l.G.A.&.c.c.&.c.m.A.;.a.(.7. X, A 4 <  X! : 8 e U R >.1.^ _ E.z k C.+.U U K Y Y k x.y.",
"`.=X~.XX%.R 5 z =Xv.: 8 a u R 6.].M.[ ..v.&.~.&XhXkXhX/./.U.v.4.u.=XeXzXc.R 5 f Q.v.8 a l J W 6.}.Q.@.1.E.$.x.M.E.E.E.A.A.x.W ) ",
"+XuXiXuXL.M.z..X.XY.] @.K.3.D c.eX|.a.9.[ 7.A U V. X_.S.0.6.~ Y zX.X@X}.#.W z.zXOX&., e G B * K C.|.:Xa.n.P.t.U.-XBXmXxXzXuX@XZ.",
"(.q.uXiXW OXoX_..X`.l.m.H.e. .C D.P.I.Z.f l.F.w V ,.)._._.D.,.U @X[.].(.g v.G.XXzX4.6 t t r B w ) / I.~.f v.~.O.H.-XBXCXCXCXuX6.",
"(.N (.$XE z.$X(.G.|.L.H.H.o.Y w ( #XI B _ G.}.F.u U F.#X@X(.0.^ ].1.(.S.H W +Xu..X7.e t t t U 6 G ).Z 0 E _.+X.X@.[.BXSXSXxX}.4.",
").Z G._.K W 0.6. X].H.U.&.U U u C / 2.Z w S.(.}._.t H F.#X_.0.) {.! F.F.h R 0.,.#X4.t P U H U u r ) 2.0 6 )._.+XoX@.U.zXcX+X(.4.",
"i.~ G.#XK z._.x.}.6.@.%.U U U Z A U 9.Z 9 _ +X+X+X_.e U  X-XuXq.8.>.F..XR z.}.C.+X) e U ^ ^ Y A A +.2.0 6 B.#X@X+XoX{ 7. X-X$X8.",
"(.A C..XY d.).%.)./ K H U U H ! >.H 2. .i h V.#X+X$X&XH ) #XxX'.8.A _ ].W z.}.C.}./ K U ( ( Y ! 9.| ..q 6 H ).+X+X+X~.h ( _.+X4.",
"u.Z 6.G.a ) 8.~ ).~ h P V Y o.#./ r 2. .c h Y _.-XmXCX&XE Z.@XP.8.Z 6.].k C.9.) }.) T ^ H o.o.o.4.C 2.Z w h ^ ).#XvXvX.XJ / 0.>.",
"8.B 0.4 ; ].,.V _.7.V %.U P %.6./ w :. .y t u U #XBXvXCXjXI ^ 0.4.Z P.f 2 +XS.Q _.7.U Z.( U ( #.2.u A B 6 u h I #XAXCXvX].r V ~ ",
"Q 1.b.o & xX@X].@X#.t %.Z.%.o.7.! 0  .S 6 8 u ' #.=XCXMXZXeXu ^ Q A N.7 p uX$XeX[.7.' Z.[.H.Y #.1.y $.= 1 8 h @.[.BXSXmXmXD., V ",
"0 xXmXe o MXmXtX+X^ 6 ( o.7.%.o.2.^ z.I 7 8 j ' ' c.uXnXnXaXP.r < `.T.*.x iXmXKXmX7.i m.XXuXP.^ 2.W.JXn.@ y O.L.3XwXzXmXmXxX4., ",
"l 1XgXvXl ~.uX|.u.! : 8 t U o.| I d A.{.I 6 j J J ' ' e.Y.[.'.Q k h.N.zX<X^.mXnXnX7.6 ` [ 7.e.I O.sXSXKX` 6 O.O.O.O.| 7.U.U.D.V ",
"s.h.c.tXv K.6.G.$X' k k { n.3XJ.hXN.5X{.|.H.` =.e.e.P.m.t.`.u.H.z.d c.].s _ ,.].@X6 : ] ,Xw.w.I.G.5X6XaXnXH.O.J.I.e.I.$.&.Z.[.uX",
"F.}.#.C 2 O.#.e .XE.{ L.t.3X{ s iXI.} Z 6.[.' p v b.b.<X,X .0.lXT.S.o.0 ; H U e _.+.s w.3.$.-.f.u...f.$.XX#.J x v b.l.@.' | ].cX",
"(.i.R.* @ Z C R.E C T b.zXZ.  k t.` &.= , ../ 6.Z.D.Z.U.[./.+XzXD.y.T.& o 0 0 XXW.O.j ] U.Z.3 f.F $ Z.` ` r V (.U.].P.P.`.@XeXvX",
"i.L.m %X; ! s : @ 9 } *.} OXW e 9.[ .X~.O Z 4.uXuXxXuXxXAX>XgXuX0.U 5 M.: A g.j.3Xx 3 e ] zXf.L A ]  XA.2 0 1.}.}.+X}.@XBXv g.uX",
"jXsX1XSX%X5.f 4 8 f.sX4XN.Z.].Z.+.d.R.oXQ.o.v.~.XX&XOXhXlXsXgXGX&.4 4 z.Q.yXgX2XfXj.b L l H.nX4XQ.sXmXZX4X~.lXMXMXDXMXmX!.l l ~.",
"(.1 1 6 9 Z.+.p.A K [ S 6 ! }.zXkXk.p.'./.v.~.$XXXOXOXXX4.I U XXS.+ O 6 ` 5Xc.`.Z l.O.Z c ..yXLXZXn.`.yXmXAXZXZXMXMXbXeX/ V V S.",
"}.U 1 3   xX[.2.= 8 i q S &. X-XmX5X6X6X] F.).(.{.`.}.$XOX^ | ].}.Y 7 ` s eXxX2.* y D 6 B qXSXKXnX7XZXGX6XAXKXKXKXKXKXKXxXP I 0.",
"S.uX,X# o 9X|.4.& 8 j ' { : M  XmXqXOXyXH.,.i.8.c.E.!.&XkXxXyXU.C.D.v.:.7 e.yX7X1 w i Z 5X,XXXAXeXc.KXDXiXeXxXMXKXKXLXLXLXeX/ I ",
"%.JX,X$ 1 rX5XY.G.v ] m.4   2 x.mXxX$XtXzX&.6.D.(.4.#.@XcXvXAXpXU _.&.3.v J.$.Y.rXg.` nX<Xv n.CXvXOXZXGXZXxXxXnXJXJXGXKXKXCX.X/ ",
"O.sXt.$ O N.L...A d.n k g L L [ w.o.F X.[ t t G U A.k.v.~.4X4X3XC x.9XS 9 ^.`./ X./.<XfX4XwX6X4Xw.( J.=.n.n.n.L.qXjXY.6X^.!.E.#.",
"E..X/ # o Q N $ N ^ k.w Y G.eXY.#.j  .X.j 9 h h %.oXQ.+.A.eXpXJ.W zX-.X   5.1.B A Y.dX*.U.uX8X7.5.L ( K ` k ] ' Z.].A.E %.6.6.+.",
"eXtXI # o ^ V A 7.W j.%., g F.XXr.E a.:X] L U I o.%.c.G.&.D.CXnXx.tX[ # O #.! A xXAXbXfXu P G.].r.E 0.%.*.[ o.| %.qXvXXXo.Z..XD.",
"iX'.n.X 2 c./ q.k t XXxXC.6 h G.`.o.a.:X] Y U I ( E ( G.U.P.zXzX'.9.&.o 3 6X4.uXlXrXaXnXjXc Y _.(.o.`.7.*.o.%.$.qXxXxXmXqX&.6.D.",
"yX3.ZXk ; .X].}.! u U.xXxXC.8 U 0.5.r.p.' Y Y ^ U Y Y %..X$XqXtXa.A OXv 3 eXnXPXbX5XqXqXxXbX] &.0.&.nXq.| &.H.rXnXnXnXmXmXU.Y 6.",
"yX&.f.mX9 .X*XzXD.J U OXiXiX6.s K.U.v.c.N.b.U P P H J o.H.@X@XP.i.| f.zX} vXJXLXGXL.o.XX[.xXjXj.W.kXSXnXN.gXxXMXnXmXaXiXiXzX7.^ ",
"MX!.E.mXn.G g  X.X! 6 +..X9X3.T g.l c. XlXN.f.f.b.m.| &.e.e.P...p.W.!.iX4X!.!.SXJX5Xw o.].|.qX7XdX6XgXJXSXJXHXHXHXHXyXqX8X[.`.| ",
"HXXXP.'.!.c.1 f./.` + @ e Z q Y %Xk +.A.A.W.&XhXhXeX5Xn.-.O. .yX@X].I.p.lXdXc l.&X' 1 1 g ! B 3XdXL l.v.E.6X6X^.U.&.@.' J u 0 {.",
"KXrXn.hXb.GXs.z %X{ . 3 8 e U U.nX=X+Xn.c I.XX$XzXvX6X5XW.L.7XLXAXp.m.~.jXSX6Xm sXb.2 s s k 5XLXuX&X$Xm.} 8X.X+X+XOXm.@.] L o.-X",
"MX9XCXAX[ bXOXR.=Xw.9 j #.C.P 8.nXCXU.3.` O.$.lXU.Y.Y.Y.'.5XLXHX$Xa..XcX!.jXBXdXAX3X6 y ~ K.MXDX].#XrX0X-.t.8XGXxXiXiXtX9X[.+X).",
"tX].U.BXJ I.j.2XKX7Xc { n.kX4X>.aXxXCXdXf { lXvXqX^.~.U.H.@.N.pXi.aXGXBX*.t.f R cX$.; 8 e E m.uXI.) x.7X>X6XlXjXXXeXeXuXyXrXvX;.",
"tXNXlXmX6XdX1XgXLXDXg.b.sX0XvXeXMXLXHXGX7XwXSXSXAXAXCXlXlXhXW.q.aXPXIXIX4Xk.z m NX4Xv n g.O.x.`.@X%Xn.r.fXwXhXNXVXSXVXCXAXmXCXeX",
"GXmXiXMX4Xk.s.XX~.7.[ l.Z. .y k.xXp.2.1.n.Y.w.Z.$XBXZXmXMXMXmXqX$XP.'.tX5XlXKXLXKXDXn.L.XX'.3X6XhXyXa.0XfXbXDXCXJXLXKXSXZXmXuXU.",
"uXiXMXGX] /.A.G._.4.{ c.&.| Z C xXY..._.n dX/.J #.#XCXJXKXKXMXY.tXq.D.tXb.kXSXKXLXDX5XY.Y.8XI.-.D.`.pXGX<X6XZXnXnXSXKXKXKXSX@X6.",
"+X1.mXCX{ E.$Xu.F.0.m.Z.&.Y Y y ^.AXO. .A.SXJXhX[ P.cXJXLXZXxXY.tXr.].$Xk.T.vXmXKXMX5XU.L.m.Z.' %.#X;X8XvX$XzXMXnXZXJXLXKXvX+XP.",
"|.! lXvX{ v.`.D.#X6.=.U.%.o.o.J e.uX0XF j SXKXLXlX( 7.-XCXxXuX'.$Xr.OX.Xf.z.|.].SXbXP.XXH.+.&.' I 6.'.3X3X$X$XxXCXjXnXAXCXzX+X`.",
"{.>.jXSXl.%XuX~.zXD.+.Z.&.7.%.w.:XxXaX .c VXLXIXPXbX[ 7.#XBXMX'.|.}.OX$Xk.T.uXoXxXU.&.Z.%.%.%...2.%.'.3Xt..XcXxXzXmX4XXXcXAXmX|.",
"(.A hXSXN.&XxXOXxX[.~.c.H.H.Y.aXpXwXpX3.` mXJXIXIXIXbXH o. XzX`.tXp..X@Xf.z.$X~.uX4.E Y %.%.&.5.q.o.a.:X-.+.#XcXxXxXVXY.XXcXCXtX",
"u.N qXSXN.bXnX].mXrXrXiXP.uXZXJXwXJ.pXt.} nXMXKXIXIXKXbXY ..).0.tXt.XX.Xl A.u.6.$X%.( ( U %.H.U.5.I a.9X-.O.7.$XBXZXCXmXwXqXzXtX",
"8.N eXj.s @XCXuXKXDX[.mXnXmXZXMX8X*.0X3.` wXrXiXBXSXJXKXjXC C ,.tXa.iXd s tX].~ $XL.o.U.7.%.U.U.r.J 9.w.` ' [ 5.-XCXvXvXvX8XU.$X",
"Q 2.!.& 7 [.$XZXGXpXH.uXiXuXiXnXt.' t.F i n.L.e.6.=XZXMXMX^.w U |.pX2X7 p ].$XxXxXP.| XXuXXXZ.P.5.I w.F i J ' =.P.=XvXxXuXeXJ.[.",
"N tXE.h 1 uXxXnXxXY.J Z.P.U.Y.[.a.&.T.L y *.O.' ' o._.@X@X@XD.t r.tX+.i 7 `.(.tXvXH.i H.U.tX[.7.a.&.Q.[ 7 ` @.=.$.H.+XuXuX+X].H.",
"T h.M.xXf.U.uXtX|.`.y j ' #.7.e.$.b T.}.' c ` ` ' ' J o.7.q.D.#.{ d k.(.l 6.u.0.|.P.9 j ' &.P.$.O.b Q.uX` y ' ` ' ' J | #.6.4.#."
};
