/* XPM */
static char *ec792ef5327e4327bc075955e1824f97P8ccBxmdW6m1X8Pj[] = {
/* columns rows colors chars-per-pixel */
"37 59 249 2 ",
"   c #000000",
".  c #080105",
"X  c #140000",
"o  c #1A0006",
"O  c #100E17",
"+  c #380003",
"@  c #2F0710",
"#  c #290016",
"$  c #000124",
"%  c #00002D",
"&  c #0E0928",
"*  c #150525",
"=  c #09172C",
"-  c #171A29",
";  c #000134",
":  c #000B34",
">  c #00023A",
",  c #000C39",
"<  c #100031",
"1  c #051836",
"2  c #021C3A",
"3  c #0C1C3C",
"4  c #171D38",
"5  c #350D2C",
"6  c #3E172D",
"7  c #271635",
"8  c #351835",
"9  c #0D2422",
"0  c #02263A",
"q  c #182138",
"w  c #1B233D",
"e  c #262729",
"r  c #2E2329",
"t  c #32242B",
"y  c #38282B",
"u  c #26283C",
"i  c #342736",
"p  c #2F363F",
"a  c #4E0C14",
"s  c #540017",
"d  c #650B16",
"f  c #68221B",
"g  c #471726",
"h  c #51132B",
"j  c #6D0D2B",
"k  c #641822",
"l  c #512B2D",
"z  c #492734",
"x  c #572839",
"c  c #563338",
"v  c #712F2A",
"b  c #6A2B39",
"n  c #772D37",
"m  c #65333E",
"M  c #76343B",
"N  c #7A3E3C",
"B  c #724539",
"V  c #000042",
"C  c #0A1A42",
"Z  c #1C1D44",
"A  c #331148",
"S  c #052C44",
"D  c #1C2545",
"F  c #262945",
"G  c #342F49",
"H  c #333345",
"J  c #332365",
"K  c #461C42",
"L  c #4F3943",
"P  c #683745",
"I  c #793645",
"U  c #7C3A46",
"Y  c #7E3B50",
"T  c #472E64",
"R  c #3C474A",
"E  c #484446",
"W  c #574546",
"Q  c #515356",
"!  c #78454B",
"~  c #6A5053",
"^  c #695A6A",
"/  c #785D75",
"(  c #746567",
")  c #736775",
"_  c #706C73",
"`  c #843112",
"'  c #8A3919",
"]  c #841C3A",
"[  c #87372D",
"{  c #8E2933",
"}  c #873B35",
"|  c #8C4128",
" . c #8A4133",
".. c #99483C",
"X. c #95563E",
"o. c #A4513F",
"O. c #AB543C",
"+. c #8D3042",
"@. c #893847",
"#. c #8C3E49",
"$. c #8B4A43",
"%. c #8A4349",
"&. c #974A4A",
"*. c #8D544F",
"=. c #975743",
"-. c #8A5A52",
";. c #995456",
":. c #A45547",
">. c #AC524C",
",. c #AC5C4A",
"<. c #A85959",
"1. c #96655B",
"2. c #94725C",
"3. c #AD6149",
"4. c #B4624C",
"5. c #B9654F",
"6. c #A8645A",
"7. c #B66757",
"8. c #A9745C",
"9. c #BA725B",
"0. c #B05966",
"q. c #8B6C6B",
"w. c #946965",
"e. c #9B716A",
"r. c #897275",
"t. c #9A7474",
"y. c #A86762",
"u. c #B66A63",
"i. c #A1716E",
"p. c #B87364",
"a. c #A17571",
"s. c #C75949",
"d. c #C26D48",
"f. c #CA6C5A",
"g. c #C4745B",
"h. c #CC755B",
"j. c #C87858",
"k. c #CE7B5B",
"l. c #D2765B",
"z. c #D17C5C",
"x. c #C67966",
"c. c #CB7368",
"v. c #D57C64",
"b. c #B1927C",
"n. c #CA8154",
"m. c #CF815D",
"M. c #D2815D",
"N. c #CE8668",
"B. c #D38363",
"V. c #DA8464",
"C. c #D2846B",
"Z. c #D8886A",
"A. c #CD9568",
"S. c #D7926D",
"D. c #CA897B",
"F. c #D88673",
"G. c #D48B78",
"H. c #DA9774",
"J. c #DD967D",
"K. c #E18D6B",
"L. c #E4977C",
"P. c #DDAE78",
"I. c #7C7889",
"U. c #89798D",
"Y. c #A07E92",
"T. c #8C8589",
"R. c #8A8797",
"E. c #978B97",
"W. c #999596",
"Q. c #9C9B9A",
"!. c #A69596",
"~. c #A6A49C",
"^. c #9C98A5",
"/. c #A78BAE",
"(. c #A69AA6",
"). c #B19DA7",
"_. c #A68DB1",
"`. c #AD98B3",
"'. c #B49CB8",
"]. c #A7A4A9",
"[. c #B5ADA9",
"{. c #B6B1AA",
"}. c #BAB4A8",
"|. c #ABA8B3",
" X c #B5ABBA",
".X c #BAB4B9",
"XX c #DE9783",
"oX c #C99497",
"OX c #E29686",
"+X c #D9AF8E",
"@X c #E9B486",
"#X c #F2B888",
"$X c #ECAD94",
"%X c #E7BA97",
"&X c #F9B89B",
"*X c #C2B2AD",
"=X c #C3AEB7",
"-X c #C6B5BA",
";X c #EDB7A5",
":X c #F7B8A4",
">X c #EABDB4",
",X c #BFC0AA",
"<X c #E6C79D",
"1X c #F6C699",
"2X c #C3C4AD",
"3X c #C9CAB6",
"4X c #D0CEBC",
"5X c #ECC3A7",
"6X c #FBC8A4",
"7X c #ECD9AE",
"8X c #EAE1B6",
"9X c #FBEDB1",
"0X c #B9B2CB",
"qX c #BCB8C8",
"wX c #C7B6C8",
"eX c #C9B8D0",
"rX c #C3BEE0",
"tX c #C9C4C7",
"yX c #D8CBCA",
"uX c #D7D3C9",
"iX c #CDC9D5",
"pX c #D5CAD7",
"aX c #D6C4DE",
"sX c #DCD7D9",
"dX c #EAD8CD",
"fX c #E7D9D8",
"gX c #F1D7DA",
"hX c #E5E3DA",
"jX c #F4E7D6",
"kX c #EFF1D8",
"lX c #FAF6DD",
"zX c #CAC6E1",
"xX c #D4CAE3",
"cX c #DCCDE2",
"vX c #DBD4E2",
"bX c #E2CFE3",
"nX c #E6D9E4",
"mX c #ECE6E7",
"MX c #F3ECEB",
"NX c #F8EBE9",
"BX c #F7F4E7",
"VX c #FBF3EC",
"CX c #FDFDEC",
"ZX c #EBE8F2",
"AX c #F6EDF5",
"SX c #FBF4F2",
"DX c #FEFDF4",
"FX c #F8F3F8",
"GX c #FEFEFB",
/* pixels */
"L hXCXCXCXCXCXCXCXCXCXCXCXCXCXDXDXDXDXDXDXDXDXDXDXDXDXDXDXDXDXDXGXGXGXMXW.",
"hXSXDXDXDXGXDXCXCXCXCXCXCXCXCXCXDXDXDXDXDXDXDXDXDXDXDXDXDXDXDXDXGXGXGXmXhX",
"lXDXGXGXGXGXGXGXDXDXDXDXDXDXDXDXDXDXDXDXDXDXDXDXDXDXDXDXDXGXGXGXGXGXGXDXSX",
"lXGXGXGXFXMXmXmXGXDXDXFXFXDXDXDXFXGXDXGXGXGXGXGXGXGXDXGXGXSXVXFXGXGXDXNXgX",
"VXbXpXFXZXnX=XY.bXvXcXcXcXcXcXcXcXbXcXaXaXaXaXxXaXaXaXaXaX).E.yXmXGXGXDXVX",
"nXeXwXGXAXwXE.^ '.'.'.'.`.`.`.`.`.'.`./._._._._././._./././ ~ W.tXZXmXMXfX",
"I.U.) 0X`.L @ y t y t t t t t r t r r r r r r r r t t t r y i X ( Q.E.iX].",
"A T T J A .   o . . X X X X X X X X X X X X X X X X X X X o #   E ) ^ ^.I.",
"^ Y.wXwX).y # x P U U U U U U I I I U U U U U U U U U U I b x # W r.^ J G ",
") ).sXfX-Xy + I @.#.#.#.#.#.#.#.#.#.@.} #.#.#.%.%.%.%.@.I b I   E.fXyXiX.X",
"W.yXMXGXfXW j 0.0.n b M M M M I I n <.0.M n M I I I I I I I %.+ [.GXVXGXnX",
"~.uXBXGXMX~ j u.0.h & 8 7 7 7 7 & 5 G.OXz * 6 5 5 5 8 $ ! 1.u.` [.GXMXvXiX",
"W.4XBXGXmXW d u.<.g : 4 3 3 3 4 : 5 +X$X7 ; w 3 3 3 F % ~ 9.c.' {.GXMXvXsX",
"}.kXBXGXMX-.n x.u.6 , Z C C 3 D > 5 %X;X7 ; u 3 4 3 F % 1.Z.f.` {.GXSXFXMX",
"3XCXCXGXBXw.[ C.x.g , Z C C C D > 6 %X;X8 ; q 3 3 1 u $ 2.S.f.` {.GXDXGXNX",
"3XCXCXGXBXw.[ C.x.6 , Z C C C D > 6 %X%Xi % u q q 3 F % 2.S.f.` {.GXSXDXMX",
"3XCXCXGXVXw.[ C.x.6 > Z 3 3 3 D > g %X;X8 % u 3 q 2 G % 2.K.f.' {.GXCXDXMX",
"3XCXCXGXVXw.[ C.x.z D G F F F G C z %X5XH 2 H F F F G > e.K.f.' {.GXCXDXMX",
"2XCXCXGXVXw.[ C.x.5 $ ; ; % ; > % # <X5X% . % % ; ; V $ 1.K.h.' {.GXDXGXMX",
"}.CXCXGXVXw.[ C.x.@ u H p p H H u l <X7XW p E E R R Q S 8.K.h.' {.GXDXGXNX",
"}.CXCXGXVXe.[ F.Z.+X8X8X8X8X8X8X7X7X9X9X8X8X8X8X8X8X8X8X7X@Xf.| {.GXDXGXVX",
",XCXCXGXVXe.[ F.L.1X6X6X6X6X6X6X1X1X1X1X&X&X&X&X&X&X&X&X#XH.f.| {.GXDXGXVX",
"2XCXCXGXVXi.} F.F.#.j @.@.@.+.+.] { Z.Z.] ] ] ] ] ] +.j >.v.v.' {.GXDXDXVX",
"2XCXCXGXVXe. .F.G.z $ 1 1 1 1 2 % x S.A.0 : 0 2 2 2 S $ -.Z.l.| {.GXDXGXSX",
"2XCXCXGXVXe. .F.G.c : u q q 4 u : m P.P.i , u w w q G % -.V.l.| {.GXDXGXSX",
"2XCXCXGXVXi. .F.G.c $ 7 = - - u ; P #X@Xi > w 3 3 2 F % -.V.h.| }.GXDXGXSX",
"2XCXSXGXVXi. .F.G.c $ - = = = F > P #X@Xi > w 2 3 2 F % -.V.h.| }.DXCXDXSX",
"3XDXVXGXVXa. .F.G.l $ 4 = = 3 F > m #X@X8 , w 3 3 2 F ; -.v.h.| }.CXCXDXSX",
"2XCXBXGXVXa.} F.G.z % 4 1 1 C D > m #X@X8 ; w 2 2 1 F ; -.V.h.| }.CXCXDXVX",
"~.hXCXGXVXa.} F.G.c 4 F F F F G , P #X@XG C G F F F G , -.v.f.| }.CXBXDXSX",
"{.BXDXGXVXt.v C.D.    0 0 2 > 2 $ h #X$X< $ : % % % 1   B l.h. .}.CXlXSXSX",
"].mXDXGXVXe.} OXXX!.t.s s x m P P $.L.OX! P P P P P ~ h !.jX6.[ *XCXBXCXSX",
"~.hXDXGXSXq.6.D.a.e.e.>X>X;X;X>X5X5X;X;X;X;X;X;X;X;X>Xq.r.[.l M *XCXlXCXVX",
"~.hXDXGXSXq.1.q.$ E Q W.5X$Xg.N.N.C.N.A.S.S.S.S.S.H.$X~     B v *XCXjXBXNX",
"Q.hXDXDXVXt.+   r.GXMX$ b.+Xd.j.k.k.k.k.k.k.m.m.n.M.J.W   r y . *XCXjXjXNX",
"Q.hXCXDXVXt.+   T.GXFX^   -.B.m.m.m.m.k.m.m.B.B.M.j.[ l O .     *XCXjXjXNX",
"Q.hXCXDXVXt.o . ^ ].Q.e c 8.M.m.m.m.m.k.k.m.m.B.k.H.>XoXP   O   *XCXjXjXjX",
"W.sXCXCXVXt.+ i         8.Z.k.M.M.M.M.M.m.m.M.B.k.H.5Xt.X O     *XCXjXdXdX",
"W.sXCXCXVXq.$.!   L ! u.k.k.z.z.z.z.z.z.k.k.M.M.M.k.s.{ } M r * *XCXjXdXdX",
"Q.sXSXCXVXq.X.6.g @ M ,.v.B.B.B.B.B.B.B.B.B.B.B.B.7.c.v.x.y.L A }.CXdXyXdX",
"Q.tXsXDXVXq.X.F.u.b v [ g.k.g.g.g.g.g.g.g.g.k.x.x.7.=...x.x.w.K {.CXjXyXtX",
"^.qXuXGXSXq.X.C.F.&.f g.,.} ....................o.,.[ s p.C.p.x |.VXVXhXyX",
"^.tXsXGXSXq.X.B.B.$.f g.k.g.h.j.j.j.j.j.j.j.j.j.k.B.=.d x.C.u.l ].mXSXNXfX",
"(.tXsXGXSXq.=.C.v.$.k 9.z.h.k.k.k.h.k.z.z.z.z.z.z.V.=.d 9.C.p.l ].ZXZXfXtX",
"T.]..XhXMXq.=.C.v.$.k g.z.h.k.k.k.k.k.l.z.z.z.z.z.V.:.s 9.C.p.a |.ZXsX-XQ.",
"_ E.|.iXsX( =.B.v.$.k g.z.k.k.k.k.k.k.k.z.z.z.z.z.V.:.s p.C.p.a |.ZXpXqX(.",
"_ ^. XpXfX( =.B.B.$.k g.z.h.z.k.k.k.k.z.z.z.z.z.z.V.:.s p.C.p.g ^.xXqX X(.",
"_ ^.|.iXsX^ =.C.B.$.k g.z.z.z.z.z.z.z.z.z.z.z.z.z.V.:.s p.N.p.g ^.xXqX X(.",
"_ R.].iXsX^ *.C.v.$.k g.z.h.z.z.z.z.z.z.z.z.z.z.M.V.:.s p.C.u.g R.zX0X X(.",
"_ R.].iXsX( B 9.V.$.k g.v.k.z.z.z.z.z.z.z.z.z.z.M.V.:.s x.C.y.g I.rX0X XE.",
"_ R.].tXpX( l 9.v.v v g.v.k.z.z.z.z.z.z.z.z.z.z.M.V.:.s p.C.y.g I.rX0X^.T.",
"Q T.].sXmX^ a 9.k.v M x.g.j.z.k.z.k.k.z.z.z.z.z.M.V.:.s <.x.y.+ ^.ZXmX.X(.",
"  - Q I.W.E c p.v.v d &.7.B.B.B.B.V.V.V.V.V.V.V.g.,.N + 6.p.<.l R _ ^ i   ",
"Q.Q.W.W.U.y z y.x.;.%.d } 3.,.,.,.,.,.3.3.3.3.4. .d v 6.p.u.;.@ Q Q.W.Q.^.",
"GXGXGXGXMXi + ;.<.x.D.} $.B N N N N N N N N N N ! M 7.&Xx.;.!   ].GXGXGXGX",
"vXFXFXFXvX9 h ;.#.,.XX:X&X&X&X&X&X&X&X&X:X&X:X:X:X&X&XG.&.<.!   T.mXmXMXFX",
"^ nXFXcXwX9 g %.%.&.p.XXJ.J.J.J.L.J.J.J.J.J.XXOXXXJ.L.7.n &.U   T.nXfXMXSX",
"0XAXGXnXeXe # ! &.} ..:.o.O.O.O.O.O.O.o.O.O.O.O.O.O.,.,.M n P   T.NXmXFXGX",
"aXeXeXeX XO 5 Y &.@.&.7.4.4.4.4.4.4.4.4.4.4.5.5.5.5.5.:.M I P   _ -XyXnXyX"
};
