/* XPM */
static char *_15501490b084508a0f26e40819a2102a37grGUaphOw2lns[] = {
/* columns rows colors chars-per-pixel */
"24 30 147 2 ",
"   c None",
".  c #363C1E",
"X  c #2B3620",
"o  c #2E3820",
"O  c #373A22",
"+  c #3F3028",
"@  c #442B1D",
"#  c #4C2D22",
"$  c #552F23",
"%  c #453021",
"&  c #463A22",
"*  c #5D3221",
"=  c #543A23",
"-  c #5C3E23",
";  c #513B28",
":  c #623C21",
">  c #2D412E",
",  c #2C4C2F",
"<  c #3C4322",
"1  c #33452E",
"2  c #3B452D",
"3  c #334C2E",
"4  c #3D4C2C",
"5  c #34512E",
"6  c #3B532C",
"7  c #3B592D",
"8  c #264232",
"9  c #2B4631",
"0  c #244A34",
"q  c #2C4B32",
"w  c #304D32",
"e  c #2F5031",
"r  c #315133",
"t  c #3A5532",
"y  c #325D34",
"u  c #3D6331",
"i  c #43442C",
"p  c #50422C",
"a  c #4A5727",
"s  c #4C5C27",
"d  c #42542B",
"f  c #495629",
"g  c #455B2B",
"h  c #495B28",
"j  c #535E25",
"k  c #614125",
"l  c #47652D",
"z  c #4D642B",
"x  c #476D2F",
"c  c #4C6A2C",
"v  c #556424",
"b  c #596523",
"n  c #566B27",
"m  c #5A6A24",
"M  c #506528",
"N  c #526C29",
"B  c #4D732F",
"V  c #53742C",
"C  c #597128",
"Z  c #547A2E",
"A  c #5D7B2C",
"S  c #436531",
"D  c #416D34",
"F  c #4A6E31",
"G  c #4A7531",
"H  c #477B34",
"J  c #4C7D33",
"K  c #527C31",
"L  c #627C27",
"P  c #5C842F",
"I  c #5F882F",
"U  c #4E8335",
"Y  c #518534",
"T  c #5E8432",
"R  c #558934",
"E  c #5D8D33",
"W  c #62832F",
"Q  c #658B2E",
"!  c #688D2C",
"~  c #66912F",
"^  c #6A952E",
"/  c #6F992E",
"(  c #749D2D",
")  c #789F2B",
"_  c #648730",
"`  c #608E31",
"'  c #649131",
"]  c #6B9431",
"[  c #6D9833",
"{  c #6F9A32",
"}  c #6E9B30",
"|  c #6E9C30",
" . c #649838",
".. c #709A30",
"X. c #729F30",
"o. c #73A02F",
"O. c #76A02D",
"+. c #79A12B",
"@. c #7AA12B",
"#. c #7BA32A",
"$. c #7CA22A",
"%. c #7CA429",
"&. c #7EA529",
"*. c #7FA529",
"=. c #7DA52A",
"-. c #7EA62A",
";. c #7EA62E",
":. c #7DA82E",
">. c #72A134",
",. c #7CA931",
"<. c #81A627",
"1. c #83A827",
"2. c #84A927",
"3. c #84AA27",
"4. c #85AB27",
"5. c #86AA26",
"6. c #86AB26",
"7. c #87AB26",
"8. c #86AB27",
"9. c #85AC27",
"0. c #86AC27",
"q. c #87AE27",
"w. c #88AC25",
"e. c #89AD25",
"r. c #89AE25",
"t. c #88AE27",
"y. c #89AF27",
"u. c #80A528",
"i. c #81A628",
"p. c #81A728",
"a. c #80A729",
"s. c #82A728",
"d. c #81A929",
"f. c #81A829",
"g. c #82A828",
"h. c #83A928",
"j. c #84AB28",
"k. c #85AC28",
"l. c #86AC28",
"z. c #85AE28",
"x. c #87AE28",
"c. c #87AF28",
"v. c #8BB024",
"b. c #89B028",
"n. c #89B129",
"m. c #89B228",
"M. c #8BB328",
/* pixels */
"                      W _                       ",
"                    ' l.9.'                     ",
"                  Q m.s.s.m.T                   ",
"                y ,.h.3.3.9.;.0                 ",
"                ' #.^ ' ^ #.) J q               ",
"            y [ e.( ` ^ ) / / h. .u             ",
"          y >.l.3.&.` &.v.^ ^ e.l.{ 1           ",
"          [ 9.1.3.) #.3.s.s.^ &.3.&.l           ",
"        S :.9.h.O.E &.3.&.3.' E l.o.V 2         ",
"        d P ] ` Z J ( 3.3.&.Z N Q K v j         ",
"      l Q V B x G G K | #.E M b M b N V j       ",
"    4 { m./ J ~ ] I M J U Z b v b V U U C f     ",
"    T h.e.( / 3.3.&.Z M v n K Z j N U U V j     ",
"  1 ..m.^ ~ 3.s.h.h.' J Z U U U V v K U Z b d   ",
"    A ! s Q j.s.h.h.` U Y U U U Z b v K n m d   ",
"    F N z ! l.s.3.$.U J Z U U U Z b v s a d     ",
"  S ( X.J A <.3.s.~ U Z b U U U Z b g s g 5 8   ",
"3 ' e.s.R g L [ E U Y M j C Y K m f 6 b b v t   ",
"u ' e.) Y G g c N V N d 3 f s a 6 , 6 v v b h 9 ",
"D R ` R U Y 5 3 d 4 1 , , 7 u u 6 3 , s b b s 9 ",
"g Y U U Y G u J J l 3 , 7 Y U U V a , 3 h v g 9 ",
"1 K R U K V Y Y U Y M 1 G Y U U Z j 3 9 , 5 5 9 ",
"  1 V V b K U U U U n d H Y U U Z j 5 9 w w q   ",
"    > 4 4 B Y U U J m a F Y U U V a e 9         ",
"          g Z Y Y C j , 5 K Y K b 6 q           ",
"          8 z N z g , 2 1 7 M v h r 9           ",
"            9 2 2 i ; - - 2 3 3 q 9             ",
"              # k = * : : $ ; p +               ",
"                < % # & = # @ . @               ",
"                    X o O                       "
};
