/* XPM */
static char *result[] = {
/* columns rows colors chars-per-pixel */
"32 32 101 2 ",
"   c #200013",
".  c #2A0316",
"X  c #38001E",
"o  c #320E1D",
"O  c #2E131E",
"+  c #3E1A15",
"@  c #31141F",
"#  c #3C131E",
"$  c #3F1C1F",
"%  c #3E231F",
"&  c #331A20",
"*  c #3F2120",
"=  c #421D1E",
"-  c #42251F",
";  c #482218",
":  c #44291F",
">  c #4E281A",
",  c #45311F",
"<  c #4F321F",
"1  c #5C3A1E",
"2  c #451C21",
"3  c #491B22",
"4  c #462621",
"5  c #4B2521",
"6  c #462920",
"7  c #4C2B21",
"8  c #552523",
"9  c #542D23",
"0  c #483720",
"q  c #553222",
"w  c #593422",
"e  c #573820",
"r  c #5D3B21",
"t  c #613E21",
"y  c #693F24",
"u  c #6C431E",
"i  c #71471E",
"p  c #7A4C1D",
"a  c #7F501E",
"s  c #4A4421",
"d  c #4C4B21",
"f  c #514424",
"g  c #594723",
"h  c #544C23",
"j  c #594A25",
"k  c #4E5222",
"l  c #505423",
"z  c #585526",
"x  c #535C23",
"c  c #5C4432",
"v  c #654121",
"b  c #6B4421",
"n  c #6F4822",
"m  c #62452E",
"M  c #69492D",
"N  c #714621",
"B  c #754A20",
"V  c #7A4D20",
"C  c #664C37",
"Z  c #6A4D33",
"A  c #674F38",
"S  c #6C543C",
"D  c #715132",
"F  c #566324",
"G  c #83531F",
"H  c #88561F",
"J  c #845420",
"K  c #895721",
"L  c #8C5920",
"P  c #8D5C2C",
"I  c #976B3E",
"U  c #A76C2C",
"Y  c #AB6F2E",
"T  c #AC712F",
"R  c #A86F32",
"E  c #AA7133",
"W  c #AE793F",
"Q  c #B17533",
"!  c #B27B3F",
"~  c #846544",
"^  c #8A6641",
"/  c #8B6A47",
"(  c #8C6D4A",
")  c #94734A",
"_  c #9A764B",
"`  c #9D794E",
"'  c #B27D42",
"]  c #A17F54",
"[  c #B58045",
"{  c #B98346",
"}  c #A28054",
"|  c #AB8555",
" . c #B28652",
".. c #B68954",
"X. c #B98B54",
"o. c #B68F5C",
"O. c #BA8E59",
"+. c #B6905F",
"@. c #BB915C",
"#. c #BA9361",
"$. c None",
/* pixels */
"$.$.& O o $.$.$.$.$.$.$.$.$.$.$.$.$.$.$.$.o @ & . $.$.$.$.$.$.$.",
"$.^ P K I S $.$.$.$.$.$.$.$.$.$.$.$.$.$.S ^ K P ^ $.$.$.$.$.$.$.",
"c ..Q E { / $.$.$.$.$.$.$.$.$.$.$.$.$.$.^ { T Q X.C $.$.$.$.$.$.",
"~ ' U E Y  .$.$.$.$.$.$.$.$.$.$.$.$.$.$. .E R R ! / $.$.$.$.$.$.",
"~ ' U E Y  .$.$.$.$.$.$.$.$.$.$.$.$.$.$. .E R U ! / $.$.$.$.$.$.",
"~ ' U E Y ..$.$.$.$.$.$.$.$.$.$.$.$.$.$. .E R U ! / $.$.$.$.$.$.",
"~ ' U R E ..$.$.$.$.$.$.$.$.$.$.$.$.$.$. .E E U ' ( $.$.$.$.$.$.",
"~ o.U U W #.$.$.$.$.$.$.$.$.$.$.$.$.$.$.o.' U U O.( $.$.$.$.$.$.",
"m o.....@.` . $.$.$.$.$.$.$.$.$.$.$.$.  ) @.....o.Z $.& & o $.$.",
"+ _ | } | D ; y t t y t t t t t t t y > M | } | ` ; t t t t t t ",
"4 b u 1 p 8 b L H K K K K K L L L K L N 6 p 1 u i 4 G L K K K K ",
"4 u G r p 7 N H v y p L K L L L L J n r 6 a i b N 4 H B b y K L ",
"4 b K t p q t B r r v p V B B B B N t < 7 J B b N 4 B v w r i B ",
"4 b H t V q 0 r t r r r r r w r r r u w 7 J B n N 4 r r t t r r ",
"4 b J t V q q v r t r 9 9 q 9 q r r r e 7 J B b N 4 < v t t w 9 ",
"4 b K t V q 6 r t w q 9 8 9 9 r v v r 7 7 G B n N 6 6 t r q 9 9 ",
"4 b K v N w - q t q w w w w r t r r q 7 9 J B b b 4 : r r q w w ",
"4 b J r v w - q v t t t 1 t r t v q 9 7 0 a B r t 7 % r t t t t ",
"6 r V b B w - 9 r v r 9 q q w v w 9 9 6 7 n N b n 4 4 q v t q q ",
"7 r B v a q : 7 w r t w w r w w 9 q 8 : q b p N N 4 : 7 w t r w ",
"7 r B y p 9 - 6 9 w t t t t r 9 9 9 6 : q b N b n 4 : : 9 r r v ",
"7 t g r g w - 6 7 9 9 r y q 9 9 9 6 : - q t t g t 7 : : 9 9 q v ",
"6 r i y r w - : 6 9 9 w w 9 9 9 7 : 4 - q v n r t 7 : : 6 9 9 w ",
"7 r p y v w - - - 6 9 9 9 9 q 6 : , 0 = q b p r t 7 - : : 7 9 9 ",
"7 r V v t w 4 : : : - 8 q 9 9 : 4 s d = 9 b B r t 7 - : : : 0 9 ",
"7 q V v r 9 6 d - - : : 6 : 6 : = x s 2 9 b B r w 5 : 6 : 4 h 4 ",
"8 9 B v w 9 0 l 4 4 4 4 6 4 4 4 2 F d 2 7 t B g r 7 4 4 6 4 l 6 ",
"6 q N t 9 7 6 k $ % 2 4 - - % % & F e & 5 t N j j 3 * - - $ l % ",
"$.g h 8 w 4 $.F $.$.$.$.$.$.$.$.$.F $.$.4 w 8 g j $.$.$.$.$.F $.",
"$.s h 3 9 4 $.$.$.$.$.$.$.$.$.$.$.$.$.$.$.5 f z s $.$.$.$.$.$.$.",
"$.d d X * $.$.$.$.$.$.$.$.$.$.$.$.$.$.$.$.# d k s $.$.$.$.$.$.$.",
"$.$.$.$.$.$.$.$.$.$.$.$.$.$.$.$.$.$.$.$.$.$.$.$.$.$.$.$.$.$.$.$."
};
