/* XPM */
static char *result[] = {
/* columns rows colors chars-per-pixel */
"32 32 116 2 ",
"   c #010004",
".  c #2F0416",
"X  c #2E0519",
"o  c #360415",
"O  c #380C15",
"+  c #320A19",
"@  c #32151E",
"#  c #3B1B1E",
"$  c #3F221F",
"%  c #3C1520",
"&  c #3E1D20",
"*  c #44171F",
"=  c #461918",
"-  c #42251F",
";  c #49241E",
":  c #43291F",
">  c #4B2D1F",
",  c #50271B",
"<  c #542E1E",
"1  c #56351C",
"2  c #5A351F",
"3  c #5D391D",
"4  c #623C1E",
"5  c #451E20",
"6  c #452421",
"7  c #492621",
"8  c #462920",
"9  c #4D2C22",
"0  c #562624",
"q  c #532D23",
"w  c #5A2F23",
"e  c #433521",
"r  c #4C3020",
"t  c #4D3C23",
"y  c #483028",
"u  c #553222",
"i  c #593323",
"p  c #573E24",
"a  c #5D3B21",
"s  c #613E21",
"d  c #66401C",
"f  c #69401C",
"g  c #74471B",
"h  c #75491B",
"j  c #7E4E1B",
"k  c #494520",
"l  c #4D4A22",
"z  c #5E4422",
"x  c #525423",
"c  c #595423",
"v  c #555C24",
"b  c #644122",
"n  c #6B4323",
"m  c #6E4820",
"M  c #60402C",
"N  c #68482F",
"B  c #734622",
"V  c #754A20",
"C  c #7A4E20",
"Z  c #704D2B",
"A  c #7E5020",
"S  c #76512C",
"D  c #6C4D32",
"F  c #6F5031",
"G  c #67503A",
"H  c #6B533C",
"J  c #715132",
"K  c #7A5631",
"L  c #795837",
"P  c #72553B",
"I  c #765A3E",
"U  c #785A3E",
"Y  c #566524",
"T  c #5B6926",
"R  c #7F6041",
"E  c #85521A",
"W  c #8A561A",
"Q  c #A4661D",
"!  c #835320",
"~  c #895720",
"^  c #8C5920",
"/  c #835A2E",
"(  c #885D2F",
")  c #905B20",
"_  c #815A31",
"`  c #885E31",
"'  c #805F3B",
"]  c #8F6131",
"[  c #A66927",
"{  c #A76C2A",
"}  c #A86C2B",
"|  c #AB7233",
" . c #AC783F",
".. c #B27A3D",
"X. c #856544",
"o. c #8F6E4A",
"O. c #906F4B",
"+. c #96744C",
"@. c #9C794E",
"#. c #AE7B42",
"$. c #B47D42",
"%. c #A67F52",
"&. c #B5854D",
"*. c #A78052",
"=. c #AC8353",
"-. c #AD8A5B",
";. c #B28652",
":. c #B58853",
">. c #B38D5C",
",. c #BD8F58",
"<. c #B5905F",
"1. c #BD935E",
"2. c #B79260",
"3. c #BB9461",
"4. c #C0945D",
"5. c None",
/* pixels */
"5.5.5.5.5.5.5.5.5.G I J n n n n s n s n b n N U P y 5.5.5.5.5.5.",
"5.5.5.5.5.5.D X.*.;.&.$.| | | | ..| | ..| | ..&.;.=.o.P 8 5.5.5.",
"5.5.5.5.  + X.-.4.#.Q [ | | | | | | | | | | { Q | ,.2.+.y   5.5.",
"5.5.5.5.5.X R -.3.:.#.| } { { { [ } } } { { |  .&.1.>.O.8   5.5.",
"5.5.5.5.5.# s U +.-.3.1.:.=.;.;.;.;.:.:.;.;.>.3.>.@.U N 6 X 5.5.",
"5.5.5.5.5.8 7 = , a N / ] ` K J J D N F K ] / S M 1 = ; 8 8 5.5.",
"5.5.5.5.5.8 q q i i 3 h E W W j 4 1 1 3 h E A d 2 i u q 8 $ 5.5.",
"5.5.5.5.5.8 9 q u a b C ~ ~ ~ A B a i d C W ! m a i q u : 6 5.5.",
"5.5.5.5.5.: 9 q i i b C W ) ) E V a a b V A V f a u q q : - 5.5.",
"5.5.5.5.5.- 9 q u a s m V B n a 1 r 9 q b V V b a i q 9 8 - 5.5.",
"5.5.5.5.5.8 9 q i s a r $ 2 V V a u 9 7 q 1 a a a i q q 8 - 5.5.",
"5.5.5.5.5.8 9 q i a a 9 - s ~ ~ C n s q 6 # 8 a s i q q 8 : 5.5.",
"5.5.5.5.5.8 9 q i a s 9 & s A ^ W ~ n w 6 & r a a i q 9 : : 5.5.",
"5.5.5.5.- 6 u q w i q 6 * a A ! ^ ! n q 6 & 8 9 i w w w 9 $ 5.5.",
"5.5.5.5.5.5.6 7 i i i 9 : 9 p g ~ W B w 6 - 9 q i i 9 6 - 5.5.5.",
"5.5.5.5.5.5.5.5.5.O o X @ $ ; u i i q 6 & % + o o 5.5.5.5.5.5.5.",
"5.5.5.5.5.5.5.5.5.G I J n n b n s n n n s n D U P 5.5.5.5.5.5.5.",
"5.5.5.5.5.5.G X.%.;.&.$.| | | | | | | ..| | ..&.;.=.o.P 8 5.5.5.",
"5.5.5.5.  + X.-.4.#.[ [ | | | | | | | | | | { Q | ,.2.+.9   5.5.",
"5.5.5.5.5.. X.-.3.:.#.| } { } } { } { { { { |  .&.1.<.O.8   5.5.",
"5.5.5.5.5.# z L +.-.3.>.:.;.=.;.;.;.:.;.;.;.>.2.>.@.' N 6 X 5.5.",
"5.5.5.5.5.: 7 = , s Z / ] ` K J D D D F K ] ` S b q = 6 8 8 5.5.",
"5.5.5.5.k 8 9 q i 1 4 g E W E j 4 2 1 3 h E C d i i u q 8 - 5.5.",
"Y Y T T x 8 5 q i i b C ~ ^ ~ ! B a a 4 j ~ E m a i q 9 8 8 5.5.",
"Y Y 5.5.5.: 9 q i i b j ~ ^ ~ A m a a s m A h b a i q 9 ; : 5.5.",
"5.5.5.5.5.8 9 q i i s n V A ~ ! n a 3 s n V V b a i q q 8 $ 5.5.",
"5.5.5.5.5.: 9 q i a s a a m A A b z a s V ~ ! n p u q 9 8 : 5.5.",
"5.5.5.5.5.6 9 q i p b a a n m m b a a s s z a s a i q q 8 : 5.5.",
"5.5.5.5.5.: 9 9 u a s a s V ~ ! f a a a s s s z a u q 9 : : 5.5.",
"5.5.5.5.6 : u q w q u u a V ~ ! V z a b z b a i w w w w 9 $ 5.5.",
"5.5.5.5.5.5.6 7 w w w q q s B B s u w a c Y v p 0 q 9 6 - 5.5.5.",
"5.5.5.5.5.5.5.5.5.6 7 7 6 5 % e x x t ; l Y v t 5 % 5.5.5.5.5.5."
};
