/* XPM */
static char *_1ab028aa9394551ecde6f6e30d4584eW8lDCkKza7D8UTHU[] = {
/* columns rows colors chars-per-pixel */
"32 32 120 2 ",
"   c None",
".  c #200013",
"X  c #2A0216",
"o  c #2D0518",
"O  c #37001D",
"+  c #320E1D",
"@  c #2F151E",
"#  c #3E1A15",
"$  c #31141F",
"%  c #3D151F",
"&  c #3F211F",
"*  c #431D1F",
"=  c #43251F",
"-  c #4C2519",
";  c #44291F",
":  c #46321F",
">  c #5C3A1E",
",  c #461E21",
"<  c #491C21",
"1  c #462621",
"2  c #4C2622",
"3  c #472920",
"4  c #4B2A21",
"5  c #552623",
"6  c #542D23",
"7  c #453320",
"8  c #483321",
"9  c #473F21",
"0  c #553222",
"q  c #593422",
"w  c #5D3B21",
"e  c #613D21",
"r  c #6D441E",
"t  c #70461C",
"y  c #7A4C1D",
"u  c #4C4422",
"i  c #4B4C21",
"p  c #534624",
"a  c #584625",
"s  c #574B23",
"d  c #594924",
"f  c #4F5422",
"g  c #515323",
"h  c #595726",
"j  c #545F23",
"k  c #5C4432",
"l  c #644121",
"z  c #6D4521",
"x  c #62452E",
"c  c #69492D",
"v  c #704721",
"b  c #744A20",
"n  c #7A4E20",
"m  c #664C37",
"M  c #6A4D33",
"N  c #674F38",
"B  c #6C543C",
"V  c #715132",
"C  c #566424",
"Z  c #586625",
"A  c #81511E",
"S  c #855420",
"D  c #895721",
"F  c #8C5920",
"G  c #8D5C2C",
"H  c #976B3E",
"J  c #A76C2C",
"K  c #AB6F2E",
"L  c #AC712F",
"P  c #A86F32",
"I  c #AA7133",
"U  c #AE793F",
"Y  c #B17533",
"T  c #B27B3F",
"R  c #836444",
"E  c #846544",
"W  c #846645",
"Q  c #876644",
"!  c #856542",
"~  c #8A6641",
"^  c #8A6946",
"/  c #8B6A47",
"(  c #8A6B48",
")  c #8D6F4B",
"_  c #94734A",
"`  c #9A764B",
"'  c #9B784E",
"]  c #9F7A4D",
"[  c #B27C41",
"{  c #B07D43",
"}  c #B27D42",
"|  c #B37E44",
" . c #A17F54",
".. c #B78043",
"X. c #B38046",
"o. c #B98346",
"O. c #A28054",
"+. c #A78456",
"@. c #AF8351",
"#. c #A98556",
"$. c #AC8756",
"%. c #B38551",
"&. c #B08552",
"*. c #B18553",
"=. c #B38652",
"-. c #B48752",
";. c #B08654",
":. c #B58853",
">. c #B68852",
",. c #B48854",
"<. c #B68A54",
"1. c #B78A55",
"2. c #B98951",
"3. c #B98C56",
"4. c #B58E5B",
"5. c #B78F5C",
"6. c #BA8E59",
"7. c #B6905F",
"8. c #BB915C",
"9. c #BA9361",
/* pixels */
"              o $ $ +                                 + @ $ o   ",
"              ~ G D H N                             B H D G !   ",
"            m 2.Y L o.Q                             ^ ..L Y :.k ",
"            ^ T J I I &.                            &.L I J { R ",
"            ^ T J I I &.                            -.L I J { Q ",
"            ^ T J I I @.                            &.K I J { R ",
"            ( | J P I ;.                            <.I I J X.R ",
"            ) 3.J J { 7.                            9.U J J 6.Q ",
"            M 5.<.:.8._ .                         X ' 8.:.<.4.x ",
"e e e e e e - ] +.O.$.c - e e e e e e e e e e e l - V $. .#.` # ",
"D D D D D S 1 r r > y 3 v F D D D D D D D D D D F z 4 y > t r 1 ",
"F F F F b l 3 z A > y 3 b D l z n F D F F F F S z w 4 A r r z 1 ",
"n n n n e w 3 z D e n 4 e b w w z n n n n n n z w 0 6 D b z z 1 ",
"w w w w e w 3 z D e n 6 0 e e e w w w w w w w w l 0 6 D b z z 1 ",
"0 6 w e e w 3 z D e n 6 0 l w l w 6 6 6 6 0 w w l 0 6 D b z z 1 ",
"6 q w e e 0 3 z D l n 6 3 w w q 0 6 6 6 6 w w e w 4 6 D b b z 1 ",
"  w e w q 6 3 z D e b 0 = q e 0 q q q q q l e w q 4 0 D b z z 3 ",
"            3 z D w e 0 = q e e e e e e e e e 6 6 4 0 S b w w 3 ",
"            3 e n l b 0 ; 6 w l w 6 0 6 q e 0 6 6 ; 0 b b z z 1 ",
"        6 ; 4 w n l n 0 = 4 q w w q q q q q 6 6 4 = 0 z b b v 1 ",
"    6 6 4 = 4 w b l b 0 = 3 6 q w e e w w 6 6 6 3 = 0 z z z z 1 ",
"      6 ; ; 4 e e e l 0 = ; 6 6 6 e e 6 6 6 6 3 ; = 0 e e e e 3 ",
"            4 w b e e 0 = ; 3 6 6 q q 6 6 6 3 ; = ; 0 z z w w 3 ",
"        ; = 4 w n e e 0 = ; ; 3 6 6 6 6 6 4 = : 8 = 0 z b w e 3 ",
"            4 w n e e 0 ; ; ; ; = 6 6 6 6 ; * i u * 0 z b w e 3 ",
"              q n l w 6 : i = ; ; ; 3 3 ; ; ; j u * 6 z b w q 3 ",
"              6 n l q 6 8 g , 3 1 1 1 1 1 3 1 Z u , 6 e b d w 2 ",
"            2 0 b e 6 4 7 f % = & & = = = = & C 9 % 4 e z s a < ",
"              d a 5 q 1   C                   C     2 q 5 a a   ",
"              u p < 6                               3 2 p h u   ",
"              i i O &                                 % i i     ",
"                                                                "
};
