/* XPM */
static char *aca4ea8cd01e4534a1a6dd70afea2788hlt055TNmDjf1Pab[] = {
/* columns rows colors chars-per-pixel */
"64 23 9 1 ",
"  c None",
". c #40221F",
"X c #44281F",
"o c #552E23",
"O c #603E21",
"+ c #566424",
"@ c #885620",
"# c #A97032",
"$ c #B6905E",
/* pixels */
"            .......                          .......            ",
"           .$#####$.                        .$#####$.           ",
"          .$#######$.                      .$#######$.          ",
"          .$#######$.                      .$#######$.          ",
"          .$#######$.                      .$#######$.          ",
"          .$$#####$$.                      .$$#####$$.          ",
"...........O$$$$$$$O........................O$$$$$$$O...........",
"@@@@@@@@@@XoO@OOO@OoX@@@@@@@@@@@@@@@@@@@@@@XoO@OOO@OoX@@@@@@@@@@",
"@@@@@@@OOOXoO@@OO@OoX@@OOOOO@@@@@@@@@@@@OOOXoO@@OO@OoX@@OOOOO@@@",
"OOOOOOOOOOXoO@@OO@OoXOOOOOOOOOOOOOOOOOOOOOOXoO@@OO@OoXOOOOOOOOOO",
"ooooOOOOOOXoO@@OO@OoXOOOOOOOoooooooooOOOOOOXoO@@OO@OoXXOOOOOOooo",
"ooOOOOOOooXoO@@OO@OoXXoOOooooooooooOOOOOOooXoO@@OO@OoXXoOOoooooo",
"OOOOOOooooXoO@@OOOOoXXoOOOOOOOOOOOOOOOOooooXoO@@OOOOoXXXOOOOOOOO",
"ooOOoooooXXoOO@OO@OoXXooOOOOoooooooOOoooooXXoOO@OO@OoXXXoOOOOooo",
"OOooooooXXXoOO@OO@OoXXXoooOOOOOOOOOooooooXXXoOO@OO@OoXXXXooOOOOO",
"ooooooXXXXXoOOOOOOOoXXXXoooooOOOoooooooXXXXXoOOOOOOOoXXXXXooooOO",
"ooooXXXXXXXoOO@OOOOoXXXXXXoooooooooooXXXXXXXoOO@OOOOoXXXXXXooooo",
"ooXXXXXXXXXoOO@OOOOoXXXXXXXXXooooooXXXXX+XXXoOO@OOOOoXXXXXXXXooo",
"XXXXXXXXXXXooO@OOOooXX+XXXXXXXXXXXXXXXX++XXXooO@OOOooXXXXXXXX+XX",
"...........ooo@OOooo..+................++...ooo@OO+oo........+..",
"           .o+ooooo.  +                +    .ooooo+o.        +  ",
"            .+.....         +                ...+.+.            ",
"             +              +                                   "
};
