/* XPM */
static char *result[] = {
/* columns rows colors chars-per-pixel */
"32 32 83 1 ",
"  c #2D0A1A",
". c #3C051F",
"X c #320E19",
"o c #3F0E1F",
"O c #2E131F",
"+ c #32141F",
"@ c #3C121F",
"# c #3E221F",
"$ c #341C21",
"% c #430E1F",
"& c #471F16",
"* c #431D1F",
"= c #482016",
"- c #42251F",
"; c #44291F",
": c #42381F",
"> c #613C1D",
", c #441621",
"< c #461C21",
"1 c #4A1D20",
"2 c #442520",
"3 c #4C2622",
"4 c #462920",
"5 c #4C2B21",
"6 c #512724",
"7 c #542E23",
"8 c #582D24",
"9 c #453420",
"0 c #4A3521",
"q c #483920",
"w c #553222",
"e c #5A3622",
"r c #563923",
"t c #5D3B21",
"y c #603523",
"u c #613D21",
"i c #6B3D22",
"p c #67411F",
"a c #72471E",
"s c #72481D",
"d c #784B1F",
"f c #4B4621",
"g c #4E4C22",
"h c #574323",
"j c #544D24",
"k c #5A4F26",
"l c #4E5222",
"z c #535424",
"x c #5C4937",
"c c #5E4838",
"v c #654121",
"b c #6C4521",
"n c #684820",
"m c #714621",
"M c #744A20",
"N c #7A4D20",
"B c #73563B",
"V c #7A5D3E",
"C c #80511E",
"Z c #855420",
"A c #895721",
"S c #8C5920",
"D c #82603C",
"F c #8F673E",
"G c #946535",
"H c #A66824",
"J c #AA6F2E",
"K c #AC712E",
"L c #A86E30",
"P c #AB7234",
"I c #B27A3C",
"U c #8E6C46",
"Y c #92734E",
"T c #9A7349",
"R c #A37E51",
"E c #B5844D",
"W c #BA864C",
"Q c #A48154",
"! c #AB8657",
"~ c #B48852",
"^ c #BA8E59",
"/ c #BA915D",
"( c None",
/* pixels */
"(((((( ++((((((((((((((++ ((((((",
"((((((UAGV((((((((((((VGAF((((((",
"(((((BWJIT((((((((((((TIKWB(((((",
"(((((UIJJEc((((((((((cEJLIU(((((",
"(((((UILJEx((((((((((xEJLIU(((((",
"(((((UILJE(((((((((((xEJLIU(((((",
"(((((UILPE((((((((((((EPLRU(((((",
"(((((YWHP/((((((((((((/PHWY(((((",
"(((((B^~^QX((((((((((XR^W^B(+$ (",
"uuuiuwRQ!D&vuuiuuiuib=D!QR7uvuuu",
"AAAAZ5a>swbSZACAAASSSbes>a7AAASA",
"SSSNv3daawmZnbSASASCmweCps7CbbNS",
"NMNne4NNsupMetNNNdNsv:eAnM5suenN",
"etttt5NMMy;utveeeettvweCbN5ruute",
"w8tvh3NdMtwuvvw7w7ehvweZvM4wvutw",
"7evue;NNMt-uew777wuvt3eZbM4wtw87",
"euut84NNbu#etweewtuuw3tZbb35vwwe",
"tuuw74NNte2evtuuuuuew3tZuu5-tvtv",
"wuw844bMbt4wuuwwwet8w4wNbm44evew",
"ee7w53vMMu#7eueetew85;wNbM44wute",
"t877;4vbMu#5wtuvue874;wbnM4;4euu",
"(w7;;5uuue4477euw8w5;;evuu5;;7wu",
"w((;25vbte4457ww7854--ebuu3;;78w",
"854;44ndtr4#;37877449-eNbt4;;477",
"7;;;;3bMte;;;;5w8;-:g<wMvt5;;;5w",
"(((((4uMe89g-;;4;;*gl<7Mbe54;-f9",
"((((((yMe70g<44434,zz<7mph343,g0",
"(((((3tbw79g@#@;--.lj$5inj1#-$g9",
"((((((kr83((((((((((((58rk%(((((",
"((((((j034((((((((((((2wzj((((((",
"((((((l9@((((((((((((((4lf((((((",
"(((((((((((((((((((((((((((((((("
};
