/* XPM */
static char *d0f0e1fa776048c9b04a1261c17bdb83mIfPUfDlMfA8YuSw[] = {
/* columns rows colors chars-per-pixel */
"32 32 210 2 ",
"   c None",
".  c #3D0000",
"X  c #3F1616",
"o  c #3F1717",
"O  c #3F1A19",
"+  c #3F1C1A",
"@  c #3F1F1D",
"#  c #3D1F1F",
"$  c #3F201C",
"%  c #3F211E",
"&  c #3E211F",
"*  c #3F221F",
"=  c #3F352F",
"-  c #3E3B35",
";  c #400000",
":  c #401717",
">  c #401E17",
",  c #421818",
"<  c #401C1A",
"1  c #401D1B",
"2  c #4C1C1C",
"3  c #40231E",
"4  c #40221F",
"5  c #44201D",
"6  c #46201D",
"7  c #47221E",
"8  c #4B211C",
"9  c #4C231D",
"0  c #4D231D",
"q  c #4C231E",
"w  c #4D241D",
"e  c #4D251D",
"r  c #4D241E",
"t  c #472D1E",
"y  c #472D1F",
"u  c #55291E",
"i  c #552A1F",
"p  c #502D1F",
"a  c #5C2F18",
"s  c #5C3018",
"d  c #5E3619",
"f  c #58331D",
"g  c #59301F",
"h  c #5B331F",
"j  c #5C321C",
"k  c #5C331F",
"l  c #5F331E",
"z  c #5B341F",
"x  c #5C341F",
"c  c #5E381D",
"v  c #5E391E",
"b  c #62360F",
"n  c #603B1C",
"m  c #603B1D",
"M  c #613E1F",
"N  c #6A3C1E",
"B  c #402220",
"V  c #402421",
"C  c #432621",
"Z  c #402622",
"A  c #402723",
"S  c #452421",
"D  c #462421",
"F  c #4B2721",
"G  c #492622",
"H  c #452A26",
"J  c #4B2821",
"K  c #4E2823",
"L  c #4F2C21",
"P  c #4A2A25",
"I  c #4A2C26",
"U  c #562A20",
"Y  c #552D22",
"T  c #552E23",
"R  c #562F23",
"E  c #46312B",
"W  c #47322C",
"Q  c #48322C",
"!  c #533320",
"~  c #563023",
"^  c #533420",
"/  c #543420",
"(  c #543520",
")  c #573225",
"_  c #583123",
"`  c #593323",
"'  c #5A3322",
"]  c #5A3323",
"[  c #5B3323",
"{  c #583622",
"}  c #5B3722",
"|  c #5D3523",
" . c #5E3523",
".. c #5F3623",
"X. c #583324",
"o. c #5D3A21",
"O. c #5C3922",
"+. c #5D3922",
"@. c #5F3C21",
"#. c #5F3D21",
"$. c #5F3C22",
"%. c #5D3D25",
"&. c #5D3F27",
"*. c #51332B",
"=. c #553328",
"-. c #51342B",
";. c #52342A",
":. c #52342B",
">. c #553428",
",. c #553429",
"<. c #573B28",
"1. c #5E3B28",
"2. c #433C35",
"3. c #453F36",
"4. c #403E38",
"5. c #603D21",
"6. c #603E20",
"7. c #613E20",
"8. c #603E21",
"9. c #613E21",
"0. c #603F21",
"q. c #613F21",
"w. c #623F21",
"e. c #693E22",
"r. c #72421D",
"t. c #70461C",
"y. c #7B481A",
"u. c #5E4127",
"i. c #5F4328",
"p. c #46453A",
"a. c #4D473C",
"s. c #5C4E38",
"d. c #5D4F39",
"f. c #614021",
"g. c #604024",
"h. c #604124",
"j. c #6F4322",
"k. c #6E4720",
"l. c #6D4A27",
"z. c #684228",
"x. c #744721",
"c. c #7D5126",
"v. c #654B34",
"b. c #3E4C47",
"n. c #424941",
"m. c #424B43",
"M. c #414F45",
"N. c #424F45",
"B. c #4B4F43",
"V. c #445045",
"C. c #455045",
"Z. c #465145",
"A. c #475145",
"S. c #485145",
"D. c #495145",
"F. c #4C5347",
"G. c #4A5447",
"H. c #455A4C",
"J. c #4A594A",
"K. c #4B5B4C",
"L. c #4A5B4D",
"P. c #4B5B4D",
"I. c #4C5B4D",
"U. c #4A5C4D",
"Y. c #4B5C4E",
"T. c #515746",
"R. c #52594B",
"E. c #525A4B",
"W. c #525B4C",
"Q. c #525F4E",
"!. c #435153",
"~. c #465C51",
"^. c #4C5F50",
"/. c #516051",
"(. c #526150",
"). c #536150",
"_. c #526151",
"`. c #536151",
"'. c #536251",
"]. c #526252",
"[. c #556251",
"{. c #576350",
"}. c #5B6451",
"|. c #5D6550",
" X c #5E6550",
".X c #5F6550",
"XX c #5F6650",
"oX c #516858",
"OX c #516958",
"+X c #466564",
"@X c #4A787B",
"#X c #87531B",
"$X c #88531B",
"%X c #8A551B",
"&X c #8D581B",
"*X c #815121",
"=X c #835220",
"-X c #845320",
";X c #865420",
":X c #835626",
">X c #855726",
",X c #885620",
"<X c #895620",
"1X c #895720",
"2X c #8A5720",
"3X c #8A5820",
"4X c #8B5820",
"5X c #8D5A20",
"6X c #8A5A26",
"7X c #4C8789",
/* pixels */
"            $ B $ $ $ $ $ $ $ $ $ $ $ $ $ $ & & B $             ",
"    @     C J F D D D D D D D D D D D D D D D D F J C     @     ",
"  $ P E H F T [  . . . .| |  . . . . . . . .| | [ T F H E P $   ",
"  . Q ^.a.2 K x.-X=X=X=X=X=X=X=X=X=X=X=X=X=X=X-Xx.K 2 a.^.W .   ",
"  3.B.F.v.r.j.=X5X3X3X3X3X3X3X3X3X3X3X3X3X3X3X5X=Xj.r.v.F.B.3.  ",
", G.].) y.5X3X2X2X2X2X2X2X2X2X2X2X2X2X2X2X2X2X2X2X3X5Xy.) ].G., ",
": V.}.c.#X2X2X2X2X2X2X2X2X2X;X;X2X2X2X2X2X2X2X2X2X2X2X#Xc.}.V.: ",
"o M.XX6X&X2X2X2X2X2X2X2X2X2X2X2X2X2X2X2X2X2X2X2X2X2X2X&X6XXXM.o ",
"o M.XX:X#X;X;X;X;X;X;X;X;X;X;X;X;X;X;X;X;X;X;X;X;X;X;X$X:XXXM.o ",
"o V.].1.l  . . . . . . . . . . . . . . . . . . . . . .l 1.].V.o ",
"o V.[.z.N e.e.e.e.e.e.e.e.e.e.e.e.e.e.e.e.e.e.e.e.e.e.N z.[.V.o ",
"o M.XX>X%X2X2X2X2X2X2X2X2X2X2X2X2X2X2X2X2X2X2X2X2X2X2X%X>XXXM.o ",
"o V.[.l.t.k.k.k.k.k.k.k.k.k.k.k.k.k.k.k.k.k.k.k.k.k.k.t.l.[.V.o ",
"o S.].<.f { { { { { { { { { { { { { { { { { { { { { { f <.].S.o ",
"o S.].,.i T T T T T T T T T T T T T T T T T T T T T T i ,.].S.o ",
"o V.].&.c o.o.o.o.o.o.o.o.o.o.o.o.o.o.o.o.o.o.o.o.o.o.c &.].V.o ",
"o V.].&.d c c c c c c c c c c c c c c c c c c c c c c d &.].V.o ",
"o S.].,.i T T T T T T T T T T T T T T T T T T T T T T i =.].S.o ",
"o S.OXW.E.E.E.E.E.E.E.E.E.E.E.E.E.E.E.E.E.E.E.E.E.E.E.E.W.OXS.o ",
"O p.I.L.U.U.U.U.U.U.U.U.U.U.L.J.J.L.U.U.U.U.U.U.U.U.U.U.L.L.p.O ",
"4 C C C C C C C C C C C C C 4 > > 4 C C C C C C C C C C C C C 4 ",
"$ 7 9 w w 9 9 9 9 9 9 w 8 ; !.@X@X!.; 8 w 9 9 9 9 9 9 w w 9 7 $ ",
"$ L [ T [ [ [ [ [ [ [ [ X.y +X7X7X+Xy ) [ [ [ [ [ [ [ [ T [ L $ ",
"@ ^ #.T { 8.#.#.#.#.#.n u.Q.~.b.b.~.Q.u.n #.#.#.#.#.8.{ T #.^ @ ",
"@ / 8.o.#.8.8.8.8.8.8.M h.d.T.H.H.T.d.h.M 8.8.8.8.8.8.#.o.8./ @ ",
"@ ! 8.#.8.8.8.8.8.8.8.8.8.b d.].].d.b 8.8.8.8.8.8.8.8.8.#.8.! @ ",
"@ / 8.~ o.f.8.8.8.8.8.8.8.8.h.i.i.h.8.8.8.8.8.8.8.8.f.o.~ 8./ @ ",
"$ p ' U f x f f f f f f f z l s a l z f f f f f f f x f U l p $ ",
"$ I :.:.:.*.*.*.*.*.*.*.*.*.*.*.*.*.*.*.*.*.*.*.*.*.*.:.:.:.I $ ",
"7 2.n.n.n.n.n.n.n.n.n.n.n.n.n.n.n.n.n.n.n.n.n.n.n.n.n.n.n.n.2.7 ",
"  = 4.- - - - - - - - - - - - - - - - - - - - - - - - - - 4.=   ",
"  < 7 < < < < < < < < < < < < < < < < < < < < < < < < < < 7 +   "
};
