/* XPM */
static char *_7e170514c5f494cb44773b2944dfab1RfHHjp2TNNPHkrYg[] = {
/* columns rows colors chars-per-pixel */
"32 32 229 2 ",
"   c #000000",
".  c #080005",
"X  c #000015",
"o  c #00001C",
"O  c #240006",
"+  c #320412",
"@  c #34281D",
"#  c #000024",
"$  c #00002B",
"%  c #1C152F",
"&  c #000032",
"*  c #020938",
"=  c #031639",
"-  c #001C39",
";  c #161537",
":  c #2D102E",
">  c #321626",
",  c #251635",
"<  c #0C2334",
"1  c #272A3E",
"2  c #3C2A37",
"3  c #393239",
"4  c #430000",
"5  c #580306",
"6  c #580017",
"7  c #501518",
"8  c #760600",
"9  c #7B1C04",
"0  c #692600",
"q  c #521E2A",
"w  c #641F22",
"e  c #65182F",
"r  c #54222F",
"t  c #462B36",
"y  c #41313C",
"u  c #543A38",
"i  c #642223",
"p  c #652926",
"a  c #67272B",
"s  c #6F312A",
"d  c #6D2937",
"f  c #722D3A",
"g  c #67383B",
"h  c #76353E",
"j  c #7B4737",
"k  c #7E503D",
"l  c #041943",
"z  c #1B2344",
"x  c #2B2B46",
"c  c #35204A",
"v  c #3A3245",
"b  c #422E45",
"n  c #483745",
"m  c #553A47",
"M  c #4C3355",
"N  c #473D50",
"B  c #533C58",
"V  c #633846",
"C  c #7A3846",
"Z  c #4F4449",
"A  c #554159",
"S  c #59465B",
"D  c #664446",
"F  c #7C434A",
"G  c #7E5347",
"H  c #6E4F52",
"J  c #765B51",
"K  c #726A5A",
"L  c #5E5A60",
"P  c #5D5C75",
"I  c #7D5F63",
"U  c #64616B",
"Y  c #746868",
"T  c #7B7A6B",
"R  c #776C76",
"E  c #76747A",
"W  c #811D02",
"Q  c #843D1C",
"!  c #883634",
"~  c #894A30",
"^  c #86463A",
"/  c #AC563F",
"(  c #823E4B",
")  c #873D49",
"_  c #913F43",
"`  c #86424B",
"'  c #964A46",
"]  c #815244",
"[  c #975348",
"{  c #894954",
"}  c #974957",
"|  c #875959",
" . c #9E5A58",
".. c #AE5942",
"X. c #A85846",
"o. c #B15B44",
"O. c #B35E4B",
"+. c #A55857",
"@. c #B0555F",
"#. c #856557",
"$. c #996B59",
"%. c #B3644E",
"&. c #BF6C4E",
"*. c #AC6457",
"=. c #A3655B",
"-. c #A86A5C",
";. c #B96756",
":. c #AC7A5F",
">. c #9D5363",
",. c #896763",
"<. c #9D6561",
"1. c #827E6E",
"2. c #957A6A",
"3. c #AF6A62",
"4. c #B66D65",
"5. c #AD7163",
"6. c #B87666",
"7. c #D46B4B",
"8. c #C87A4F",
"9. c #C56956",
"0. c #CA6C59",
"q. c #C67251",
"w. c #C87552",
"e. c #C97A54",
"r. c #C5745D",
"t. c #CB755A",
"y. c #CD7A5C",
"u. c #D27C5C",
"i. c #CB7C63",
"p. c #C67A6C",
"a. c #D67C63",
"s. c #C87D74",
"d. c #868172",
"f. c #B28A73",
"g. c #BE8C7E",
"h. c #A99677",
"j. c #B5A17D",
"k. c #CD825E",
"l. c #D4815F",
"z. c #CE8468",
"x. c #D48462",
"c. c #DB8567",
"v. c #D4866B",
"b. c #D48A6C",
"n. c #DD956D",
"m. c #C78777",
"M. c #D68673",
"N. c #D98B74",
"B. c #DB9373",
"V. c #DE917B",
"C. c #E3946B",
"Z. c #E39A74",
"A. c #767486",
"S. c #846C8A",
"D. c #8D7E87",
"F. c #878588",
"G. c #9B8C8F",
"H. c #938A96",
"J. c #9B9699",
"K. c #A88182",
"L. c #A7979C",
"P. c #A6A39D",
"I. c #BCA19C",
"U. c #9D8CA5",
"Y. c #9D98A5",
"T. c #A18FA6",
"R. c #A698A3",
"E. c #A6A3A8",
"W. c #B7A7A6",
"Q. c #B1B1A7",
"!. c #B6ABB6",
"~. c #B7B1BB",
"^. c #C58C82",
"/. c #C79383",
"(. c #D99986",
"). c #E39D86",
"_. c #E59D8C",
"`. c #C6A59E",
"'. c #D1A190",
"]. c #E4A28B",
"[. c #E9A892",
"{. c #E1B795",
"}. c #F8B790",
"|. c #C4A8A5",
" X c #E9C69B",
".X c #E9C39D",
"XX c #F7CA94",
"oX c #C1C2AD",
"OX c #C9CAB4",
"+X c #D1D1BB",
"@X c #E9C7A2",
"#X c #FDCCA9",
"$X c #FED3AD",
"%X c #FFE7B6",
"&X c #BDB5C7",
"*X c #B4B0CE",
"=X c #C7B8C9",
"-X c #C8C3C5",
";X c #D8C9C9",
":X c #DAD4C7",
">X c #C6C2D7",
",X c #D5C5DC",
"<X c #D2CCD9",
"1X c #DACDDE",
"2X c #DBD7DA",
"3X c #E7DCCD",
"4X c #E0CCDA",
"5X c #E6D6D4",
"6X c #EDE5D5",
"7X c #E9E7DD",
"8X c #F2E4D9",
"9X c #FFF4DF",
"0X c #DACDE1",
"qX c #D9D3E4",
"wX c #E6D9E7",
"eX c #EAE4E3",
"rX c #EBEAE2",
"tX c #E6E3EA",
"yX c #ECEAEC",
"uX c #F3E9E9",
"iX c #FAEBEB",
"pX c #F9F6E5",
"aX c #FAF3ED",
"sX c #FEFEED",
"dX c #F0EFF3",
"fX c #FCF4F2",
"gX c #FEFEF3",
"hX c #F9F3F9",
"jX c #FFFFFB",
/* pixels */
"Q.pXgXsXgXgXsXsXsXsXsXsXsXgXgXgXgXgXgXgXgXgXgXgXgXgXgXgXjXjXhX-X",
"sXjXjXjXjXhXgXjXgXgXgXgXgXjXjXgXjXjXjXjXjXjXjXjXjXjXjXjXjXjXfXfX",
"iX4XyXjXwX=XR.wX1X1X1X1X1X1X0X0X,X,X,X,X,X,X,X,X,X!.W.:XhXjXgXiX",
"U.S.U.&XD.y : S S A A A A A A B M M M M M M M M B : + Z J.E.-X~.",
"c S.T.H.t   t 6 w i i i w w w w 5 i p p p p p p w r q   Y R A.P ",
"G.;XaXiXD.+ >.} ( ( ( ( ( ( ( ` @.} ) ) ` ` ` ( C C ( 7 5XuXtX<X",
"P.3XgXjXG.5 4.+.o * ; * * ; # | [.| X , , % , $ u =.;.j rXjXtX1X",
"oXpXgXjXL.8 p.*.# l l l l z $ 2.#XI $ 1 - - 1 & J v.9.j 7XjXdXyX",
":XgXgXjXI.8 M.4.% x x x x v & 2.#X,.$ 3 1 1 v & #.n.9.j 7XjXgXaX",
"+XsXgXjXI.8 M.*.  # # # # &   $.$XH   $ # # & o D c.9.j eXgXgXuX",
"OXsXsXjXI.8 M.6.K T T T T 1.Y j.%Xh.T d.1.d.d.T h.Z.9.j eXjXgXaX",
"OXsXgXjX`.W M.B.{.@X@X@X@X@X.X XXX X.X.X.X.X@X.X XZ.0.k eXjXgXaX",
"OXsXgXjX`.W N.M.F F ` F F F f %.Z.[ d C h C C f ' a.0.k rXjXgXfX",
"OXsXgXjX|.9 N.p.  X X X X $   -.}.H o & & & & # D c.0.k rXjXgXfX",
"+XgXgXjX|.9 N.m.t 2 y 3 y N * f.XX#.* n v v n < G c.0.k 7XgXgXfX",
"OXpXgXjX|.9 N.6.  $ - - * l X :.XXJ # - & & = & g 7.0.] 6XsXgXfX",
"Q.uXgXjX|.8 V.m.H b # & z x $ 6.}.| $ x = ; * # ,.[.9.] 6XsXaXfX",
"E.uXgXjXW.^ ^.=.0 ,.`.(.g././.(.[./.g././.m.'.2.Y W.^ G 6XpXaXaX",
"P.rXgXjX|.s u F.tXW.h.{.b.N.B.b.b.B.B.B.B.B.Z.$.  < @ D 6X9X8XiX",
"P.rXgXjX|.    J.tXH.  $.w.w.w.e.e.e.e.e.e.8./.K.>   . n 8X9X6X8X",
"J.rXsXgXW.5 m   O g $.k.x.x.x.x.x.l.x.x.x.k.].^.d t   m 8XpX3X5X",
"J.2XpXgXW.Q 6.p 4 ! r.x.y.y.y.y.y.y.y.y.z.r.;.O.;.3.V A 8XpX;X;X",
"E.-XrXjXW.Q M.p.h [ 9.O.%.%.%.%.%.%.%.%.%.;.X.w ;.v.=.A 2XaXrX:X",
"Y.-X7XjXW.Q v.i.a ~ u.w.t.t.t.t.t.y.y.y.t.l.r.5 *.v.*.Z 2XdXeX-X",
"A.E.&XtXL.~ v.i.a ^ u.u.u.u.u.u.u.u.u.u.u.x.r.6 *.v.=.n 1XqX=XL.",
"E Y.~.wXJ.~ v.i.a ' a.y.y.y.y.y.y.y.u.u.u.c.r.6 *.b.-.b >X>X&XR.",
"E Y.!.2XJ.s i.a.d ' a.u.u.u.u.y.y.y.u.u.u.x.t.6 5.v.=.2 *X*X~.L.",
"U J.~.tXJ.4 6.0.6 +.x.y.u.u.u.u.l.l.l.x.x.C.y.6 +.z. .> &XqX~.H.",
"3 L E R.Y > 6.r.e f ' &.q.q.q.q.q.w.w.w.w./ ! 6  .6. .> F.J.E L ",
"dXyXyXyXE . <.*.s.6.=.5.5.5.5.5.5.5.5.5.5.<.=.(.m.+.C   -XtXtXyX",
"!.hXhXwXE O { _ O.(._.).).).).).).).).].].].].N.' ' V   ;XiXfXjX",
"&XqX0X=XU   F ' ! X...../ / ........o.o.o.o.o.X.h f V   !.4XeXeX"
};
