/* XPM */
static char *a6b2684860694426c22ac7bcec21f7d89f7Jx64eb5c7fWpo[] = {
/* columns rows colors chars-per-pixel */
"32 32 175 2 ",
"   c #055B3C",
".  c #00622C",
"X  c #2F7C3F",
"o  c #3B7B3D",
"O  c #4B7C47",
"+  c #3C8B24",
"@  c #3A9330",
"#  c #4BA01E",
"$  c #5CA81D",
"%  c #6DB300",
"&  c #6EB41D",
"*  c #488D2E",
"=  c #4A9F2E",
"-  c #579A2E",
";  c #5C9E2C",
":  c #46863E",
">  c #4F9B30",
",  c #4D9638",
"<  c #509633",
"1  c #589C32",
"2  c #50933F",
"3  c #5C963D",
"4  c #5B9A3A",
"5  c #6A9C3C",
"6  c #57A726",
"7  c #5FAA27",
"8  c #55A629",
"9  c #5EA22C",
"0  c #5CA334",
"q  c #68A427",
"w  c #65A923",
"e  c #6CAE22",
"r  c #63A22A",
"t  c #6EA02A",
"y  c #62AB2A",
"u  c #6CAD29",
"i  c #72AF2E",
"p  c #6DB425",
"a  c #6FB02A",
"s  c #75B525",
"d  c #7AB524",
"f  c #7CBA25",
"g  c #74B42C",
"h  c #7BB52C",
"j  c #75BA2D",
"k  c #7BBA2B",
"l  c #64A131",
"z  c #6CA735",
"x  c #66AB34",
"c  c #6AAC33",
"v  c #66A338",
"b  c #74AE32",
"n  c #74AC38",
"m  c #6DB433",
"M  c #6EB931",
"N  c #74B331",
"B  c #7CB534",
"V  c #77BA32",
"C  c #7DB933",
"Z  c #78B83F",
"A  c #7FC12D",
"S  c #4D8D44",
"D  c #46864B",
"F  c #528E41",
"G  c #529342",
"H  c #5D9A42",
"J  c #549549",
"K  c #5E984C",
"L  c #428D50",
"P  c #549950",
"I  c #699E47",
"U  c #619857",
"Y  c #5EA248",
"T  c #67A343",
"R  c #69A644",
"E  c #69AA47",
"W  c #6AA54E",
"Q  c #7AAE42",
"!  c #76B344",
"~  c #68A552",
"^  c #83BD25",
"/  c #8BBE25",
"(  c #81B62B",
")  c #82BC2B",
"_  c #8BBE2C",
"`  c #91BD27",
"'  c #94BF2A",
"]  c #83BB33",
"[  c #8CBD32",
"{  c #87B63A",
"}  c #80BA39",
"|  c #88BF3A",
" . c #97BD39",
".. c #B3D800",
"X. c #B9DA1D",
"o. c #86C124",
"O. c #8CC226",
"+. c #8FC827",
"@. c #84C12B",
"#. c #8CC22C",
"$. c #8EC82E",
"%. c #94C526",
"&. c #9DC726",
"*. c #9DCB27",
"=. c #93C42B",
"-. c #99C52B",
";. c #95C92D",
":. c #9CCB2C",
">. c #8CC432",
",. c #95C334",
"<. c #9BC633",
"1. c #94CB33",
"2. c #9ACB32",
"3. c #98C139",
"4. c #9DCC3A",
"5. c #A5CE27",
"6. c #A8CE27",
"7. c #A3C72C",
"8. c #A3CD2B",
"9. c #A9CE2C",
"0. c #AFD625",
"q. c #A6D12B",
"w. c #ACD22C",
"e. c #ADD82B",
"r. c #B3D727",
"t. c #B9D924",
"y. c #B2D62D",
"u. c #BAD728",
"i. c #B5DA2D",
"p. c #B9DB2E",
"a. c #A2CD32",
"s. c #ABCE34",
"d. c #A6D030",
"f. c #ADD331",
"g. c #AED834",
"h. c #A6D43B",
"j. c #ABD338",
"k. c #B3D632",
"l. c #B9D731",
"z. c #B5D931",
"x. c #B6D931",
"c. c #BADB30",
"v. c #B9DA32",
"b. c #B8DA33",
"n. c #BBDA32",
"m. c #BADC31",
"M. c #BCDC32",
"N. c #BADA34",
"B. c #BCDA35",
"V. c #B9D73D",
"C. c #B7D83D",
"Z. c #BAD939",
"A. c #BED938",
"S. c #BBDC3A",
"D. c #BDDD38",
"F. c #BDDB3D",
"G. c #BBE02E",
"H. c #BEE130",
"J. c #C1DB3E",
"K. c #A3CE40",
"L. c #A4D140",
"P. c #AED14E",
"I. c #BFDD41",
"U. c #B5D54D",
"Y. c #92C868",
"T. c #9AC873",
"R. c #C0DC41",
"E. c #C2DB49",
"W. c #C5E34D",
"Q. c #C7E154",
"!. c #C9E45D",
"~. c #CFDE72",
"^. c #D2E561",
"/. c #C9E372",
"(. c #E5EDAB",
/* pixels */
"^.W.W.I.F.J.F.Z.i.W.Q.Z.Z.B.x.C.A.b.A.k.E.R.J.B.D.S.k.p.D./.~.(.",
"t.u.i.i.b.x.i.p.b.i.u.p.b.b.b.p.p.p.p.p.p.p.p.p.p.p.p.p.p.X...V.",
"N.b.b.b.b.b.b.b.b.b.N.b.b.b.b.b.b.b.p.p.b.b.b.p.p.p.p.p.p.D.r.!.",
"b.b.b.b.x.x.b.b.b.b.b.b.b.b.b.b.9.w.p.p.p.p.p.p.p.p.p.p.p.M.t.!.",
"b.b.b.x.x.x.b.b.b.b.b.b.b.b.b.b.w.y.p.p.p.p.p.p.p.p.p.p.i.b.p.U.",
"b.b.b.b.x.b.b.b.b.b.b.b.b.b.b.p.b.b.p.p.p.p.p.w.w.p.p.y.%.8.x._ ",
"b.b.k.w.x.b.b.b.b.l.b.b.b.b.b.p.p.p.p.p.p.p.p.7.-.=.e.p.e.w.i.:.",
"x.b.w.&.b.b.b.b.l.l.p.b.b.b.b.p.p.p.p.p.p.p.i.p.w.:.i.p.i.i.e.q.",
"x.p.p.N.b.b.b.b.l.l.l.b.b.b.b.p.p.p.p.p.p.p.i.8.w.r.y.p.i.i.b.3.",
"x.b.b.b.b.b.b.b.l.b.x.k.x.b.p.p.p.p.w.i.p.b.i.y.y.0.y.i.i.i.x.j.",
"x.b.l.b.b.b.p.b.b.9.8.:.9.p.p.p.p.p.w.&.y.` 6.p.p.i.w.y.i.y.p.<.",
"x.b.b.p.p.p.b.b.b.w.9.f.k.p.x.y.p.p.p.w.i.9.y.i.w.9.:.8.f.k.b.3.",
"b.y.8.k.p.b.y.8.i.p.p.b.b.M.w.8.b.p.p.p.i.p.p.y.8.e.i.9.w.p.p.x.",
"9.k.' 7.M.b.i.i.i.k.i.x.b.b.x.f.k.p.p.x.p.p.p.p.p.p.p.p.p.x. .{ ",
"-.M.f.s.b.i.p.M.7.' b.b.l.B.-.d o.i.p.p.k.w.w.i.p.p.p.i.p.m.t 5 ",
"x.b.b.M.b.b.b.p.i.y.b.b.x.b.w.d.9.p.p.i.8.f.w.u.p.p.p.p.p.G.s.,.",
"x.x.x.w.k.b.k.N.k.7.y.N.-.f.b.b.b.p.p.i.i.*.w.p.i.x.H.y.=.k.g.#.",
"x.b.b.h ( :.( a.,.9.b.x.y.k.b.i.x.p.p.i.p.w.9.p.4.>.w.d.8.e.g.[ ",
"b.b.l.=.j y # 7 #.i.p.x.x.b.b.p.p.k.-.i.p.p.5.2.Q x f :.G.e.W.P.",
"k.k.x.p.:.g w e q.i.y.x.x.w.x.k.w.y.w.i.p.i.^ 0 G @ k w.p.k.K.L.",
"k.k.7.;.y.y.a.w.i.&.8.k.w.q 1.g =.p.p.p.p.p.2.1 4 B 8.e.:.>.k _ ",
"f.y.%./ 9.w.y.k.k.w./ :.:.+ x = w ;.=.e.p.p.i.q.8.k.m.8.g N 1.4.",
"#.^ w.y.w.=.=.q.:.w.9.8.q._ . * #.:.%.q.=.q.p.p.e.j :.e.1.$.#.r ",
"/ ) :.9.w.:.a.:.e ) f.w.6.w.h [ w.q.q.*.=.w.p.p.i.:.f.a.6 V h.4.",
"k ) 8 w 8.d d :.p $ -.9.8.w.w.w.8.q.q.( =.q.q.i.k.:.f >.k x ] | ",
"M @.A ) ^ d ) +.o.o.q.f.=.:.8.5.8.q.8.<.h h ) 2.2.) h >.>.j V c ",
"j f p a ( #.#.g #.:.f =.8.#.f 8.O.^ *.=.u 9 N ] ) $.#.g m Z % T.",
"h @.k s _ #.^ p ) #.s f 8.=.g ;.#.^ ;.g k $.#.h k $._ ) V m g ! ",
") ( $.#./ / #./ f f O.%.^ =.) _ *.=.d <.#.o.=.) >.#._ #.@.f V & ",
"b ) N ) _ ) ( ` O.f s f f h h _ ( g _ ( i h ) k g #.#.( g } % Y.",
"v >., N #.b l O.g u 0 = j 4 c >.- > ] n < ; r N 9 h C i ; B j U ",
"O I L D T E Y T : z 3 P 2 o R z ~ X 4 4 S S J H G W F K S 3 J   "
};
