/* XPM */
static char *_c17a47496c64c51bbb57d11d00afe1cJVCqXu6gwkhZQCaE[] = {
/* columns rows colors chars-per-pixel */
"32 32 12 1 ",
"  c None",
". c #211F30",
"X c #A14744",
"o c #B96E54",
"O c #CF9E6E",
"+ c #F2BC7E",
"@ c #2FACDA",
"# c #6CD9F1",
"$ c #E4C997",
"% c #FBDFB1",
"& c #ACF7FA",
"* c white",
/* pixels */
"                                ",
"                                ",
"                                ",
"                                ",
"            ...........         ",
"          ..&&#######&&.        ",
"         .&############&.       ",
"        .&##@............       ",
"       .&##@.oXOOOO$O$$OO.      ",
"       .&#@.oXOOOOOO$O$$OO.     ",
"      .###@.oXOOOOOOO$O$$O.     ",
"      ......oXOOOOOOOO$O$$.     ",
"     .oO$Oo.oXOOOOOOOOO$O$.     ",
"     .......oXOOOOOOOOOO$O.     ",
"      .@@@@.oXOOOOOOOOOOO$.     ",
"      .@##@.oXoOOOXXXXXOOo.     ",
"      .@###@.oXoooooooooo.      ",
"       .@###@............       ",
"        .@@##@@@@@@@@@@@.       ",
"         ..#####****&#..        ",
"          .###########.         ",
"         .#######**&###.        ",
"        .##############..       ",
"       .###@######&####.@.      ",
"       ...@.###########.+.      ",
"       .%+.#############..      ",
"        ..@###.......###.       ",
"         .@###.    .@##@.       ",
"         .@##.     .@@@.        ",
"         .@#@.      ...         ",
"         .@@.                   ",
"          ..                    "
};
