/* XPM */
static char *f9b51cf024f14182c3d68ed6ddd3285bhzPe3cHQIDGusEqD[] = {
/* columns rows colors chars-per-pixel */
"32 32 200 2 ",
"   c None",
".  c #000001",
"X  c #000009",
"o  c #000112",
"O  c #00001A",
"+  c #000B1E",
"@  c #17091A",
"#  c #001417",
"$  c #000222",
"%  c #030A23",
"&  c #00032C",
"*  c #000E2A",
"=  c #0C0428",
"-  c #021C29",
";  c #0D1D2D",
":  c #011427",
">  c #19142B",
",  c #191A27",
"<  c #0C0130",
"1  c #2A002E",
"2  c #201827",
"3  c #26162C",
"4  c #331C2A",
"5  c #3D0834",
"6  c #241A32",
"7  c #2C1E37",
"8  c #311F35",
"9  c #00242E",
"0  c #0D202D",
"q  c #1D212A",
"w  c #13383A",
"e  c #2E232E",
"r  c #2C2233",
"t  c #242636",
"y  c #352A38",
"u  c #3A2738",
"i  c #2A313D",
"p  c #32333A",
"a  c #39323D",
"s  c #363C42",
"d  c #3B3D44",
"f  c #472C45",
"g  c #522841",
"h  c #483D43",
"j  c #443E48",
"k  c #433A43",
"l  c #5A3D4B",
"z  c #54344A",
"x  c #6D2C43",
"c  c #623F4D",
"v  c #752D53",
"b  c #633F54",
"n  c #6E3955",
"m  c #4E4749",
"M  c #51464A",
"N  c #4F4852",
"B  c #5F4355",
"V  c #595358",
"C  c #7F474D",
"Z  c #644255",
"A  c #6C4658",
"S  c #794B57",
"D  c #655F5C",
"F  c #7C555A",
"G  c #7A4C62",
"H  c #7C5562",
"J  c #7B5C63",
"K  c #775E67",
"L  c #6B6569",
"P  c #646065",
"I  c #726B68",
"U  c #88585D",
"Y  c #814B64",
"T  c #894A65",
"R  c #8C4967",
"E  c #845B65",
"W  c #8D566A",
"Q  c #895E6C",
"!  c #835B68",
"~  c #94586C",
"^  c #8A5776",
"/  c #9C5775",
"(  c #A45E6D",
")  c #8C656A",
"_  c #94626E",
"`  c #946C68",
"'  c #936971",
"]  c #9A6C75",
"[  c #956877",
"{  c #8B7B75",
"}  c #9E7778",
"|  c #A5657B",
" . c #A26A7D",
".. c #AC6B7A",
"X. c #A47779",
"o. c #B4737C",
"O. c #B77B78",
"+. c #D26A7E",
"@. c #C0737F",
"#. c #98827B",
"$. c #C58177",
"%. c #A97785",
"&. c #B47482",
"*. c #BD7085",
"=. c #BE7D90",
"-. c #C66F86",
";. c #DB7C8A",
":. c #8A8583",
">. c #968B85",
",. c #AB8385",
"<. c #AC8C89",
"1. c #A98988",
"2. c #B7858A",
"3. c #AD918B",
"4. c #B4948A",
"5. c #B5988F",
"6. c #BE9B8B",
"7. c #A69C91",
"8. c #BE9B93",
"9. c #B59D90",
"0. c #ABA094",
"q. c #BBADA0",
"w. c #CB848F",
"e. c #C58A8B",
"r. c #CF898E",
"t. c #DB8A84",
"y. c #D38D8C",
"u. c #D68788",
"i. c #C48C91",
"p. c #CF8C92",
"a. c #C78695",
"s. c #D88493",
"d. c #D48A96",
"f. c #C99493",
"g. c #C89690",
"h. c #D49193",
"j. c #D39A96",
"k. c #D69199",
"l. c #D99798",
"z. c #E6978D",
"x. c #E99A9C",
"c. c #F39D90",
"v. c #FB9D95",
"b. c #D2AA99",
"n. c #FCA596",
"m. c #FEA399",
"M. c #FFAC9A",
"N. c #FFAA95",
"B. c #C89CA5",
"V. c #DEAEA4",
"C. c #C6B8A6",
"Z. c #CDBAA6",
"A. c #D6B2A4",
"S. c #D4BCAC",
"D. c #D9B8AA",
"F. c #E6ACA7",
"G. c #FCADA2",
"H. c #F2ACA4",
"J. c #E5B7AA",
"K. c #EAB5AF",
"L. c #E6B5A7",
"P. c #FCB4A4",
"I. c #ECBEB3",
"U. c #E7BFB1",
"Y. c #CEC1AE",
"T. c #DAC7AD",
"R. c #CDC0B0",
"E. c #D1C5B2",
"W. c #DCC7B2",
"Q. c #DFD2BB",
"!. c #FDC2AD",
"~. c #ECC3B5",
"^. c #E4CAB6",
"/. c #ECCDB9",
"(. c #EFCEB5",
"). c #F2C3B5",
"_. c #F2CBBA",
"`. c #F8C8B6",
"'. c #E2D2BC",
"]. c #EBD1BC",
"[. c #F4D2BF",
"{. c #FAD4BC",
"}. c #ECDCC4",
"|. c #E8DBC6",
" X c #F3D5C0",
".X c #F4DBC3",
"XX c #FBDEC4",
"oX c #F8D7C0",
"OX c #EEE2C7",
"+X c #F5E2C5",
"@X c #F3E4CB",
"#X c #FDE5CA",
"$X c #FEEBCD",
"%X c #F9E5CA",
"&X c #FFEDD1",
"*X c #FAEFD9",
"=X c #FFF2D4",
"-X c #FFF4DA",
";X c #FFF9DF",
":X c #FFFBE1",
/* pixels */
"                          i * 6 < & <                   ; * i   ",
"                        s Z / %.3.<.<.M & : * & & . J 2.,.,.' p ",
"                        % W -.y.g.8.8.1.'.'.'.Q.'.Y.X.f.i.G.u.. ",
"                        9 Y u.m.c.6.9.%X=X=X=X=X=X=X.X4.y.G.t.o ",
"                        9 T ;.m.v.L.}.&X$X$X$X$X$X&X-X].t.v.z.. ",
"                        9 R ;.m.v.%X&X$X$X&X&X&X&X&X&X-XD.O.t.. ",
"                        9 R ;.v.{.$X$X$X$X&X&X&X&X&X&X$X=XZ.x e ",
"                        9 T +.`.=X$X$X$X$X&X&X&X&X&X&X$X$X#X` . ",
"                        9 ~ F.$X$X$X$X$X&X$X$X&X&X&X&X$X$X=XW.. ",
"                        - | ).=X$X$X$X$X$X=X&X&X&X&X&X=X$X=X}.o ",
"                        - | ~.$X$X$X$X$X=XE.@X=X&X&X=XQ.}.=X}.o ",
"                        : | ).$X$X$X$X=X'.. 7.=X&X&X$XN P &X}.o ",
"                        + | ).$X$X$X$X=XC.. { =X&X=X@X6 X @X}.X ",
"                        o  .K.#X$X$X$X=XE.. >.=X$X=X@XN t @XOXX ",
"                        o %.d.I.$X$X$XXXoX}.@X=X|.0.&X|.|.#X/.O ",
"                          K w.s.).=X{.m.M.!.=X'.L k :.@X`.n.z.> ",
"  m h h h k           D V % _ d.k.K.H.M.M.n.#X@XC.S.R.*XP.N.$.* ",
"a Q 3.5.5.} ,       I &X$X,.X &.d.s.x.G.n.!.&X-X:X;X;X=X!.c.F   ",
"3 G <.5.4.4.{ j   j 0.&X=XU.v o _ d.w.l.x.I.[._./._._.b.$.C w   ",
"7 H [ ] 4.4.4.#.> K $X$X$X$XD.( H r 8 B ) F S S U U U z .       ",
"  B Z Z ' ] ] X.1 W.&X$X$X$X$XF.@.2.e.] A H E H O -             ",
"  d t s G Y Y G = '.&X$X$X$X$X%XJ.h.y.h.h.h.l.p.y               ",
"        a 6 r r o '.$X$X$X$X$X$X$X XV.j.j.j.l.e.y               ",
"                < '.=X$X$X$X=X&X$X=X=X$X#X%X#Xf..               ",
"                $ '.=X$X$X+X^. X[.].S..X$X$X$X^.q.V             ",
"              p W .X$X#X&X+X' i.i.2.n w.U.$X#X$X=Xq.L           ",
"              ; &.J.$X&X&XA.u r q q # E k.F.#X$X$X$X7 V         ",
"              0 o.r.j.~.A.A   l  . .l . ~ *.D.XX$X$XT.m         ",
"              - o.h.p...g       E =.b f b , 5 [ B._.(.M         ",
"              : ..k.Q a         . Q l Z ^ #     z %.a.u         ",
"                c Z O             % $ u f ,           2         ",
"                @ @                 3 X 4 4                     "
};
