/* XPM */
static char *ed5255fc2f424564f224a0e927331dc7loZFTfEoladlcmju[] = {
/* columns rows colors chars-per-pixel */
"32 32 164 2 ",
"   c None",
".  c #3D2B1F",
"X  c #263E1E",
"o  c #3B341E",
"O  c #1D3A20",
"+  c #1D3634",
"@  c #3D2F20",
"#  c #333620",
"$  c #363D23",
"%  c #32382E",
"&  c #3D3E2C",
"*  c #253B30",
"=  c #2B3F33",
"-  c #431B1D",
";  c #4F2B23",
":  c #512623",
">  c #582E22",
",  c #493523",
"<  c #423B22",
"1  c #4C3E23",
"2  c #413C2B",
"3  c #4B3F2A",
"4  c #563225",
"5  c #5D3621",
"6  c #553A24",
"7  c #5A3A23",
"8  c #51352A",
"9  c #623E21",
"0  c #1C4634",
"q  c #2D4B2F",
"w  c #334021",
"e  c #33452F",
"r  c #39462C",
"t  c #314D2E",
"y  c #3B4D2E",
"u  c #35522E",
"i  c #3D542C",
"p  c #3F582C",
"a  c #264332",
"s  c #2C4531",
"d  c #244A32",
"f  c #2D4A31",
"g  c #304731",
"h  c #334C31",
"j  c #3A4C30",
"k  c #325232",
"l  c #3E5A31",
"z  c #376133",
"x  c #3D6432",
"c  c #3D6A34",
"v  c #3F7435",
"b  c #595E1F",
"n  c #46412C",
"m  c #4B402A",
"M  c #475327",
"N  c #495526",
"B  c #4D5D27",
"V  c #43552A",
"C  c #445A2B",
"Z  c #4B5D29",
"A  c #515F25",
"S  c #435C30",
"D  c #46602C",
"F  c #4D642A",
"G  c #4D6C2C",
"H  c #556324",
"J  c #596623",
"K  c #566926",
"L  c #586A25",
"P  c #54652A",
"I  c #526C29",
"U  c #5C6928",
"Y  c #4E732E",
"T  c #54742C",
"R  c #587028",
"E  c #557A2E",
"W  c #5E7F2D",
"Q  c #406730",
"!  c #486030",
"~  c #446E32",
"^  c #496F33",
"/  c #477332",
"(  c #4E7530",
")  c #457E36",
"_  c #4A7C33",
"`  c #517D31",
"'  c #587F31",
"]  c #637D27",
"[  c #5F882F",
"{  c #4E8335",
"}  c #528433",
"|  c #528935",
" . c #5C8C33",
".. c #5A8C38",
"X. c #5F9032",
"o. c #658027",
"O. c #65872F",
"+. c #658D2D",
"@. c #6B952F",
"#. c #6E992F",
"$. c #749D2C",
"%. c #759E2D",
"&. c #719B2E",
"*. c #608E31",
"=. c #608F32",
"-. c #619132",
";. c #659231",
":. c #669230",
">. c #679530",
",. c #649030",
"<. c #689130",
"1. c #6A9730",
"2. c #689430",
"3. c #6B9830",
"4. c #77A02C",
"5. c #77A22D",
"6. c #77A32E",
"7. c #75A02D",
"8. c #79A12B",
"9. c #7CA32A",
"0. c #7FA529",
"q. c #7FA629",
"w. c #7DA52A",
"e. c #7EA52A",
"r. c #7DA62B",
"t. c #7EA72B",
"y. c #78A42F",
"u. c #7BA52F",
"i. c #7BA62F",
"p. c #7CA52C",
"a. c #79A12C",
"s. c #7AA532",
"d. c #7DA931",
"f. c #83A827",
"g. c #83A927",
"h. c #84A927",
"j. c #85A927",
"k. c #85AA26",
"l. c #84AA27",
"z. c #85AA27",
"x. c #87AB26",
"c. c #86AB27",
"v. c #86AB26",
"b. c #87AC26",
"n. c #86AC27",
"m. c #86AD27",
"M. c #87AD27",
"N. c #86AB26",
"B. c #88AC26",
"V. c #88AD26",
"C. c #88AE26",
"Z. c #89AE26",
"A. c #88AF27",
"S. c #81A728",
"D. c #80A729",
"F. c #80A629",
"G. c #82A828",
"H. c #83A828",
"J. c #82A928",
"K. c #83A928",
"L. c #83AB29",
"P. c #84AB28",
"I. c #82AD2E",
"U. c #85AF2D",
/* pixels */
"                            x O.O.x                             ",
"                          ^ u.C.C.u.^                           ",
"                        ` U.n.0.S.j.I.^                         ",
"                      0 d.J.j.n.n.j.C.s.+                       ",
"                    d  .0.$.@.$.&.$.j.$.v f                     ",
"                  z #.n.#.@.:.*.:.8.#.&.p. .c                   ",
"              d _ u.n.J.J. . .J.J.J.{ 9.j.S.u.( %               ",
"            a ..0.j.S.S.J.@.0.j.J.j.@.#.C.J.n.&.!               ",
"            ^ J.j.J.j.n.@.&.n.S.J.J.J.*.&.g.j.0.T y             ",
"          r ' 4.J.0.#.@.) &.n.S.S.g.0.} _ 4.0...T P             ",
"          V P Y } } ( Y ` } $.j.j.g.-.I K T T G H J P j         ",
"        D #.#.E Y Y Y _ _ I { >.#. ._ K H H H H T ` K U y       ",
"      Z @.n.C.#.) 1.&.&.3.T K _ _ ( K K K K H E { { { L P       ",
"    h <.P.J.P.#.&.j.j.j.C.:.G L J K T { ` K H K { { { T J y     ",
"    C &.C.8.[ @.C.S.S.S.J.4.{ { ` ` { { { ` K K ` { { I J F     ",
"    y W +.R N @.j.S.J.S.j.&.{ } { { { { { { K H H T ` K J Z     ",
"    h T F I P @.n.S.J.g.j. .{ ` I { { { { { K H K B B B C h     ",
"  y } &.$.| Y o.J.j.j.g.&.{ { ` b ` { { { { K H C Z Z i u a     ",
"  ^ &.j.n. .{ N ] 4.&.X.{ { } I P L ` } } T J Z q H J J K C s   ",
"l { a.n.g. .{ G N Y Y Y E E I V u Z A P P N C t t P K H J H k a ",
"c { :.&.1.{ { } u r M N N i y q q q i i u u q q q C J H H J p s ",
"S } { _ _ { } _ u x ~ Q C q q t t G _ _ _ Y A i q q C H J J i s ",
"r T | { { { } G _ } } } } F i q D } } } } } L A q q f u C V t h ",
"  e Y } } E L ` } { { { { T A q _ } { { { { K H q f s k k k h s ",
"    e S P P P ` { { { { { T J N / } { } { { K B q f = s s f     ",
"      * e f e T { { { { { L H i p } { { { T J p f s             ",
"              l I E E E L P u d q D E E E J Z t k               ",
"                i P Z Z i f e 3 n d p B B B k f                 ",
"                  a 2 n m 6 7 9 9 m & e g f f                   ",
"                  - 7 9 1 > 5 7 9 5 : 7 1 8                     ",
"                      w @ ; , < 6 4 .   X o                     ",
"                            O # $ $                             "
};
