/* XPM */
static char *_4283f8a599a487fd6ff3104c738b19djny7HOVOnUS9H7bw[] = {
/* columns rows colors chars-per-pixel */
"32 31 160 2 ",
"   c None",
".  c #3D2B1F",
"X  c #273D1E",
"o  c #3B311E",
"O  c #3F2E20",
"+  c #263A2F",
"@  c #333E21",
"#  c #3D3E2C",
"$  c #2C3F34",
"%  c #451F1D",
"&  c #4E2C23",
"*  c #522823",
"=  c #592E22",
"-  c #483522",
";  c #443A22",
":  c #4C3D23",
">  c #423D2B",
",  c #4B3F2A",
"<  c #533224",
"1  c #5C3622",
"2  c #553A24",
"3  c #5A3A23",
"4  c #503429",
"5  c #613E21",
"6  c #2B432F",
"7  c #2D4C2F",
"8  c #33452E",
"9  c #3A462C",
"0  c #324D2E",
"q  c #3A4A2D",
"w  c #34512E",
"e  c #3B542C",
"r  c #35582F",
"t  c #3E592D",
"y  c #274631",
"u  c #2D4631",
"i  c #254A30",
"p  c #2E4A31",
"a  c #2A413E",
"s  c #314731",
"d  c #314E32",
"f  c #2F5634",
"g  c #325133",
"h  c #3C5330",
"j  c #325833",
"k  c #3E5B31",
"l  c #3C6933",
"z  c #46422C",
"x  c #475427",
"c  c #495526",
"v  c #4D5D26",
"b  c #43552B",
"n  c #445A2B",
"m  c #495C29",
"M  c #515E25",
"N  c #535F2A",
"B  c #435E30",
"V  c #47642D",
"C  c #4D652A",
"Z  c #4C6C2D",
"A  c #566424",
"S  c #586523",
"D  c #566926",
"F  c #586A25",
"G  c #52642A",
"H  c #596729",
"J  c #536C29",
"K  c #4E742E",
"L  c #53742C",
"P  c #547A2E",
"I  c #426431",
"U  c #436B32",
"Y  c #4E6F30",
"T  c #407335",
"R  c #4C7532",
"E  c #467833",
"W  c #4B7D33",
"Q  c #507732",
"!  c #517E31",
"~  c #5D802E",
"^  c #4E8335",
"/  c #528433",
"(  c #5B8432",
")  c #518835",
"_  c #5C8C33",
"`  c #688327",
"'  c #64832C",
"]  c #63892E",
"[  c #6C962E",
"{  c #6E992E",
"}  c #739C2C",
"|  c #739F2D",
" . c #719C2F",
".. c #739D2E",
"X. c #729E2F",
"o. c #719D2D",
"O. c #749E2D",
"+. c #739C2D",
"@. c #608F31",
"#. c #638F31",
"$. c #618E33",
"%. c #619032",
"&. c #659030",
"*. c #659230",
"=. c #679530",
"-. c #659230",
";. c #6B9830",
":. c #6C9930",
">. c #759E32",
",. c #77A12D",
"<. c #75A02F",
"1. c #77A12E",
"2. c #77A32E",
"3. c #78A02B",
"4. c #7BA32A",
"5. c #7DA32B",
"6. c #7FA529",
"7. c #7EA529",
"8. c #7EA52A",
"9. c #7FA72A",
"0. c #7AA32D",
"q. c #7CA72E",
"w. c #7DA42A",
"e. c #7EA82E",
"r. c #7DA930",
"t. c #83A827",
"y. c #83A927",
"u. c #84A926",
"i. c #84A927",
"p. c #85A927",
"a. c #85AA26",
"s. c #84AA27",
"d. c #85AA27",
"f. c #85AB27",
"g. c #86AA26",
"h. c #86AB26",
"j. c #87AB26",
"k. c #86AB27",
"l. c #85AC27",
"z. c #86AC26",
"x. c #87AC26",
"c. c #87AD26",
"v. c #87AC27",
"b. c #86AD27",
"n. c #85AA26",
"m. c #88AE25",
"M. c #88AD27",
"N. c #81A728",
"B. c #80A729",
"V. c #80A629",
"C. c #82A728",
"Z. c #81A829",
"A. c #82A828",
"S. c #83A828",
"D. c #83A928",
"F. c #83AA29",
"G. c #84AA28",
"H. c #84AC28",
"J. c #87AE28",
"K. c #86AF2C",
/* pixels */
"                            U ] ]                               ",
"                          Q q.m.z.,.U                           ",
"                        ~ K.k.6.B.k.e.U                         ",
"                      j r.A.k.z.k.k.H.>.                        ",
"                    f #.4.} [ } } O.A.} T p                     ",
"                  U } G.{ [ *.#.[ 4.[ } 0._ l                   ",
"                / q.k.A.B._ #.A.A.6.( 5.k.6.,.Y                 ",
"              _ 6.k.B.B.B.{ 6.k.A.A.[ { k.A.H.[ B               ",
"            R A.k.A.k.k.[ } z.B.A.A.B.%.} y.k.0.P 9             ",
"          q ( ,.A.5.{ *.W } k.B.B.y.4./ ! ,.4._ L N             ",
"          b G P / / R K ! ( ,.k.k.6._ J A P L J A S G q         ",
"        C [ [ P K K K W W J / =.[ _ W A A A A A L ! D H q       ",
"      G [ m.z.:.^ ;.} } [ L D W W K D A A A A P ^ ^ / F G       ",
"    h [ G.A.A.[ } k.k.k.k.#.Z F S A P ^ P A A J ^ ^ ^ L S q     ",
"    C } z.O.] [ z.B.B.B.B.O.^ ^ ! ! ^ ^ ^ ! A D ! ^ ^ J S m     ",
"    b ~ ] J v [ k.B.A.B.A.{ ^ / ^ ^ ^ ^ ^ / D A A L P A S m     ",
"    e L C J J [ z.B.A.y.B._ ^ ! L ^ ^ ^ ^ / D A A v v v n 8     ",
"  h ( } } ) P ` B.k.y.B.[ ^ ^ P S ! ^ ^ ^ ^ D A n m m e w y     ",
"  R } k.k._ W v ' O.{ _ ^ ^ ! J A F ! / / L S n 0 S S S A n u   ",
"B / 0.k.6._ W Z n K K K P P J b e m M G C x b 0 w A A A S A g 6 ",
"U ) *.{ *.^ ^ / e 9 x c x e 0 7 7 0 t e e w 7 7 0 n S S A A t y ",
"I / ^ W W ^ ^ E r l U I t 7 7 0 0 Z W W W K v e 7 0 m A S A e 6 ",
"q P ) ^ ^ ^ ! Z W ) ) ) ! C e 7 V / ) ) ) / F v 7 7 p e n b 0 p ",
"  q K / / L J ! ) ^ ^ ^ ^ L M 0 W ) ^ ^ ^ ^ D M 7 u p g g g d   ",
"    0 B G G G ! ^ ^ ^ ^ ^ J S n R ) ^ / ^ ! A m 7 p $ u u u     ",
"      + 6 u q P ^ ^ ^ ^ ! S A e n / ^ ^ ^ L A t p a             ",
"              k J P P L D v w i 7 V P P P S m 0 g               ",
"                b G m n e p 9 , z 7 t v v m g p                 ",
"                  $ > z , 2 3 5 3 , # 8 s 6 u                   ",
"                  % 3 5 : = 1 3 5 1 * 3 : 4                     ",
"                      @ O & - ; 2 < .   X o                     "
};
