/* XPM */
static char *c71089d060074c8fa6b960f97fbbfe73cfj1ChmioxVO9oQr[] = {
/* columns rows colors chars-per-pixel */
"55 67 11 1 ",
"  c None",
". c #40221F",
"X c #552E23",
"o c #603E21",
"O c #164120",
"+ c #304D2E",
"@ c #2B4132",
"# c #3C6730",
"$ c #566424",
"% c #4F8334",
"& c #82A828",
/* pixels */
"                         @@@@@                         ",
"                        @%&&&%@                        ",
"                       @%&&&&&%@                       ",
"                      @%&&&&&&&%@                      ",
"                     @%&&&&&&&&&%@                     ",
"                    @%&&&&&&&&&&&%@                    ",
"                    @&&&&&&&&&&&&%@                    ",
"                   @%&&&&&&&&&&&&&@                    ",
"                   @%&%&&&&&&&&&&&%@                   ",
"                  @%%&&%%&&&&&&&&&%%@                  ",
"                 @%&&&&&%%%%%%%&&%%%%@@                ",
"               @@%&&&%%&&%%%%&&&%&&&%%%@               ",
"              @%%&&&&&%%%&&&&&&%%&&&&%%%@              ",
"             @%%&&&&&&&%%%&&&&&%%&&&&&&%$@             ",
"            @%%&&&&&&&&%%&&&&&&%%&&&&&&&%$@            ",
"           @%%&&&&&&&&&%&&&&&&&&%&&&&&&&%$@            ",
"           @%&&&&&&&&&%&&&&&&&&&%%&&&&&&&%$@           ",
"          @%&&&&&&&&&&%&&&&&&&&&&%&&&&&&&%$@           ",
"          @%&&&&&&&&&%%&&&&&&&&&&%%%&&&&&%$$@          ",
"         @$%&&&&&&&&%%%&&&&&&&&&&%%%&&&&%%$$@          ",
"         @$%%&&&&%%%%%%&&&&&&&&&%%$%%&&%%%$$$@         ",
"         @$$%%%%%%%%$%%%&&&&&&&&%$$$%%%%%$$$$$@        ",
"        @$$$$%%%%%$$%%$%%&&&&&&%%$$$$$$$$$$$$$$@       ",
"       @$%%%$$$$$$$%%%$%%%&&&&%%%$$$$$$$$$$%$$$$@      ",
"      @$%&&&%%%%%%%%%%$$%%%%%%%%$$$$$$$$$$%%%$$$$@     ",
"     @$%&&&&&%%%%%%%%%%$$%%%%%%%$$$$$$$$%%%%%%$$$@     ",
"    @$$%&&&&&%%%&&&&&&%$$$%%%%$$$$$$$$$$%%%%%%%$$$@    ",
"    @$%&&&&&&%%&&&&&&&&%$$$$$$$$$%%$$$$$$%%%%%%$$$@    ",
"    @%&&&&&&&%&&&&&&&&&%%$$$$$$%%%%%$$$$$%%%%%%$$$@    ",
"   @$%&&&&&&%&&&&&&&&&&%%%%%$$%%%%%%%$$$$%%%%%%$$$$@   ",
"   @$%&&&&%%%&&&&&&&&&&&%%%%%%%%%%%%%%$$$%%%%%%$$$$@   ",
"   @$%&&&%$$%&&&&&&&&&&&%%%%%%%%%%%%%%$$$$$%%%%$$$$@   ",
"    @$%%%$$$%&&&&&&&&&&%%%%%%%%%%%%%%%$$$$$$%%$$$$$@   ",
"    @$$$$$$$%&&&&&&&&&&%%%%%%%%%%%%%%%$$$$$$$$$$$$$@   ",
"    @%$$$$$$%&&&&&&&&&&%%%%$$%%%%%%%%%$$$$$$$$$$$@@    ",
"   @$%%%%%%$%&&&&&&&&&%%%%%$$%%%%%%%%%$$$$$+++++++@    ",
"  @$%%&&%%%$$&&&&&&&&&%%%%%$$$%%%%%%%%$$$$+$$$+++++@   ",
"  @%%&&&&%%%$$&&&&&&&%%%%%%$$$%%%%%%%%$$$++$$$$$$+++@  ",
" @$%&&&&&%%%$$$&&&&%%%%%%%$$$$$%%%%%%$$$$++$$$$$$$++@  ",
" @%%&&&&&%%%$+$%%%%%%%%%%$$+$$$$%%%%$$$$+++$$$$$$$$++@ ",
"@$%%&&&&&%%%$+$$%%%%%%%%%$$++$$$$$$$$$$++++$$$$$$$$++@ ",
"@%%%&&&&&%%%%$+$$$$$$$$$$$+++++$$$$$+++++++$$$$$$$$$++@",
"@%%%&&&&%%%%%%+++$$$$$$+++++++++++++++++++++$$$$$$$$++@",
"@%%%%%%%%%%%%%++++++++++++++++++++++++++++++$$$$$$$$++@",
"@%%%%%%%%%%%%%++++++++++++++++$%%%%%%$$++++++$$$$$$$++@",
"@$%%%%%%%%%%%+++%%%%$$+++++++$%%%%%%%$$$++++++$$$$$$++@",
"@$%%%%%%%%%%%+%%%%%%%%$++++++%%%%%%%%%$$$+++++++$$$+++@",
" @$%%%%%%%%%$%%%%%%%%%%$$+++$%%%%%%%%%$$$+++@+++++++++@",
" @+$%%%%%%%$$%%%%%%%%%%$$+++%%%%%%%%%%$$$+++@@++++++++@",
"  @+$%%%%$$$%%%%%%%%%%%$$$++%%%%%%%%%%$$$+++@@+++++++@ ",
"  @++$$$$$$$%%%%%%%%%%%$$$++%%%%%%%%%%$$$+++@@@+++++@  ",
"   @+++$$$$$%%%%%%%%%%%$$$$+%%%%%%%%%%$$$+++@@@@@@@@   ",
"    @@++++++$%%%%%%%%%%$$$$+$%%%%%%%%$$$++++@          ",
"      @@@@@@$%%%%%%%%%$$$$+++%%%%%%%%$$$+++@           ",
"           @$%%%%%%%%%$$$++++$%%%%%%$$$$+++@           ",
"            ++$$%%%%$$$$++++++$%%%%%$$$++++@           ",
"            @+$$$$$$$$$++++@+++$$$$$$$++++@            ",
"             @+$$$$$$++++@@X@+++$$$$$$+++@             ",
"              @+++++++@@@oooo@++++++++++@              ",
"               @@@@@@@oooooooo@@+++++++@               ",
"                 .ooooooXooooooXX@@@@@@                ",
"                .ooooOXXXoXoooX.XoooX.                 ",
"                ...ooOXXXoXoooX.XXoOXX.                ",
"                  #.OX.XXXOoXXX.. .OO..                ",
"                   OO..XO.OXOXXOO OO                   ",
"                       .O.OXOXO##                      ",
"                        O O.OO                         "
};
