/* XPM */
static char *d76dc203e20b4802df4fb1d66c554b0aPT25olxBcRFUtuPF[] = {
/* columns rows colors chars-per-pixel */
"63 52 241 2 ",
"   c None",
".  c #000001",
"X  c #00000C",
"o  c #0D0007",
"O  c #000013",
"+  c #00001C",
"@  c #0B031C",
"#  c #12061D",
"$  c #3B0000",
"%  c #010222",
"&  c #0D0424",
"*  c #040C24",
"=  c #120621",
"-  c #1B0D23",
";  c #13022B",
":  c #1A0828",
">  c #091626",
",  c #181727",
"<  c #170934",
"1  c #240E25",
"2  c #2B1B27",
"3  c #261928",
"4  c #261C33",
"5  c #310F29",
"6  c #1E2531",
"7  c #2B2229",
"8  c #292229",
"9  c #2A2733",
"0  c #332335",
"q  c #3B243B",
"w  c #322D3A",
"e  c #372A38",
"r  c #35333C",
"t  c #39333C",
"y  c #363236",
"u  c #32212F",
"i  c #4A2A3B",
"p  c #4C313D",
"a  c #41323F",
"s  c #68363C",
"d  c #3B3543",
"f  c #3E3843",
"g  c #373140",
"h  c #2D3041",
"j  c #462B42",
"k  c #4A3444",
"l  c #433B43",
"z  c #483849",
"x  c #523B4C",
"c  c #543948",
"v  c #493D51",
"b  c #593C54",
"n  c #613E4E",
"m  c #4B444B",
"M  c #4F4A4E",
"N  c #57444A",
"B  c #58464D",
"V  c #574C54",
"C  c #545052",
"Z  c #5A575A",
"A  c #534D51",
"S  c #6D455B",
"D  c #684857",
"F  c #754B59",
"G  c #76545D",
"H  c #6E5151",
"J  c #716058",
"K  c #635C62",
"L  c #7A5566",
"P  c #754D66",
"I  c #5E6060",
"U  c #6C696B",
"Y  c #6A6568",
"T  c #726D6D",
"R  c #796868",
"E  c #766F72",
"W  c #797577",
"Q  c #79716F",
"!  c #864E5D",
"~  c #88625E",
"^  c #834963",
"/  c #835365",
"(  c #8C556A",
")  c #865969",
"_  c #925A6D",
"`  c #92546C",
"'  c #8A5B77",
"]  c #955E71",
"[  c #A8576F",
"{  c #8C646E",
"}  c #856B6C",
"|  c #91636C",
" . c #986969",
".. c #82716D",
"X. c #857C6D",
"o. c #946A73",
"O. c #9B6D74",
"+. c #976778",
"@. c #857A78",
"#. c #9D7279",
"$. c #9C7779",
"%. c #886570",
"&. c #A66D77",
"*. c #B9617D",
"=. c #B6697E",
"-. c #A8777B",
";. c #B37373",
":. c #A8686B",
">. c #C66A7C",
",. c #CB7772",
"<. c #8B857C",
"1. c #9B847C",
"2. c #A4857B",
"3. c #D08579",
"4. c #9C6882",
"5. c #897F80",
"6. c #A56C87",
"7. c #A57284",
"8. c #AC7584",
"9. c #AB7985",
"0. c #A87689",
"q. c #B47584",
"w. c #B67988",
"e. c #B36F87",
"r. c #C86C80",
"t. c #C77A87",
"y. c #898484",
"u. c #9B8682",
"i. c #9B918B",
"p. c #9C9594",
"a. c #AC8B84",
"s. c #A78486",
"d. c #BD8684",
"f. c #B38C8C",
"g. c #BD8C8D",
"h. c #B68A84",
"j. c #A8988B",
"k. c #B3948B",
"l. c #B9988D",
"z. c #BB8995",
"x. c #A69C93",
"c. c #A99C95",
"v. c #A29693",
"b. c #BA9392",
"n. c #BB9B93",
"m. c #B29F99",
"M. c #A8A194",
"N. c #A8A196",
"B. c #B7A79A",
"V. c #BFB4A7",
"C. c #B6ABA4",
"Z. c #C4818B",
"A. c #CD858C",
"S. c #C48D8C",
"D. c #CC8B8C",
"F. c #CE8584",
"G. c #D28C8E",
"H. c #D7868C",
"J. c #C8998C",
"K. c #D8948A",
"L. c #CB8493",
"P. c #CE8C92",
"I. c #C78997",
"U. c #D38694",
"Y. c #D28B93",
"T. c #DB8B94",
"R. c #D58D9B",
"E. c #DD8D9A",
"W. c #CD9395",
"Q. c #CB9498",
"!. c #D39294",
"~. c #DB949A",
"^. c #D89996",
"/. c #F88D8B",
"(. c #E9978A",
"). c #F99D8C",
"_. c #EB9C95",
"`. c #E39A98",
"'. c #F49C93",
"]. c #FE9D95",
"[. c #FF9F99",
"{. c #F39F98",
"}. c #E68C92",
"|. c #C8A799",
" X c #D4A39E",
".X c #D5A69C",
"XX c #E5A49B",
"oX c #FDA495",
"OX c #FFA29B",
"+X c #FEAC9C",
"@X c #F8A697",
"#X c #FEB19D",
"$X c #F2B49C",
"%X c #D597A1",
"&X c #CA93A0",
"*X c #F19EA0",
"=X c #DAA5A3",
"-X c #DAA9A3",
";X c #C4B4A7",
":X c #DBB5A8",
">X c #E2ABA3",
",X c #E6A8A6",
"<X c #FEAAA1",
"1X c #E4B4AC",
"2X c #E8B9AC",
"3X c #FCB4A3",
"4X c #F7B9A9",
"5X c #E8BAB1",
"6X c #D4C5B4",
"7X c #D9CCBB",
"8X c #D8C7B6",
"9X c #DFD1BE",
"0X c #CDC4B3",
"qX c #EECDB9",
"wX c #E7C7B5",
"eX c #F7CBB8",
"rX c #EAD5BF",
"tX c #F2D1BC",
"yX c #FAD7BD",
"uX c #F8C0AB",
"iX c #EBD9C3",
"pX c #E6D7C4",
"aX c #F5D4C2",
"sX c #F3DAC4",
"dX c #FADCC3",
"fX c #F9DCC9",
"gX c #F6CCC0",
"hX c #FBE2C6",
"jX c #F5E4CB",
"kX c #FCE5CA",
"lX c #FFEBCD",
"zX c #FBE6C4",
"xX c #FFF2CE",
"cX c #FBE6D0",
"vX c #F5EAD5",
"bX c #FFEDD1",
"nX c #FBECD7",
"mX c #FFF1D4",
"MX c #FFF4DB",
"NX c cornsilk",
"BX c #FCF1E2",
/* pixels */
"                                                    m 4 , , > % + % % % X r                                 + > > , > O 9     ",
"                                                    h + j q j v v v v v z V W W W W T T T T U               l l l z x j K     ",
"                                                l 9 x ( e.=.f.n.n.n.n.b.n.$.. . . . . . . . . . . . . . $.b.f.f.b.f.s.q.G 6 t ",
"                                                w . ) w.=.[ w.n.n.n.n.n.n.1.K c.N.M.M.M.M.M.x.x.x.x.i.i -.Q.g.g.g.^.,X_.:.. 2 ",
"                                                t + / =.=.H.(.XXF.l.k.n.n.k.a.kXMXMXMXMXMXMXMXmXmXMXjX$.h.S.S.g.S.@X<XOX:.. 0 ",
"                                                g O / =.r.<XOXOX'.J.|.2.l.sXsXkXlXlXlXlXlXlXlXbXbXbXlXcXqX.Xh.d._.oXoX+X;.. 0 ",
"                                                g O ( =.r.[.].].].'.qX1.j.bXbXlXlXlXbXbXbXbXbXbXbXbXbXbXMXiX~ d._.+XoX+X;.. 0 ",
"                                                g X ( *.r.[.].].].).K.kXbXlXlXlXlXlXbXbXbXbXbXbXbXbXbXbXbXcXrX'.(.H.'.OX;.. 2 ",
"                                                f X ` *.r.OXoX[.].eXhXlXlXlXlXlXlXlXbXbXbXbXbXbXbXbXbXbXbXmXbXyX;.. _.3X;.. 2 ",
"                                                f X ` *.r.OXOX[./.eXbXlXlXlXlXlXlXlXbXbXbXbXbXbXbXbXbXbXbXbXbXMX6Xj.J.K.:.. 3 ",
"                                                f X ` *.>.]./.4XdXhXlXlXlXlXlXlXlXlXlXbXbXbXbXbXbXbXbXbXbXbXbXlXmXMXJ $ ! O - ",
"                                                d X ` *.>.'.{.tXmXlXlXlXlXlXlXlXlXlXlXlXbXbXbXbXbXbXlXbXbXbXlXlXlXlXwXh.c @ - ",
"                                                d . ( *.>.}.dXlXlXlXlXlXlXlXlXlXlXlXbXbXbXbXbXbXbXbXbXbXlXlXlXlXlXbXlXJ.. 3 = ",
"                                                d O / =.~.eXkXlXlXlXlXlXlXlXlXlXbXbXbXbXbXbXbXbXbXbXbXbXlXlXlXlXlXbXhXtXc.. 3 ",
"                                                f . 8.U.1XbXlXlXlXlXlXlXlXlXlXlXbXbXbXbXbXbXbXbXbXbXbXbXbXlXlXlXlXlXlXMX7X. 8 ",
"                                                d . 9.U.1XlXlXlXlXlXlXlXlXlXlXlXbXbXlXbXbXbXbXbXbXbXbXbXbXbXlXlXlXlXlXmX6X. 7 ",
"                                                g . 8.U.1XbXlXlXlXlXlXlXlXlXlXlXlXbXbXbXlXbXbXbXbXbXbXbXbXlXMXmXlXlXlXMX8X. 8 ",
"                                                d . 9.U.1XbXlXlXlXlXlXlXlXlXlXlXMXpXC C.NXlXbXbXbXbXbXbXmXkX<.i.MXmXlXMX8X. 8 ",
"                                                g . 9.U.1XbXlXlXlXlXlXlXlXlXlXxXpXW . d C.bXlXbXbXbXbXbXbXx.. < p.iXlXmX8X. 7 ",
"                                                w X 9.U.1XlXlXlXlXlXlXlXlXlXlXMXV.. l . T MXlXbXbXbXbXmXjXa % 9 . 7XmXmX6X. 7 ",
"                                                w X 8.U.1XlXlXlXlXlXlXlXlXlXlXMX;X. t . @.MXbXbXbXbXbXmXcXK + w + 7XmXmX6X. 7 ",
"                                                w X 7.U.5XkXkXlXlXlXlXlXlXlXlXmX;X. O . Q MXbXbXbXmXbXmXcXA . O . 7XmXmX6X. 7 ",
"                                                w . 7.R.=X1XdXlXlXlXlXlXlXlXlXmX6XY W Y v.nXbXbXbXjXcXmXcX5.Y Y v 9XmXmX8X. 8 ",
"                                                w . 7.R.L.G.gXkXlXlXlXlXlXhXkXkXkXcXcXnXnXnXbXMXpX4 v.MXbXvXnXvXvXcXkXlX6X. 8 ",
"                                                    0.%XP.Y.~.,XlXlXlXlXhX3X3X3X3X+XyXmXbXMXpXpXpX. y.BXc.jXMXkXyX4X+X#X^.+ 3 ",
"    Z C C C C C C C M                             Z D L w.U.U.~.2XdXmXlXeX+X+X+X+X+X#XdXbXMX0X. A . = U . 6XNXeX).oXoX).`.+ 3 ",
"    & . . . . . . . .                       . . . . . . q.E.L.P.T.2XaXeX,X+X#X+X+X+XoXyXMXbXcXc.<.;Xm.<.V.vXMXeXoX+XoX(.d.+ o ",
"U K L R ............} B C                 B.B.B.B.x.L e D +.L.A.~.T.H.T.*X+X+X+X+X+XoXyXbXbXbXNXNXMXMXNXNXMXMXfXoXoX#X3.. z Z ",
", @ { { a.B.n.n.n.l.l.B X m           y . 9XNXmXMXfXw.t . z I.L.U.Y.E.T.}.<X+X+X+X+XuXlXbXbXnXnXMXnXbXbXbXbXbXdX@XoX+X;.X K   ",
", : L ^ s.n.k.k.k.k.h.f.R . m         8 . ;XmXkXlXkX X_ D k F n &.`.E.E.E.`.XX`.`.`.fXbXcXcXcXbXbXcXcXlXbXhX2X$X(.,.s 2 I     ",
"3 : L / s.b.k.k.k.k.k.k.a.u.z 6 l M z @.6XiXlXlXlXbXaXt.^ 0 . . ) L.Z.Z.Z.w.W.,X`.XX>X>X>X>X>X>X-X>X>XXX>X XH  . .F , y       ",
", & L / _ o.| | k.k.k.k.k.k.@.Q - = . u.MXlXlXlXlXlXlXdX8XO.&.8.B . O X O . G 9.-.-.#.#.O.O.O.O.O. . . .O.{ * O O *           ",
"w 0 L ) | +.o.| a.f.a.a.a.a.a.a.0 O m.8XlXlXlXlXlXlXlXlXkXS.A.Y.| H G G G / 0 . . . . . . . . . . . . X .                     ",
"    b j x x c c ) _ ( ( ( | #.) 1 ; sXmXlXlXlXlXlXlXlXlXlXhX5Xt.Y.!.!.!.!.~.9.{ o.o.o.O.O.#.#.k & m                           ",
"    r + * % % + ) ] _ _ _ ( ( ( 1 ; rXlXlXlXlXlXlXlXlXlXlXxXkX-XG.D.!.!.!.!.!.!.!.!.!.!.^.~.~.c +                             ",
"              @.P S S S S S D D - ; iXlXlXlXlXlXlXlXlXlXlXlXlXlXdX2XG.D.Y.!.G.D.P.P.G.G.!.!.P.p +                             ",
"                w . + + + + + O + : iXlXlXlXlXlXlXlXlXlXlXlXlXlXlXbXaX1X X!.D.D.D.D.D.D.D.G.W.p %                             ",
"                l l l l l l f M , : iXlXlXlXlXlXlXlXlXlXlXlXlXlXlXlXlXlXkXdXtXtXtXqXqXqXqX1XP.c >                             ",
"                                t ; iXlXlXlXlXlXlXlXlXlXlXlXlXlXlXlXlXlXlXbXbXbXbXbXlXlXmXwXt.5 .                             ",
"                                t ; iXlXlXlXlXlXlXlXlXjXjXlXlXlXkXkXlXjXsXfXlXlXlXlXlXlXlXqX.Xu.<.E Y                         ",
"                                9 ; iXlXlXlXlXlXlXlXmXB.{ -X.X=X-X=X1X$.n W.1XqXsXlXkXlXlXlXlXlXMXc.. y.                      ",
"                            w & #.8.sXlXlXlXlXlXlXlXMXB.F =XQ.Q.Q.W.%X%.i R.A.A.5XbXlXlXlXlXlXhXlXpX@.y.U                     ",
"                            y % w.A.tXkXlXlXlXlXlXlXaXk.. V N N N N B e u D &.!.=XwXyXyXkXkXlXlXlXlXMXQ . m                   ",
"                            y + q.A.D.:XbXlXlXlXhXyXg.G . O . . . . . X # . D w.t.F.G.2XlXlXlXlXlXzXlX@.. M y.                ",
"                            t + q.A.A.W..X XqXhX:XS.G a   l k 7.7.#.#.+.0 # @ q w.L.t.,XaXhXkXlXlXlXlXwX|.J .                 ",
"                            t O q.A.P.P.Z.t.Z.d.| a y       3 ) 8.q.w.8.q . 0 0 b F ) / F b.:XwXrXhXzXxXxXX..                 ",
"                            t X -.A.Y.Y.P.!.-./ D             . a 8.q.6.q . b 4.j . . + . ' ' ' I.1X2XwXwXG .                 ",
"                            t X &.A.Y.Y.O.o.V .                 2 c &.e.q . b 6.P # 3       . D 7.4.I.R.R.b O                 ",
"                            y . &.Z.P.z.O . &                     . D ) 4 . b 6.P = 3           . . s.&Xz.x .                 ",
"                                  j j e , 0                         O . & @ 4 k q @ -                     - #                 ",
"                                . . . O -                           - - = = @ . X + @                       #                 ",
"                                  p p                                         i p i                                           "
};
