/* XPM */
static char *_fdfb25d0ce24a6cd17d069ed9b266c4tVkIYgsIviLOdObK[] = {
/* columns rows colors chars-per-pixel */
"64 64 251 2 ",
"   c #5C1800",
".  c #7C0400",
"X  c #7A1A01",
"o  c #5A2C00",
"O  c #5B3907",
"+  c #6A2C04",
"@  c #7A2805",
"#  c #673507",
"$  c #763707",
"%  c #7E2E12",
"&  c #693A13",
"*  c #763815",
"=  c #7B3C1A",
"-  c #7F3F20",
";  c #374D0B",
":  c #3E5920",
">  c #366B2E",
",  c #4D4D12",
"<  c #5B4918",
"1  c #694713",
"2  c #664718",
"3  c #77441B",
"4  c #575826",
"5  c #674C24",
"6  c #794925",
"7  c #69552A",
"8  c #76562B",
"9  c #6E5B31",
"0  c #7A5C32",
"q  c #4F6E33",
"w  c #576732",
"e  c #676837",
"r  c #686C34",
"t  c #786738",
"y  c #76723C",
"u  c #4B7D41",
"i  c #6F7742",
"p  c #787844",
"a  c #8A0400",
"s  c #940100",
"d  c #9B0200",
"f  c #950B02",
"g  c #9C0C04",
"h  c #891905",
"j  c #971809",
"k  c #9B1B10",
"l  c #A50100",
"z  c #AB0101",
"x  c #AD0E08",
"c  c #A6160B",
"v  c #B1100B",
"b  c #A71D11",
"n  c #86250B",
"m  c #93250C",
"M  c #89330E",
"N  c #8C2411",
"B  c #872A14",
"V  c #982816",
"C  c #883718",
"Z  c #94331C",
"A  c #99331B",
"S  c #AA2617",
"D  c #B22B1C",
"F  c #A7321E",
"G  c #B0321F",
"H  c #893C23",
"J  c #993A22",
"K  c #9C3B23",
"L  c #A33C24",
"P  c #A93923",
"I  c #B33523",
"U  c #B33A25",
"Y  c #B43E28",
"T  c #87421C",
"R  c #91441C",
"E  c #844524",
"W  c #884A28",
"Q  c #984728",
"!  c #85562B",
"~  c #97532D",
"^  c #994E31",
"/  c #845D33",
"(  c #8A5A34",
")  c #9D5433",
"_  c #9B5B35",
"`  c #985A37",
"'  c #A4442B",
"]  c #AA472C",
"[  c #A34A2E",
"{  c #B4432B",
"}  c #B5482F",
"|  c #A5532E",
" . c #A84E31",
".. c #B54B31",
"X. c #B94B32",
"o. c #A45434",
"O. c #AB5435",
"+. c #A85937",
"@. c #A45C3B",
"#. c #AC5B3A",
"$. c #B85437",
"%. c #B35B3B",
"&. c #BB5C3D",
"*. c #8B6336",
"=. c #866639",
"-. c #8C6F3B",
";. c #8C6B3C",
":. c #956539",
">. c #9B643B",
",. c #9B6B3D",
"<. c #A4663E",
"1. c #B5613E",
"2. c #A2703F",
"3. c #8A6D42",
"4. c #976B43",
"5. c #8B7444",
"6. c #887848",
"7. c #9D7445",
"8. c #987749",
"9. c #947B4D",
"0. c #987D51",
"q. c #A86743",
"w. c #A36C43",
"e. c #BC6442",
"r. c #BA6B46",
"t. c #A3754B",
"y. c #A87549",
"u. c #A37B4C",
"i. c #B7734A",
"p. c #B37B4C",
"a. c #A67C51",
"s. c #AB7D52",
"d. c #B77C53",
"f. c #C16B48",
"g. c #C2734D",
"h. c #C17A4F",
"j. c #C67955",
"k. c #C47B54",
"l. c #548648",
"z. c #688849",
"x. c #79854B",
"c. c #718F53",
"v. c #799658",
"b. c #77A160",
"n. c #8A864D",
"m. c #95824D",
"M. c #8A8A55",
"N. c #9A8856",
"B. c #86985B",
"V. c #98965C",
"C. c #A4844D",
"Z. c #B1814D",
"A. c #A48454",
"S. c #AB8456",
"D. c #A88958",
"F. c #AB8C5C",
"G. c #B48354",
"H. c #B68856",
"J. c #B5855A",
"K. c #BA855B",
"L. c #B38B5C",
"P. c #BC8B5D",
"I. c #A9925D",
"U. c #B2925C",
"Y. c #BA945D",
"T. c #90A15C",
"R. c #889E61",
"E. c #9A9A62",
"W. c #AF8E61",
"Q. c #B58D60",
"!. c #BC8D61",
"~. c #AD9562",
"^. c #A89A65",
"/. c #B39463",
"(. c #BB9464",
"). c #B49866",
"_. c #BD9B64",
"`. c #B59C6A",
"'. c #BB9D6C",
"]. c #89A567",
"[. c #98A76A",
"{. c #9BAE71",
"}. c #9BB475",
"|. c #A6A66A",
" X c #B4A26C",
".X c #B9A46D",
"XX c #B0B36F",
"oX c #A8AB72",
"OX c #BCA372",
"+X c #B7AA75",
"@X c #A6B777",
"#X c #ABBB7C",
"$X c #B6B678",
"%X c #BABC7C",
"&X c #C4835B",
"*X c #C8845C",
"=X c #C0905E",
"-X c #C48D62",
";X c #CB8D64",
":X c #C39264",
">X c #C89668",
",X c #C39C6B",
"<X c #CB9C6D",
"1X c #D2976B",
"2X c #CF9E70",
"3X c #C4A36D",
"4X c #C8A46D",
"5X c #C3A372",
"6X c #CBA472",
"7X c #CCAA74",
"8X c #C7AC79",
"9X c #D2A474",
"0X c #D2AA76",
"qX c #D2AD7A",
"wX c #C8B47C",
"eX c #D4B37D",
"rX c #D6B47D",
"tX c #A7C17F",
"yX c #BAC17E",
"uX c #B9BD81",
"iX c #C4B981",
"pX c #D7B680",
"aX c #D5BA83",
"sX c #DABB84",
"dX c #ACC281",
"fX c #B5C786",
"gX c #BDC383",
"hX c #BCCB8A",
"jX c #BDD08E",
"kX c #C6C684",
"lX c #C3CD8C",
"zX c #CACD8B",
"xX c #DAC48A",
"cX c #CBD28E",
"vX c #D2D18D",
"bX c #CBCF91",
"nX c #C7D493",
"mX c #CBD493",
"MX c #D3D592",
"NX c #D5D995",
"BX c #D7DA97",
"VX c #DCDD9A",
"CX c #E0DF9C",
"ZX c #DEE09D",
"AX c #E1E19E",
"SX c #E4E5A3",
"DX c #E5E9A6",
"FX c #E7EAA8",
"GX c #EAECA9",
"HX c #EEF1AD",
"JX c #F0F4B1",
/* pixels */
"l I { g s X ` k.d.>.s w.r.*Xq.+ j d { ..z l b { S s X W g.g.i.J C 2.-X-XW h d G X.z z z U D s h 6 r.k.O.V j Q =X6Xt.X f g } S l ",
"b } 1.L Q 8 D.0X,Xu.J s.K.1XA.8 Q L e.e.{ D { e. .A E 4.>X>XH.) ^ p.;X<X=.Q L &.f.U U I &.$.L Q *.-X1Xp.~ K ,.6X0Xa.3 A P e.} S ",
"U &.k.O.) t `.xX4XU.Q S.,XsX X=.@.O.g.r.{ U &.h.e.o.( N.rXeX'.q.,.Y.aXsX6.>. .g.k.$...} k.f.+.@.9.eXrX_.,.o.C.qXrX~./ [ O.k.&.Y ",
"b ] 1.A Z 1 D.8XJ.8.a 4.y.6XD.1 B V o.' g g F O.J h * / ,X5XS.^ C 2.,X8X0 C j  .%.b j c %.} V B 0 K.&Xy.! N *.(.:X4.& N V %.] b ",
"s K o.j B # N.(.y.( . =.S.wXN.O B N [ [ j j A o.Z n & t .X.XN.W = ,.(.OX9 = n Q #.V k V <.o.B B 7 L.(.C.6 B =.L.Q.5.2 B Z <.L f ",
"@ E ( * & ; x.|.n.p o i B.#Xx.; # # ( ! @ $ 3 t 5 o ; q |.[.x.7 4 x.|.|.> < 2 8 :.C @ @ ;./ & < q [.oXn.4 2 w B.{.c.; 1 3 ;.6 h ",
"4.7.^.4.5.z.}.hX%X{.5.{.gXBX@Xc.N.N.).).a.4.t.~.A.9.M.].lXhX@X9.6.@XlXlX].N.*.A. XS.S.S..X).8.5.v.hXmX#XV.9.T.gXmX#Xv.N.D. XD.8.",
"g.1XeX-X(.|.nXHXVXzX).mXSXJXBX@XOX,XrXaX2X*X;XpXqXOX$XdXFXDXMX'. XcXDXDX#X/.Q.7XsX9X9XqXxXpX-X(.#XDXHXBXkX!.yXSXJXBX$X8XqXxX2X&X",
"r.=XqX(..X|.zXFXMXgXa.$XkXVXlX{.).P.6X<Xi.r.d.4X,XF.V.].BXMX%XI.|.kXVXVX{.^.).,XrX:XK.&X6X>Xp.F.[.BXCXkX Xy.%XvXAXgXV.L.J.4X=Xr.",
"~ s.U.7.m.x.].gXXXE.3.V.|.zX[.q =.! 7.u.>.` @.D.7.*.y c.yXgXoX9.-.V.XXyXv.y ! ,.u.>.,.~ A.s.*.;.c.gXlXXX[.*.V.kXzX{.y 4.,.F.7.~ ",
"V o.@.Q W 7 9.,Xa.9.. ( w.5XN.2 B B +.q.k s f ^ Z . + < L.'.A.E = :./.OXt 6 n ^ o.s s s o.L a X 2 u.J.S.8.. ! /.OX5.  . h Q V V ",
"h W w.C $ , M. X.X|.` [.XXuXM.4 $ T ` ,.n ) s.U.S.` 6.v.zXbX$X6.3.|.kXzXr 1 @ W S.q.@.q.!.P.u.9.B.%XzXiXoX4.[.%XzX{.i *.4.U.:.. ",
"q.Z.Y.u.N.x.XXBXkX$Xw.$XkXMX$Xz.A.D.Y.3XG.G.:X4X:Xy.N.[.VXVXkXI.D.yXBXVX[.N.>.H.3Xh.d.:XwX6X/.F.[.vXZXvX$XF.XXBXVX%XM.t.G.3Xp.| ",
">X0XaX5X(.[.nXJXVXzXQ.zXVXHXnX{.wX5XpXsX0XqX9XsX9X!.+XfXHXFXBX.X.XBXGXHXfX XK.9XrX*X>XqXxXsX5XQ.}.DXHXSXmX8XkXFXGXjXE.(.6XxX;X&X",
"K.,XwXS.s.M.hXDXvXgXS.kXvXDXmX}.`.P.7X7XL.a.s..XF.8.M.].mXBXzX`. XzXAXSX}.^.G.6XeX;X:X6XeX'.u.a.].nXDXlX|.V.@XmXBXdXE.`.D. XJ.&X",
"6 0 6.6 7 4 v.@X[.q 5 c.R.@X@Xu 4 8 6.5.3 + = 6.t 2 4 > {.{.B.t y R.{.}.u w 5 3.9.( ( ( 6.t 5 5 q {.#XR.r 4 z.].}.v.w 9 2 -./ E ",
"h Z ` N % O 6.F.D.8 X 3.D.+X^.7 @ B ^ Q j j k @.[ n 3 7 Q.J.0.W W 0.S.F.4 * h Q +.j h j [ [ B n 9 )./.t.! C *./.OXm.o n Z o.Z s ",
"s L O.a n # 4.d.y./ h 4.).8X).8 h N ' [ k j S #.[ j = 8 P.!.I.~ E u.J.!.7 * h ] %.S k b  . .V B 8 J.-Xy.! N *.'.5X8.+ B V O.L d ",
"{ e.r.] [ ! A.9XK.8.K :._.qX,X=.Q ] e.e.Y U &.k.&. .:.6.qXeX'.q.w.(.9X7X-.) ' r.&X&.{ U g.f. .@.3.'.pX(.7.o.C.qXqXD.! [ %.h.&.P ",
"$.r.k.%.@.*.~.rX,XD.[ 7.Y.eX6X5.)  .g.g.U I e.&Xe.O.:.n.xXsX3Xq.<.(.qXeX6.>.+.e.g.$.U X.k.r.[ +.5.,XrX_.7.q.D.eXrX^./ ' O.k.r.} ",
"z U { c m 3 @.*Xi.4.s @ +.k.%.6 j b $.X.z z U &.D g C *.qX6XH.^ Z 1.k.>X/ m g U X.S z z $.{ g m ! k.k.p.Q V >.:X;Xw.@ k S &.U z ",
"z D U g j $ q.*X%.~ s C #.*X` & k k X.U z z D ..S d M *.<X>Xi.K Z 1.;X6X! m d Y $.b z z $.X.g h W k.k.y.M m ~ >Xk.` @ g S &.U l ",
"x X.e.P K W a.2Xd.w.f q.k.1Xq.& V F &.&.I G Y &.} V Q ;.>X;Xi.' J p.2X>X*.~ L $.e.Y Y U e.&.P K *.>X<XH.~ o.S.6X1Xa.E L Y $.G z ",
"} f.&X#.@.=.~.sX4XU.[ G.4XsX~.-.o.O.g.i.&...$.k.e.o.,.N.eXeX_.q.w.3XrXqX9.w.O.r.k.&.&.$.k.k.%.@.5.7XsX_.t.i._.aXsX X:.<.r.&Xe.{ ",
"I $.e.L J 3 D.qX,XF.m S.:X9XF.9 J A O.1.S b F %. .J W 9.<X<XH.[ ` H.6X<X=.W V  .1.P S D e.e.L Z / /.qXL.` Q w.<X<XF.W L  .r.$.I ",
"d L [ j B O 0.5XL.8.a 8.y.-X8.O n N  .[ f s V o.J a + 0 P.(.A.W C w.K.J.5 % h Q +.V g j O.O.N h 0 .XOXD.= E 7.d.,X9.# N V #.P s ",
"n W :.* * ; M.$XV.y # y N.+XE.4 = = ( ! @ X Q >.W * < p +X+XE./ 8 m.^.^.w 5 @ W ,.Q N M :.` = & w E.|.n.5 6 n.oX+Xi < C T <.Q n ",
"0 9.N./ =.z.#XBXhXv.< z.B.}.v.> < 8 ^.N.~ W ;.m.t 7 w l.uX#X[.p w v.}.}.c.i 6.8.M.=.~ q.~.).3.5.v.fXnX#Xp 5.B.fXfXb.q 9 =.6.=.8 ",
";X9XsX:X'.{.mXJXMXgXOX$XMXFXBX{.~.(.aXeX*X:XeXsX>XH.V.hXFXDXBX'.`.cXFXDX#X+X!.<XpX;Xk.*XrXsX-X!.#XSXHXBX|.5XmXFXGXhX|.+X8XxXeX6X",
"k.9XaX5X+X@XbXGXvXgXOXoXzXDXVX@X.XOXqXeX2X<XeXrX:XG.V.hXFXSXBX'.^.zXDXFX#X|.!.<XeX*Xk.*XeXeX(.).}.VXDXzX|.OXmXSXDXfXV.(.6XsXqX;X",
"e.P._.D.0.x.@XMX$X|.7.M.XXvXkXB.0.u.Y.Y.p.i.H._.s.u.M.fXVXmXyXI.m.$XBXBX[.V.a.L._.d.d.d.3X_.A.m.B.zXBXyXV.^.XXzXvX@Xn.u./.5XP.q.",
"V o.w.W 6 4 M.$XI.y = y V.$X Xe 6 E >.>.Q Z ) w.~ E 8 M.+X`.N.( W A.iX+Xy ! H o.q.' L ' i.q.W E e OXwXI.0 =.n. X$XE.5 W ` y.o.A ",
"Q ) w.H W 7 E.8X~.;.@ N.U.$X.Xt E E @.w.K K @.y.` W 8 M.`.~.N.( 0 I.+X`.e 8 = ` w.Q R R ,.~ C 3 r +X$XN.t E 6.OXwXE.5 E E 4.) J ",
"d.G._.y.m.M.#XMXkX[.:.XXkXMXkXB.a.t.(..Xp.p.(.3XJ.D.V.#XBXcX%XI.V.$XcXMXv.5.>.H.,XG.p.i.Y.Y.w.7.B.cXMX%XV.8.[.vXVX#XM.7.y.Y.H.y.",
"-X-XeXOX'.E.hXSXMX#XF.kXMXDXBX@X(.J.eXaX6X2X0XsX>XJ.^.fXGXDXMX+X+XzXDXDX}. X(.qXsX1X;Xk.qX0X(.OX@XSXDXvX$XOX%XAXFXhXE.J.-XeX6X>X",
"-X>XeX'..X{.lXFXAXgX/.gXBXHXnX@X(.P.pXsX2X;X1XsX9Xd.E.hXGXDXBX8X+XMXGXFX@X+XOXeXaX;Xk.*XeXqXOX.X#XDXGXMXkX+XgXCXHXjXE.J.,XpX6X6X",
"E 5.m.0 e l.{.fXfX].p B.oXhX].q p 5.^.N.( ! ( N.N.8 q v.dX#X].p e B.{.dXl.e e 5.6.6 6 W 0.8.9 e l.dXhX{.c.t z.}.jX].q 7 t 8.*.8 ",
"% W :.= * , x.oX|.r # 6.^.$XM., * * >.` B n C >.W * < x.+X+XM.6 5 9.~.^.w 3 * ! :.N B m w.` * 3 w E.$XN.7 3 y N.^.n.< = E 2.Q n ",
"s K o.N B o N.8XH.*.. 8./.iXN.O B j O.' d g S O.K a + 3.OX'.:.B * >.P.(.8 n h ' O.c g d O.' h n 9 '.'.t.W N W d.!.9.+ h V o.L s ",
"S $.1.F Z 3 I.<X&XF.A F.3XsXW.8 Q ' r.1.P D X.r.O.Q T ~.qX6XL.^ ~ P.9X6X5.Q V %.r.D U Y r.&.K Q p 8X0XH.>.Q ,.<XeX~.6 K L e...G ",
"$.g.k.#.@.;. XaX7X).' P.7XsX).y o.%.k.g.X.Y f.&Xe.O.;.I.rX7XL.@.4.Y.sXaXn.<.#.g.k.$.$.$.&Xg. .` 9.aXsX,X4.+.C.qXxX.X;.o.%.&Xe.{ ",
"b ..e.P Q W a.;X&Xa.s q.d.1Xw.3 V S &.X.z v X.e.P V C :.&Xk.i.K Q p.<X;X=.J L $.f.D x v &.X.k V / <X1Xr.Q V @.1X9Xs.= A U e.U z ",
"l S U d f + q.k.i.7.s @.r.<Xt.# m b X.I z l U &.S f h / h.k.y.J M q.k.k.6 m d U X.z l z X.I g m 8 -Xk.%.C V ~ 6X1X` @ j S $.P l ",
"z D { j N $ S.6Xd.>.s @.J.pXF.$ V b X.I z l Y e.F j @ ` k.&Xi.K Z i.*Xk.6 m g { &.z x x X.Y g V W k.*X#.M m >.qX;X<.% k b &.Y z ",
"{ e.g. .) ;.).sX_.A.A F.5XxX`.=.o. .k.r.U ..r.k.1.[ *.N.eX8X'.q.>._.qXeX6.` [ r.k.$.} } k.f.+.<.5.qXrX(.7.o.C.sXpX/.*.+.%.k.r.{ ",
"U $.r.L Q ! ).qXY.7.m a.,XaX~.0 Q ' r.1.I U $.r.O.K W 9.qXqXC.o.` Y.9XqX6.~  .&.r.X.U I g.&.' ) 5.8XqXP.>.^ 7.6X0X/.:.O.$.k.&.I ",
"g L O.j n O 8.,Xy.( . 4.F.8XD.O n N [ [ g f V [ A h * 7 '.'.( C 3 2.!.'.9 n N ' o.g g g #.] h M 7 H.!.8.= C ;.J.K.8.* N V O.P g ",
"a K o.N n o 9.+XD.=.. 6.I.+Xn., * n ` _ h h j ` Q X * 4  X`.5.H 3 -..X$Xe 3 % ~ ` m m m >.~ C * w F.'.9.1 - ;.A.F.6.# B Z ` Q h ",
"W ;.6.7 5 : R.dX[.v.2 B.].}.].q 4 7 5.6.6 6 ! 9.=.7 w l.}.{.v.e e B.#X#Xl.w 7 y 6.! / 0 6.6.9 7 > R.].x.e e z.[.@XR.: 5 0 6./ = ",
":X3X7XG.u.v.fXDXvXgXF.%XvXZXBX{.D.I.4X3Xh.d.:XwX5XQ.V.@XZXBXkX~.^.kXSXSX}.^.s.<XwX,X:X:XeX7XH.F.].lXnXyX^./.$XVXAXhXx.t.H.6X:XK.",
">X6XeXP.S.R.lXHXMX$XL.gXBXFXBX#X.X5XrX6Xk.k.>XaX7X(.V.tXDXSXmX8X+XvXFXDX}.^.H.6XsX9X*X*XpX9XK.~.}.DXJXMX|.OXlXDXGXhXE.K.5XsXqX2X",
"i.Z.Y.w.,.x.@XBXwXE.:.oXwXBX@XB.N.u._.(.#.+.p._.G.4.6.R.MXMX%XA.N.%XvXzXv.6.,.H.Y.i.r.P.4X=Xw.8.B.cXVX%X^.W.XXvXVXyXM.S./.7X:Xd.",
"M ` ,.= * , V.uXI.p & V.|.uXM.w 0 3 7.w.Z h ~ C.~ = 5 c.gX%X|./ 8 I.uX+Xw 5 % ) 2.M Q s.L.s.M 6 e oX$X|.n.:.V.%XkX{.p 9.8.F.y.) ",
"V Q o.C H 2 V.wXF.;.. 8.F.+X^.7 B B ) ) J A [ o.N B # p ).L.N.( E A.'.).y 8 H @.q.F V d o.' Z H 9 L.G.7.* ( N.a.'.6.  . a Q Z a ",
"Q 2.D.:.5.i [.kXXXV.! V.XXyX$Xz.=.:.u.C.,.7.s.U.:.! r v.$XXX[.5.5.XX%XgXc.6.4.S.F.o.) ` C.u.;.;.z.XXyX|.y 5.|.$X%XoXx.5.,.u.:.W ",
"k.>XeX'.OX[.hXSXVX$X).%XkXAXlX].F.`.6X7Xr.k.>X7XP.L.|.@XZXVXzX).I.zXDXFX#XV.p.>XrX;X>X6XeXqX!.F.[.AXSXkX$X8XkXSXAX#XE.'.:X4X>Xg.",
";X0XrX3X_.E.hXFXCXgX'.$XvXDXVX[.(.OXqXeXk.f.2XxXqX5X$XtXDXSXvX`. XBXGXGX}.^.K.9XxXqX6X<XsX0X!.`.@XSXGXMX$X5XkXSXSXfXoX5X6XsX2Xk.",
"w.F.).8.;.i {.mX$X[.5.E.@XlX@Xc.9.9.I.I.4.@.a.`.D.8.n.].hXfX@XN.M.@XnXlXc.p 8.U..XD.7.a.~.S.4.N.].lXmX#XM.0.{.hXlX{.x.4.u.).S.t.",
"@ E / + & ; x.@XV.r   y M.|.B.: # + 8 =.@ @ E ;.3 # , x.V.E.V.0 < n.E.V.q 5 # ~ :.C X @ / ! & < > ].[.6.< 5 p |.|.r , # 3 ;.W @ ",
"j J [ N B O N.8XS.! X 4.S.5X`.7 X n ' o.j j J o.J n # 3.!.(.N.W 3 7.K.(.9 = h ' +.F j k O.] N C 9 L.L.4.* E 9.OXOX3.& B Z <.' d ",
"g P #.V Z $ D.3Xp.*.a t.(.wX.X0 N V O.1.S c F O.L h $ 0.6X5Xu.Q T w.-X,Xt T V ] &.D b c %...V B 8 P.K.u.T Q 8.'.:X3.* N V 1.] g ",
"U &.k.#.@.;.).rX7Xm.^ /.7XsXeX9.o. .i.d.$.O.e.k.%.[ / ).sXeX/.q.:.Y.rXaXm.w.#.f.&X$.{ X.k.g.#.) 6.qXaX_.>.q.U.7XqXI./ o.%.k.1.U ",
"b { e.L Q W a.<X6X,.A s.P.eX'.! K F &.1.U G X.e.] L T F.qX<Xp.' W p.0XqX;.Q L $.e.U D I f.&.L Q =.3X6Xp.Q ' w.:X<XD.T K P &.{ b ",
"l F O.d s X w.*Xd.! s s.P.<Xy.+ f g } O.l l S U b f h 7.-Xg.#.Z B y.<X<X6 m s G } x z z Y D d h 6 &X=X#.M j R d.:X7.X f g I S l "
};
