/* XPM */
static char *_aed6b8000a7417dabf0302f2ee8b2c8vpTY5CFpIAoiIfY2[] = {
/* columns rows colors chars-per-pixel */
"64 64 251 2 ",
"   c #966F17",
".  c #966D28",
"X  c #996E37",
"o  c #9C743D",
"O  c #9A6E47",
"+  c #9D7343",
"@  c #9E744B",
"#  c #9F794C",
"$  c #9E7352",
"%  c #A17745",
"&  c #A17945",
"*  c #A1754C",
"=  c #A2794D",
"-  c #A27655",
";  c #A47A55",
":  c #A97F57",
">  c #A2755A",
",  c #A57A5B",
"<  c #AA7E5E",
"1  c #A37562",
"2  c #A67A61",
"3  c #A97D63",
"4  c #AB7E6B",
"5  c #AC7E71",
"6  c #B07F78",
"7  c #AA8154",
"8  c #AC825C",
"9  c #AC8164",
"0  c #AE8C65",
"q  c #AD826B",
"w  c #B18664",
"e  c #B1846C",
"r  c #B28A6D",
"t  c #B49565",
"y  c #B3936C",
"u  c #AE8272",
"i  c #AE817A",
"p  c #B18474",
"a  c #B48974",
"s  c #B88B75",
"d  c #B3857B",
"f  c #B6897C",
"g  c #B98D7C",
"h  c #B89477",
"j  c #BC9B7C",
"k  c #BDA269",
"l  c #BCA475",
"z  c #BCA47B",
"x  c #BDAA7C",
"c  c #C19D7C",
"v  c #C1A96D",
"b  c #C5A977",
"n  c #C3AC74",
"m  c #C3A57C",
"M  c #C4AB7C",
"N  c #CAB479",
"B  c #AF8086",
"V  c #B58683",
"C  c #B68983",
"Z  c #BA8C85",
"A  c #B5868B",
"S  c #B7898B",
"D  c #BB8C8B",
"F  c #BD9284",
"G  c #BD9B83",
"H  c #BE928C",
"J  c #BE9D8B",
"K  c #BD8E92",
"L  c #BD8E98",
"P  c #BF9193",
"I  c #BF909A",
"U  c #B7A680",
"Y  c #BCA583",
"T  c #BEAA83",
"R  c #BEA48A",
"E  c #BEAC8A",
"W  c #BFB185",
"Q  c #C08F8D",
"!  c #C19D86",
"~  c #C1948C",
"^  c #C29D8C",
"/  c #C99D8F",
"(  c #C18E98",
")  c #C29394",
"_  c #C49C93",
"`  c #C4949B",
"'  c #C69A9C",
"]  c #C89A9A",
"[  c #CA9B9C",
"{  c #C3A383",
"}  c #C3AB84",
"|  c #C9AD83",
" . c #C4A28C",
".. c #C9A58A",
"X. c #C3AC8B",
"o. c #CAAE8B",
"O. c #C5B183",
"+. c #CCB384",
"@. c #C4B28B",
"#. c #CBB38C",
"$. c #CFB988",
"%. c #D2BA8B",
"&. c #C5A393",
"*. c #C9A495",
"=. c #C3AC92",
"-. c #CBAD94",
";. c #C7A299",
":. c #CAA59B",
">. c #C5AD98",
",. c #CDAB9C",
"<. c #D0AC9B",
"1. c #C5B293",
"2. c #CBB494",
"3. c #C8B497",
"4. c #CBB49B",
"5. c #CCBA9B",
"6. c #D1B593",
"7. c #D4BB95",
"8. c #D2B59C",
"9. c #D4BB9B",
"0. c #D9BD99",
"q. c #C38EA3",
"w. c #C595A3",
"e. c #C996A5",
"r. c #C799A3",
"t. c #CA9AA4",
"y. c #C693AA",
"u. c #C996AB",
"i. c #C798A9",
"p. c #CB9BAB",
"a. c #D09EAC",
"s. c #CD9CB2",
"d. c #CE9BB9",
"f. c #D19EB4",
"g. c #D19DBB",
"h. c #CCA5A3",
"j. c #CDAAA3",
"k. c #CEA3AA",
"l. c #CDAAA8",
"z. c #D0A5A5",
"x. c #D1ACA4",
"c. c #D2A4AC",
"v. c #D3ACAC",
"b. c #C6B0A3",
"n. c #CCB4A3",
"m. c #CEB9A3",
"M. c #CDB5AB",
"N. c #CFBAAC",
"B. c #D3B5A3",
"V. c #D9B6A7",
"C. c #D3BBA3",
"Z. c #D9BDA4",
"A. c #D4B3AC",
"S. c #D9B4AC",
"D. c #D4BBAB",
"F. c #DBBDAC",
"G. c #CEA0B1",
"H. c #D3A2B4",
"J. c #D5ACB3",
"K. c #D4A2BB",
"L. c #D7A9B9",
"P. c #DAACBC",
"I. c #D6B2B3",
"U. c #D9B3B4",
"Y. c #D4BCB3",
"T. c #DBBCB3",
"R. c #D6B5B9",
"E. c #DBB4BC",
"W. c #DDBCBC",
"Q. c #D7C289",
"!. c #D9C399",
"~. c #D7C7A6",
"^. c #DCC4A4",
"/. c #D4C1AB",
"(. c #DBC3AB",
"). c #DDD4AD",
"_. c #D6C3B3",
"`. c #DCC2B4",
"'. c #DCCCB4",
"]. c #DBC2BB",
"[. c #DDCDBB",
"{. c #DDD4B3",
"}. c #DDD8B6",
"|. c #DDDBBB",
" X c #E1C6AC",
".X c #E4D4AE",
"XX c #E3DDAC",
"oX c #E9DBA9",
"OX c #E2C4B4",
"+X c #E3CCB5",
"@X c #E3C4BC",
"#X c #E4CBBC",
"$X c #E8CCBE",
"%X c #E5D3B3",
"&X c #E8D4B5",
"*X c #E3DCB4",
"=X c #ECDBB4",
"-X c #E2D3BD",
";X c #EBD4BD",
":X c #E3DDBB",
">X c #ECDABA",
",X c #E8E3AA",
"<X c #EBE2AC",
"1X c #F0E6A4",
"2X c #EBE3B2",
"3X c #E5E2B8",
"4X c #D49EC2",
"5X c #D6A2C1",
"6X c #D9A5C4",
"7X c #D7A9C1",
"8X c #DBAAC5",
"9X c #DBA5CA",
"0X c #DDA9CC",
"qX c #DDB4C3",
"wX c #DCBCC2",
"eX c #DEB6CA",
"rX c #DBA6D0",
"tX c #DEAAD2",
"yX c #E0AECB",
"uX c #E1BCC5",
"iX c #E2B6C9",
"pX c #E3BBCC",
"aX c #E1ABD4",
"sX c #E4ADDC",
"dX c #E4B4D4",
"fX c #E5BBD2",
"gX c #E9BED5",
"hX c #E8B3DC",
"jX c #EBBDDA",
"kX c #E7AEE3",
"lX c #ECB6E3",
"zX c #EAB3E4",
"xX c #DDC3C4",
"cX c #DFC5C9",
"vX c #E3C4C3",
"bX c #E8C6C6",
"nX c #E4CAC3",
"mX c #EBCCC4",
"MX c #E3C4CB",
"NX c #EAC5CC",
"BX c #E5CACC",
"VX c #ECCBCB",
"CX c #E4D3C3",
"ZX c #EBD3C3",
"AX c #E8D6C6",
"SX c #F0D0C7",
"DX c #E4C6D2",
"FX c #EBC2D4",
"GX c #E6C9D2",
"HX c #EACBD1",
"JX c #ECC1D9",
/* pixels */
".XFX;X:X^.| F.T.| V.#. Xm V.F.| Z.:X;XVX=X<XVXSX2X&X#.7.@Xb 8.6.Z.Z.$.#X7.M &X2XVXZX1X;XNX=X=X+.6.F.6.2.<.m V.M Z.@XM 0.:X;XNXoX",
"fXkXgXBXE.t.6X9Xw.K.i.6X) g.0Xe.K.GXgXzXFXmXlXjXGXiXt.a.aX` f.p.K.K.' sXp.` MXVXzXgXmXjXzXBXMXp.p.aX` u.g.' 9Xr.0X0X` H.BXgXsXvX",
"$XfXvX-Xj.G E.E. .v.*.J.! J.E.:.I.CXBXjXmX>XFXFXCX].*.j.iX^ x.,.v.v.! iX,.*.nX;XgXVX=XVXjX;XCX<.j.pX&.j.v.;.J.&.E.I.^ B.-XvXdX&X",
"*XMXCX:XC.E ].Y.} D.X.D.} D.].2./.AXAXGXZX2XHXVX3X{.o.4.vXX.B.9.C.C.O.MX4.X.>X3XHXAX2XAXHX3X:X9.5.vX+.4.B.1.Y.@._.T.} C.:X[.MX*X",
"^.P.A.m.' d i.` r ) a ` d r.k.g _ D.V.K.T.!.J.J.m.-.s H k.a ) H H H r t.Z f A.C.H.J.!.R.8X(.D.g g c.a Z P r ) p ` r.p _ C.v.K.C.",
"{ e.&.X.d $ K V % d - d , S K ; 9 Y ..w.&.M ) ) T j , 9 K - q , 3 3 @ ) 3 > X.T ) ] N ,.u.#.} ; , S $ > u @ u X u C > h 1.:.i.| ",
"T.6XJ.Y.p.C t.i.s a.) w.` ' H.H _ Y.W.tXE.F.8X0X].E.` ` K.D r.P ` ` Z K.r.K E.`.yXiX+XuXaXW.Y.~ H d.K I t.D t.p i.d.D j.].E.tX@X",
"S.6XR.Y.` f i.w.q i.K P P C s.D H Y.I.5XI.C.P.0X_.R.K P s.f ) D P ` C g.P C A.Z.6XE.^.U.K.A.M.~ C i.K D ` f ` p w.u.d :._.J.g.F.",
"m i.*.@.q o D d   q = q = + D : 8 T { ) c n :.t.@. .* 8 g & 9 : q e % H : + l O.[ / n  .) b x 8 = d = = < o p . d d o y W  .K k ",
"OX6XJ.D.D 5 i.w.q w.Z ` d t.p.Z ~ M.A.5XU.Z.8XyXD.J.Z ) s.d ` ) ) D 9 s.D f R.`.0XP.Z.E.6XF.Y.~ Z w.) ) ` f ` a t.u.f &.D.U.6XF.",
"#.i.&.} d , K A + f ; p + C D , 9 Y { ` *.$.p.p.}  .> 9 ` @ p q u p - r.p 1 :.2.t.*.N  .] #.1.r , f q , q - d + D V + r O. .` $.",
"F.6XI.D.D 4 L K p ` p ` 3 ` p.f Z n.A.5XU.^.8X6XC.v.d H K.q ) D Z D 9 f.D d x.4.f.v.9.I.6XF.D.F d ` Z f r.Z ` f K.P V ;.D.E.6X(.",
"n ~ j x q 1 K C + Z , Z 3 D K = 8 z &.u.,.+._ Q l  .1 2 ` @ q 3 q p - i.d 2 &.X.t.:.%.x.d.#.X.8 ; C 4 - p = 4 , ` 4 - y @.,.s.M ",
"V.K.U.`.` - Z C ; P 3 a 9 Z D q Z n.A.5XR.C.L.K.C.I.A P 5Xd ` D Z D q K.H p ,.4.H.J.!.v.K.C.n.s V w.K d ` Z K d u.u 2 ^ D.E.9XV.",
"F.0XW.].t.C g.s.f f.D ` D w.p.D ] Y.T.0XE.^.qXtX_.E.K ' 8Xf ' ) ) ` Z 6X` Z E.T.0XqX XE.6XF.A.F S u.w.C r.) t.S f.D A h.`.E.0X`.",
"6.s.j.#.a - ` K = Z 3 d q C K 3 s 1.-.u.,.%.,.p.#.*.> e ` = a p d f ; ` e , *.2.f.k.$.*.t.#.X.9 < S 3 X p = q - D 4 , j 1...r.6.",
"0.H.<.7.F 8 [ ) % s 8 a q s ] w s 5.V.6XV.Q.S.L.C.A.p H c.8 H Z F g 7 [ s e B.9.H.x.$.<.c.#.2.r e i.D p ) q D q ` Z e { 2.S.L.0.",
"=XMXCX:Xm.Y R.M.T D.} n.X.1.Y.X.2.|.AXDXCX<XAXGX:X-X>.m.xXY n.n.n.n.l xX4.=.[.:XMXnXXX[.cX{.{.E R Y.n.R M.T m.} Y.4.} ~.|.CXGX*X",
">XFXZX:XC.X.W.T.M F.} V.#.8.T.X.9.|.CXgXmX=XVXFX-X`.o.4.W.{ B.8.B.8.l vX8.-.-X:XHXmXoXnXMX%X'.X.:.I.j.&.h.G k. .Y.l. .~.*XmXFX>X",
"VXzXgXHX8Xu.aX9X~ 6X` 6Xf.p.9Xt.c.MXjXkXFXVXlXjXGXqXw.K.aXi.K.f.f.f.) sXK.u.pXDXzXjXmXgXzXBXuXy.u.4Xe.u.u.q.d.q.9Xg.e.E.BXjXzXVX",
";XjXVXAXR.:.uXE.{ E.&.J.x.:.E.h.B.CXZXJXZX>XFXNXCX@Xx.A.pX&.A.x.x.x. .pXA.h.nX-XgXBX=XVXjX;X#X .,.W...&.,.-.v.&.I.x. .F.AXVXFX>X",
"=XVX>X2X^.+. X^.v ^.N 7.6.N OX%.Q.XX<XmX=X,XmX;X,X=X%.7.#XN 9.#.6.6.N $X!.$.%X,XmX;X1X;XVX2X%X+.+.F.o.| 9.n 9.+.C.8.| ~.2X>XVX<X",
"mXlXFXAXU.;.iXP.! iX*.k.:.;.iXx.,.nXnXfXbX#XfXgXCXnX*.<.fX^ c.t.k.H.t.gXv.] MXnXhXFXZXFXzXVXDXt.t.K.u.u.5Xu.5X` K.a.w.W.BXFXlXmX",
"mXhXgXDXL.r.0X6X) 0X[ H.t.p.0Xi.K.cXMXsXfX@XsXhXMXfX( p.sX) H.p.f.K.t.sXc.` MXVXzXjX;XFXjXmXZXx.h.qXL._ J.z.J./ H.f.r.E.BXgXzXmX",
"*XMXCX|.m.T Y.D.x Y.X.B.X.2.D.@.2.{.{.MX#XXX@XnX).~.z 4.W.z n.4.n.m.T xX2.Y -X:XHXAX2XAXBX*X|./.@._.N.T C.2.m.T M.m.} 9.|.-XMX*X",
"#XqXT.'.:.G R.J.G I.^ k.&.j.J.&. ._.'.dXvX.XuXuX'.D.^ ^ R.G j.j.j.,.j E.&.G `.{.pXvX.X@XqX(.'.-.y j.&.y  .j ^ y j.:.G B.-XvXfX%X",
"-.w.;.R p O K A O V > d 1 5 A $ ; Y X.y.' M H ) E a > 2 S > f 4 d a ; ' 3 > :.1.e.[ +.:.p.-.2.g 3 Z C 3 p q a < S 5 > h @.:.s.| ",
"-.s.:.-.d 1 ` K : D 3 D i d D q e >.4.s.h.+.;.t.1. .q f ` 9 D f Z Z < r.f 5 j.4.p.z.7.A.K.C.4.H q ` Z Z Z q D q ) Z q { 2.v.g.9.",
"W.9XqXwXe.A d.s.S g.K d.` i.s.` ' W.xXaXeX`.eXtX].qX( ` 5X` d.w.i.i.f 5Xw.( E.].aXiX+XpXsXvXwX[ D K.H ) ) w.d.` K.i.D j.xXpXaX`.",
"m S R E u X d 5 . u @ 3 $ 9 p - ; U Y K j v _ w.T J - , D $ 5 , 3 3 @ e.u > G z ) ] $.:.u...} s , ) % 3 u q 4 + p 3 = h 1.;.y.M ",
"-.d.j.n.D 3 ` D - K 4 Z u p K p s >.4.s.x.7.v.g.4.:.p Z ` u D d f D u K.D p :.4.H.v.!.A.g.j.m.~ Z i.q D D f D q ` D e ^ C.x.d.-.",
"8.d.h.>.C > I L > K 4 V 5 d ` p p =.-.s.v.!.v.f.-.;.i V L 4 d 9 f f 3 i.s q &.2.c.c.%.x.i.#.X.3 p ` 9 f f 9 f q ) D 3 j 1.*.e.o.",
"o.s.l.>.f > L S @ V - d 1 A K q e R #.p.x.%.c.p.} G * u K > f f f Z q t.s p *.4.H.H.9.v.f.-.>.a d p.u Z D q C q ` D u F =.;.u.6.",
"-.s.h.,.f 1 w.L - K 3 A 4 D ` 4 f b.B.5XI.7.H.J.n.&.4 C e.p Z p D D 9 t.Z f ,.m.c.k.6.x.p.4.4.s f t.p f Z p D e ` D p F 4.h.s.6.",
"m D G z q O V i . 4 O 4 O i S @ 4 R  .u.,.+.t.[ } G - 9 C @ q - p p # ) 9 , { @.~ ~ n { ) O.E 8 , f < , 9 , d = V 4 @ 0 x  .w.} ",
"T.rXqX].s.L g.i.C u.S u.S d.5XI s.R.qXtXuXOXtXfXnXE.) t.K.H t.) p.t.Z 0Xi.` R.xXdXdX#XiXsXnXxXt.r.K.` w.u.w.K.H i.d.D h.].qXtX@X",
"o.u.:.2.D > K S = S 1 S - L ` q C >.,.d.B.7.H.c.4.^ 4 Z ) 9 D Z 3 f , e.C p :.2.H.c.7.v.K.9.4.s a ` 9 f D s P 9 C D 3 G 2.x.d.2.",
"{ q.;.X.i @ V d + A > 6 O B S $ p R &.y.:.#.e.` Y h - d Z * V 2 8 d o ) q >  .} ` / +.:.w.{ Y 3 4 D 1 4 d 3 u * S Z 2 h } _ q.m ",
"+XeX].'.,.h j.h.j :.G h.j l.I.J :.[.vXfXvX%XuXMX[.`. .j.v...I.*.n.*.l uX,.:.`.[.fXvX.XnXpX+X[. .&.v.&.&.:.! :.Y j.,.G -.~.T.eX'.",
".XcX[.}.5.Y M.Y.T n.E m.z n.D.} 4.}.-XMX-XXXBXnX:X'.X.D.].@.D.9.4.8.M xX5.T -X:XGXCX<X-XMX*X{.} 1.D.4.=.4.} n.@.N.D.T 5.|.[.xX).",
"vXsXiXnXI.` K.5X` f.e.K.D f.5X` H.MXMXsXgXmXhXjXHXuXu.6X9Xt.H.f.H.H.r.aXt.) MXBXhXgXmXgXzXBXvXt.t.6Xp.) p.` H.~ J.P.^ A.nXpXsXvX",
"$XsXpXnXU.w.J.J.~ H.H H.H s.L.' v.cXvXsXNX;XlXjXAX@X:.E.qX*.v.:.c.v.:.iXt.` MXMXsXNX=XVXjXVXBXk.t.8Xp.` p.e.g.D K.6X` L.cXpXdX+X",
"oXbX&XXX!.+.9.8.n 4.l 2.O.9.Z.+.%.XX%XbX=X<XVXZX2XoX+.7.^.N 7.+.7.7.$.OX7.| .XXXbX;X1X=XmX2X*X%.$.F.#.X.2.X.C.n C.C.| !.XX&XbXoX",
"$XfXvXCXI.^ v.v.G v._ v.j.v.U.:.x.nXnXgXZX;XjXVXAX`.*.v.qX,.J.x.v.v.*.pXV...(.-XgXmX=XVXFXZXCX<.:.E.x.h.l.*.x.m S.x.-.F.-XmXfX;X",
"NXkXfXMXK.q.g.g.( g.y.g.y.g.9Xu.f.MXgXzXFXVXzXjXGXqXu.f.kX( f.f.f.f.r.sXg.( iXMXkXjXmXjXzXHXNXa.t.0Xf.f.g.u.d.) 4Xg.u.E.DXdXkXbX",
".XuX+X*XC.J v.v.R v.&.j. .I.I. .B.*X;XFXZX2XVXZX*X~.*.j.pXG l.6.4.4.| uXj.&.nX-XgXBX>XSXFX=X*Xo.-.uX>.8.B.&.h.G J.J.;.(.[.MXMXoX",
").eX[.}.n.Y M.M.T n.=.n.T M.Y.X.m.|.AXDX-X*XcXxX}./.=.4.Y.x n.X.-.,.| wX>.z [.*XDXAX2XAXGX:X}.X.=.wXE 4.n.X.j.R Y.Y.E /.}.[.xX).",
"6.f.j.1.Z < w.` 9 Z a ) p ) r.a ^ C.B.H.8.$.[ *.2...9 s ) e Z 8 p e : ` e a A.(.L.c.7.x.L.9.#.w r t.r s D f D q ` ) q ^ 4.:.r.+.",
"#.w._ X.d + C V o f : s , p D < g 1.*.e.*.#.t.z.1.G 3 q K > C q p s 9 w.u 3  .#.r.) +.*.r.2.-.9 p t., f p 3 V % d d * y T _ w.+.",
"V.6XJ.Y.' p s.s.e t.Z r.s e.K.H t.T.E.9XE.OXyXyXY.v.f P f.S t.) w.r.H 6Xt.D A.F.aXE.^.J.5XD.I.D ` f.D s.) ~ e.C i.i.d ;.`.E.0XOX",
"B.d.v.D.H - P C % ` d ` 3 i.s.d H 4.,.p.,.$.H.H.4.:.V C D @ u q D P 3 t.p ; { 2.K.P.Z.:.p.2.,.3 9 r.: 9 q 9 I u ` K d &.D.J.K.6.",
"-.`  .@.p > ` I , D - Z $ S D & s X.&.u.,.7.G.t.X.G , 1 S 1 A q 3 9 = ` 4 1 -.9.) ! N *.e.2.-.e Z p.9 e u q V . i d @ h T ! ` +.",
" X6XI.D.` p i.` 3 ` q ) 3 w.p.f ~ D.v.g.A.9.K.H.m.:.f D p.d K d H ` Z K.) d D.F.9XE.^.J.6Xn.j.d D i.q Z H Z K f t.p.Z j.D.U.6XF.",
"<.p.:.1.C - Z d + Z # e + d Z ; e =.=.w.-.%.t.] X.! 2 q D $ q q p p > i.f 3 o.M p.,.%. .D x G > 4 ) = p d q d o S D = a | { ` +.",
"A.f.I.Y.) d p.i.9 t.f ` f r.t.p ~ N.A.4XI.C.K.H.D.j.Z D p.u D C Z D d K.K d A.T.5XI.!.I.5XZ.x.p S s.f P K d K q p.' d _ `.S.6XB.",
"..` -.T 9 % Z C . g ; e & e Z ; 8 E &.` { n _ ] @.j % , Z - u 3 9 9 % Z : = m O.`  .N ..) M l = , K = 9 q 8 q = H 9 * t x { ) | ",
"F.5XI.N.) p d.i.q i.C ` d ` ' Z ) Y.R.5XU.Z.L.P.N.j.f D e.p ` D P ` C s.H f A.(.0XE.^.U.L.Z.A.g D d.V D S S D q s.` D h./.v.6XZ.",
"8.K.A.C.) C H.w.q ` d w.p w.i.Z ' Y.I.9XW.OX0X8XY.l.S K i.u ` P w.w.Z K.` K R.].aXuX^.E.6XF.n.f ) p.) S S u S f s.` D v.Y.P.6X8.",
"6.s.:.X.e - ) S + d @ q X d K , a R { e.,.$.p.r.T h = 3 Z * d 3 3 3 X P q $ &.@.w. .N ^ ` #.=.3 , f , 3 3 , p ; d p < ! } / [ 6.",
"%XiX`./.^ y v.h.t _ r _ 0 ' k.h  .C.V.6XW.^.E.U.5.-.a j v.h _ D H D u K.P f A./.E.V.!.V.P.^.~.j H t.r G G h &.y :.&.j 2.~.F.qX.X",
"2XGXCX3Xm.T ]./.O.D.T C.@./.`.2.C.:X:XHXZX3XVXZX|.'.X.2.].X.D.8.C.B.@.BXm.1.-X3XVXCX<XAXHX3X}.2.2.T.#.4.>.T N.x n.n.X.~.3XCXGX:X",
"ZXjXbX-Xv.&.iXI.{ U.^ J.:.U.uX,.x.AXmXgXVX;XFXNXCX`.*.x.iX,.I.:.j.v.*.pXv.&.vX-XgXVX=XVXJX;XnX,.j.E.:.v.v.;.J.c J.P.~ v.AXNXlXSX",
"VXzXgXBX8Xe.tX6X) 5Xi.6Xe.6X0Xr.H.GXFXzXFXVXlXjXGXqXp.f.aXs.K.r.H.K.t.sXK.` gXBXzXjXmXJXzXHXfX` f.0Xs.f.d.w.K.D K.tXw.7XHXgXzXVX",
"=XNXZX2X X| `.C.+.OX#.^.N B. X| 0.3X;XVX=X<XVXSX=X%X6.7.#X+.9.6.6.0.$.mX7.M &X2XVX;X1X;XSX2X.X+.7.T.6.7.F.n B.v Z.T.| 9.2X;XbXoX"
};
