/* XPM */
static char *b961515e242044d09735ea2fb9ef0208PXOwwtssgyULLZBv[] = {
/* columns rows colors chars-per-pixel */
"64 64 256 2 ",
"   c #1F0B21",
".  c #523019",
"X  c #4B332B",
"o  c #594D0A",
"O  c #685714",
"+  c #776A0D",
"@  c #5B462C",
"#  c #6D5731",
"$  c #7A682F",
"%  c #350353",
"&  c #210069",
"*  c #451754",
"=  c #4E2B4E",
"-  c #563658",
";  c #643958",
":  c #4D066E",
">  c #601A77",
",  c #5C3667",
"<  c #5B2E70",
"1  c #653B69",
"2  c #663B77",
"3  c #6A3078",
"4  c #5B484E",
"5  c #6F5252",
"6  c #7B6647",
"7  c #5F4369",
"8  c #684568",
"9  c #764D6A",
"0  c #78556A",
"q  c #6C4577",
"w  c #754978",
"e  c #6F5178",
"r  c #795577",
"t  c #7B6368",
"y  c #7F6870",
"u  c #896F34",
"i  c #8B783B",
"p  c #805D56",
"a  c #876D48",
"s  c #897446",
"d  c #93794C",
"f  c #886657",
"g  c #8A7657",
"h  c #977958",
"j  c #A27E59",
"k  c #845D69",
"l  c #845A76",
"z  c #876869",
"x  c #946D64",
"c  c #9A7768",
"v  c #886677",
"b  c #8F6F70",
"n  c #8C7478",
"m  c #987777",
"M  c #A37C6A",
"N  c #A37C76",
"B  c #958C0C",
"V  c #ACA40C",
"C  c #918730",
"Z  c #A59232",
"A  c #BAAD35",
"S  c #C8BA2F",
"D  c #E3D93C",
"F  c #99884A",
"G  c #9B8557",
"H  c #988E54",
"J  c #AC934A",
"K  c #A6885A",
"L  c #AA9459",
"P  c #B79A58",
"I  c #B6A64B",
"U  c #B9A75B",
"Y  c #9A8669",
"T  c #9A8477",
"R  c #9F9471",
"E  c #A78767",
"W  c #B28D69",
"Q  c #AA9468",
"!  c #B69A69",
"~  c #A78776",
"^  c #B38C78",
"/  c #A89676",
"(  c #B89877",
")  c #BC9C7B",
"_  c #BBA568",
"`  c #B3A86D",
"'  c #BBA576",
"]  c #C5A759",
"[  c #C9B450",
"{  c #C29C6C",
"}  c #C29D79",
"|  c #C5A869",
" . c #C9B46A",
".. c #D4B967",
"X. c #C6A977",
"o. c #D0AD79",
"O. c #C9B578",
"+. c #D5B978",
"@. c #E1BD6E",
"#. c #D2C857",
"$. c #E4D254",
"%. c #F9F352",
"&. c #D4C96D",
"*. c #D6C576",
"=. c #E2CB7B",
"-. c #ECD376",
";. c #EAD57A",
":. c #F9EE6E",
">. c #FDF977",
",. c #63138D",
"<. c #71368A",
"1. c #774987",
"2. c #7C5487",
"3. c #7B528D",
"4. c #7C4796",
"5. c #7F618B",
"6. c #855988",
"7. c #8A5594",
"8. c #875A95",
"9. c #8A6688",
"0. c #966989",
"q. c #897485",
"w. c #997786",
"e. c #8C6496",
"r. c #966A98",
"t. c #997698",
"y. c #9C749C",
"u. c #A47B88",
"i. c #A67296",
"p. c #A67998",
"a. c #8D54A8",
"s. c #9969A7",
"d. c #9867AB",
"f. c #9B77A4",
"g. c #A47BA3",
"h. c #AC75AE",
"j. c #A778A9",
"k. c #AD7BB3",
"l. c #AF76C0",
"z. c #9B878D",
"x. c #A88788",
"c. c #B48B89",
"v. c #AB9489",
"b. c #B99886",
"n. c #A98798",
"m. c #B48C98",
"M. c #AC9495",
"N. c #B99698",
"B. c #BBA586",
"V. c #ADA392",
"C. c #BAA797",
"Z. c #9D81A6",
"A. c #A986A6",
"S. c #B38AA3",
"D. c #B88AA6",
"F. c #B285AB",
"G. c #B48BAB",
"H. c #AD91AA",
"J. c #B996A8",
"K. c #AC84B4",
"L. c #B989B5",
"P. c #B897B5",
"I. c #BAA5A9",
"U. c #BCB6AA",
"Y. c #BCA5B6",
"T. c #C29D88",
"R. c #C69A98",
"E. c #D09F95",
"W. c #C7A787",
"Q. c #D3AD89",
"!. c #CAB686",
"~. c #D4B787",
"^. c #C8A797",
"/. c #D3AC98",
"(. c #CAB698",
"). c #D6B898",
"_. c #E1BB90",
"`. c #C498AA",
"'. c #CE99AE",
"]. c #C28BB9",
"[. c #C799B6",
"{. c #C8A7A8",
"}. c #D3A8A6",
"|. c #C9B5A6",
" X c #D7B6A7",
".X c #C8A7B8",
"XX c #D6A8B7",
"oX c #CCB7B9",
"OX c #D8B8B9",
"+X c #E5BBAA",
"@X c #E9B5BB",
"#X c #E5B8B9",
"$X c #DAC588",
"%X c #D9CE90",
"&X c #D9C698",
"*X c #E9CE8B",
"=X c #E8D686",
"-X c #E5C999",
";X c #E9D598",
":X c #F7D899",
">X c #FAE989",
",X c #FBF584",
"<X c #FBE998",
"1X c #FFF997",
"2X c #CFC5AB",
"3X c #DAC7A8",
"4X c #DBC6B7",
"5X c #E8C8A5",
"6X c #F4C9AA",
"7X c #E6D5A9",
"8X c #FBD7AA",
"9X c #E8C7B7",
"0X c #F6CAB6",
"qX c #E9D7B8",
"wX c #F8D7B6",
"eX c #FBE6A6",
"rX c #FFF8AA",
"tX c #F7EFB6",
"yX c #F9E6B8",
"uX c #B98CC3",
"iX c #C68CC4",
"pX c #C996C4",
"aX c #D499C7",
"sX c #C7A7C6",
"dX c #D9A6C6",
"fX c #D9B9C5",
"gX c #D4AFD0",
"hX c #E3ADCB",
"jX c #E5B6C6",
"kX c #ECB3D2",
"lX c #EAB4D7",
"zX c #F7BBE3",
"xX c #D9C8C7",
"cX c #DCD3CA",
"vX c #DCCBD2",
"bX c #E6C6C7",
"nX c #F3C8CB",
"mX c #E7D7C8",
"MX c #F5D4C6",
"NX c #E8CBD5",
"BX c #E7D8D4",
"VX c #F7D8DA",
"CX c #EBE3CA",
"ZX c #F6E9C7",
"AX c #FDF7CA",
"SX c #ECE4D6",
"DX c #F4EAD9",
"FX c #FCF7D9",
"GX c #F1D6E3",
"HX c #F4E9E1",
"JX c #F6F2E3",
"KX c #FAF5E5",
"LX c #FEFAE5",
"PX c #F7F2EB",
"IX c #FBF5E9",
"UX c #FEFCEA",
/* pixels */
".XxXvX3X*XAXAX%X-X+.] ZXUXCXoXe.x./ L A S L ,.-.>.1X1X<X6X@X@XjX'.'.pXL.d.m <XrXrX%X^ , b o.o.+.o.X._ ! ! ( X.~.5X5X^.^. X4XCX4X",
"+.SXcXZ.Y.cX4X7XZXAX7X4XH.6.3 r 3.4.8.8.' %.z.T.>.1X1X>X8X0X+X}.'.'.'.[.d.p.3XwX(.p. .Q <.0.~ W o. .| ! Q ! O.~.5X).^.+X6XFXFX%X",
"J T Y..XH.f.f.H.{.x.T k ; 9 0 8 8 e 1.3.,.B.&.c.>.1X:X1X:XE.} ) R.E.E.^.R.}.m.0.w dXW I m r ^ k 1 c Q P F Q o.&X&X/.+X0X#XH.4X>X",
"X d oXsXsXsXsXsXsXP.u J ) w.9.e - , 1 2 q ,.q.T :.1X6XeX=.^ ( ( ( R.R.T.T.x.v 0 [.dXb K ;X+X0.w., : < , / ` ' &X).).0XbXxX9.8.T ",
"# E ).NXNXVXBXNXfXfXf h ^ ( ( c k ; * , 1 9 < 2  .%.>.8XeX! j j K W ^ ~ 0.r 0 0.aXdXm v w.9.l l 8 8 q < r z.` $X$X-XbXNXOXpXG.o ",
"6 ) 8XZXJXDXVXNXNX{.# f h c ~ c c c k - 1 9 r 9.| t #.>.<Xc.u # $ 6 z l 0 l l D.[.`.g v 6.6.l l 9 q q 1 = % t B.^.|.xXxX[.aXz.O ",
"G &XwX5XMXNXNXbXfXx.# f f E ^ c h x M x r q l 7._ E & n &.x.m * - * * 8 0 0 w.S.L.x.d f f k l r 9 9 8 , , , e H.p.4X4XoXaXdX/ d ",
"&X7X-X-X&XbXjXgXpXT.| | { X.} E E c x M N v 9 > O.-./ : 0 ! T 5 % = - - 8 0 9.t.F.m.h f f p p 0 r 9 1 1 1 , 9.2.m 3XoX[.kX`._ Q ",
"&X&X-X-XO. XNXfXgX{.J ! ! W { W E W c c M M h 6.' %.,Xe 2 b ` Y 5 * = - - - 8 9 6.c.E x f f p 5 0 r 8 8 e r.l 6.z Q +XkXXXx.P O.",
"!.$X$X+.X._ bXNXGX{.i E W P +.X.E W E x c c M i n #.%.=X: r [ L h 5 = - = = = = % K P h d f f 6 f r r 0 p.i.9 9.B.$X<X~.m.9.z.(.",
"A.N.B._ | ! ' VXGXfXh ! ] ] @.@.E E W x x M x 8 r Y D >./ &  .S d g 5 * % % * = % x | K h g f 6 f z l l i.l u.u.!.eX^.P.fXP.P.H.",
"A.f.f.n.( U L ^.GXNX~ }.| $.:.-.E j K K M k = 8 <.,.! %.>.w.n $.C d 6 5 b t 8 8 8 1 [ P K h h a s s z m.R.}.+X+X)..X.XbXfXY.H.H.",
"H.H.H.A.f.x.Q F bXNX^.N.y.C.;.-.j j j N v 9 8 4 w 1.,./ %.+.N $.[ u ! _.-XwXwXwX0XXXmX4X^ F Z i u d K #XnX0X9X.X(. XbXOX.X.XP.P.",
"P.P.H.H.H.oXN.) ! bXM.c.OXdXx E M u.i.j.r.k 0 5 0 1.1.> Y ( w.n Q F _ U [ [ ..;XW.7XrX=XU h h g G P J ~.wX0XbXm.(. XfX{.OXfXY.Y.",
".XY.P..X.XOX{..Xx.N.~ XXNX{.u.S.k.F.F.j.j.0.k k 5 - 2 1.2 k.t.4 - m c a b.B.t.A.j.H.n.V. .A Z ..@...=.;.bXNXA.b.). X{.OXbXfXfX.X",
".X.X.X.XY.N.n.r.y.A.~ ).9X`.L.D.D.D.S.p.p.u.z z 5 4 * < w t.9.w.( = : ~ x.s.P.P.P.P.sXA.e.w.Q 5XyXyXDXKXDXxXq.).).(.4XbXfXfXfXfX",
"4XOX.XP.P.v.%X&XO.3X(.e.M.( Q K K G d a u # # @ @ . X p ~ >X*XQ.v.q q m #.%.>.>.,X,X,X*.K ! v.sXxX|.&XI &.$X9.(.&X&XyXtX9X9XbXbX",
"OXbXbXoXH.H. X4X4XS.H b.8.p.v.b.! P P L J u # # @ # f c E >.,X*.i 8.1.< ' #.&.%.>.%.:.E z Y.HXHXGXvXBXfXI.1X2XC.O.&XeXtXyX9XMX9X",
"OX4XmXMX9XbXbXXX.XdXT i q.y.b H.H.x.' ..] i $ # $ E c E c.w.$X*.(.v.e.t.8.4.e.H.I.^.Q M.HXIXUXUXIXIXIXIXvX4X<XmX` ~.yXeXqX9X9XqX",
"qXOX9XMXMXOX.XXX.XXXN.b W.4X[.`.P.K.f.n.Q Z u O h ! ^ N.NXe.7.mXqXb.q.H.P.Y.Y.P.A.w.-XZXFXHXHXIXUXIXKXJXKXHXvXZX' O.ZXyX7X9X9XwX",
"yXyX9X9X.X[..X.X.XXX{.t.t.S..X[.G.A.g.f.e.x.Z i ] | XXNXfX2.n.7X).~ 5 n y t t v 0 0 KXUXLXLXLXLXKXKXJXJXJXKXPXDXB.=XrXZXyX5X7XwX",
"8X9X{.J.[..X.X.X.X{.3XJ.g.g.[.[.G.A.A.g.y.8.T ! c./.MXbXn <.{.&X( g # 5 0 z z v 0 I.LXLXLXLXLXLXLXLXKXJXJXKXUXJX~.9.' <XAXmX-X7X",
"j.s.j.G.[.[.P.P.P.OX5X3X X`.`.J.F.A.A.g.f.r.3.e.G.nXMXM.; i.(.! g a 6 6 b n v w.l xXUXLXLXLXLXLXLXLXLXKXJXJXLXJX7XX.,.v =XFXxXg.",
"h.F.F.F.J.J.J.J.P.|.5X X X X X{.G.G.A.g.y.e.p.A.b.0X{.9 p.m.Q Q g a a g g m.H.Y.P.cXUXLXLXLXLXLXLXLXLXLXKXJXUXBX&X[ |.sX2.2X7XS.",
"J.k.L.G.F.A.A.A.A. X). X X}.}. X`.G.F.g.y.G.[.F.B.O.~ u.`.J.' U F d g g s x.oXoX.XBXUXLXLXLXLXLXLXLXKXKXLXKXLXcXY B !.Y.8.n.&X-X",
"-XJ.j.G.A.g.f.y.r.C.&X&X).). X X}.F.j.G..X.X.XA.X.U I E u.f.x.! U L F d g G I.oXJ.mXUXLXLXLXLXLXLXLXLXKXKXKXLXAX|.H C (.A.r.Y O.",
"+.).n.y.r.g.g.f.s.M.%X&X&X).). X X{.[.XX.X.XN.z.O.! S.h.D.8.1.1.6.9.m G H Y Y I.J.I.DXCXLXLXLXLXLXLXLXKXKXUXDXS.I.(.Z L M.7.y J ",
"*.$XW.M.m.m.g.g.g.y.%X-X&X).(.).~.~. X{.J.M.g c W.[.iXJ.[.r.e.8.7.4.<.9.~ H Q v.A.J.(.{.HXLXLXLXKXKXLXLXLXBXXXXX<.7.v.V ' oX6.J ",
"&.*X&X7XyXwXwXMXMX{.N./.(.' s s s K h {.^.b.{.`.Q./.m.'.[.e.r.e.8.8.6.7.7.n./ Q n.H.C.OX].Y.DXLXLXLXKXSXfXXXjXjXL.a.4./ #.LXmXQ ",
"! *XtXrX1X>X<X8X5X(.&X+.=.!.W.Q./ 6 O Y 3X#XdXm.-X/.'.jXS.r.r.r.r.8.8.8.r.r.t.B.Q M.9XnXN.v ^.CXSXxX[.L.[.jX@X#XXXd.8.4.B.2XJ.p.",
"p.{.3X&XqX2XI.H.A.Y.2Xz.%X:.[ / G d d i OXlXr./.8X+XXX`.i.y.y.y.r.r.y.g.F.N.A.G.J.M.5XOXq.M.XX.XaX].aXaXdXjX#X#X}.j.a.e.7.% 6.m.",
" XJ.K.N.W.H.8.7.3.4.7.2.Z.oX%Xb.b g 0 , w p.9.-X6X6X/.x.p.i.p.p.p.p.A.A.y. XfXl.uXe.W.b.M.dXdXhXhXhXdXdXdXjX#XOX}.`.j.f.y.7 6.N.",
"x.k.d./.[ V B i H F F $X:X-X.XK.n.n 6 Z B Y y.! # @ d _ b.b.m.N.N.S.p.r.7.^.' g G T  Xj.P.9XqXqXqXqX3X3X).).(.(.).). X4XSXeX;XW.",
"$Xs.f..XI.&XB. .#.#.*.O.n.g.y.A.j.f.r.t.n C 9.n o . . F ) b.b.N.N.N.m.p.e.A.n.m N.L.$X(.a.[. X X7X7X-X&X~.~.!.W.!.).2XDXLXrX;.*.",
"..c e e 5.f.Z.z.m B.&XM.n.n.m.n.y.s.s.e.5.n Q w.O @ E . E ^.T.b.R.N.b.b.x.u.m.hXhX`.). .n.j.T.S.k.J.(.%X$XO.O.X.X.(.CXLXJXI.(.=.",
"K E t.3.2.8 8 , 6.t.P +.W.m.p.r.0.e.e.8.e.e.g.w.i $ b.h g Q.W.T.b.R.R.b.c.XXhXhXL.J.XXW.Q w.J.`.k.d.d.f.(.&. ._ W.(.FXxXfXH.H.W.",
"E W W.J.[.`.J.J.J.D.W.W.W.W.b.N w.0.2.6.e.e.8.n.' F _ ( a W.Q.X.! ! b.{.hXlXkXdXj.D.9XG.g.A.`.[.L.h.s.d.d.J... .!.3XxXfX.X8 z ! ",
"K W ~.).XX'.[.[.[.N.) b.b.b.b.~ M N w.6.8.0.0.y.>Xv / *.Q c.X.! W m.[.lXlXlXkXj.j.'.wXXXF.F.`.[.L.k.j.h.h.d.m.).oX|.OXOXw.% c Q ",
"d ( ~.o.{.'.'.[.].N.) ) ( ) ) ~ ~ ~ ~ m 0.e.0.8.>X=X: z.' x.N.pXgXgXgXlXzXzXL.i.r. XwX0X#XXX[.L.L.k.k.k.j.s.d.H.J.4X9Xm.- - E K ",
"_ X.X.X.X.XX[.[.L.b.X.X.) ) ) W ~ ~ ~ ^ ^ p.u.<.*.:.r 3 t ( 5XfXgXgXgXhXzXhXr.i.7.}.8X6X9X#X#XXX].L.L.k.j.s.[.j./ 9X{.5   w.P L ",
" .O.O.X. .^.sX[.L.N.| ' ( ) ) ) ( ( ^ c.c.b.) m.&XB 6 8.2 m :X:XfXgXlXlXhX0.6.6.7. X6X+X+X+X X@XdXpX].F.j.L.lXL.(  .T = T BXP I ",
"+.....+.| | {.[.L.^.o.X.X.X.X.X.) ( ( c.c.b.T.| C.A + z 3.1 ;.>X8XjXgXlXF.r 6.e : ~.<X8X8X8X0X0X@X[.].[.dXdXkXj.~.U B.FXDXgX4X-X",
"KXDX7X..] _ ! [.P.{.W.X...+. .X.b.) ) c.b.b. XS.v !.A   l : U >.<X8XbXsXj.9.6.2.< N.<X8X8X8X6X0X0X#XdXhXdXhXXX9._ R SXJXxX.XHXUX",
"KXIXIXCXX.J P b.P.J.^. X-X&... .B.W.X.W.T.`.jX.X<.e.|.i $ v 0 %.1X<X8X}.}.m.0.9.9.9.<X<X:X6X5X8X8XeX0XXX.XR.p f (.DXJXSXDXxXHXKX",
"JXJXJXJXDX3X_ L N.I. X{.xXCX . .X.X.W.W.`..X.XXXt.1.3.n B | ^ -.>.1X$X{ K c E ~ ^ x. X5X5X*X .+.=.*X~.R.c.. V.xXMXmX2XDXDXxXJXKX",
"JXJXJXJXBXoXV.W.K oX4Xc.}.fXv.B.^.N.D.A.D.J.J.{.N.6.r 2 b b.mXBX7X=XJ + O + a h ( W.(.;X:X8X8X8X-XL F G . v.SXfXLXDXcXUXcXxXKXJX",
"KXJXJXBX.XOXmXSXmX{.E }.bX X{.`.G.F.g.n.p.n.m.N.x.8 q q < a.GXUXDXc.m z 4 5 0 * - 4 4 t I $.=.L $ i a # w.HXsXcXUXLXKXUXcXcXKXJX",
"KXKXIXKXHXSXKXvXxXxX3XW.OX`.P.J.D.m.n.u.w.w.x.m z t - 8 q d.pX{.|.0.g. X(.M.w 6.8.1.1.2 % 5 B T z c r.r.P.sXG.FXLXLXDXDXoXcXSXJX",
"IXKXUXUXUXLX&X| | 3XC.P.mX).(.!.!.X.! ! ! ! X.' Y c c M ^ _ o.Q.N.6.8.3X;.L # # X X @ $ s t 2.e.w.c ! [ #.5XK.&X*.-X&XB.4XDXBXSX",
"UXKXBXDXIXKXmXqX XcX_ 7XUXBXC.b.X.| ] ] |  .+.~.' h c ^ ( J #.>XrX1.: = 5 o g + $ i + $ 9.y.S.y.<.<.q 7 Y :..X|.;XqXeXO.|.SXDXDX",
"UXUXDX4XmXmXbXfX.XSX3X+.mXBXv.0.e.w.! ] ..*.$X$X~.E ~ T.N 6.( >X=XC.< , < * 1.e.n.W.&.^.S.S.J.J.0.1.2 3.a.M.tXoXZXFXCX;X3XSXKXUX",
"LXUXUXCX9XOX{.D.xXmX4X(.qXVXhXdXr.8.3.2.o.-.=X*X_ E W.x.9.<.8.-X! 5X.Xa.j.uXuXK.P.I.=X=XW.w.9.2.w 2.1.h.d.a.A.|.FXFXcXZXyXDXFXUX",
"FXAXUXBX.XS.J.fXJXmX{.J.t.F.dXdXr.9.6.1.<.b.>X;.P | x.0.D.s.N.+.( qXFX.XBXDXSXBXBXBX^ ~ b.W.^.^.m.r.8.k.L.k.4.y.(.$.=XJXFXAXFXUX",
"AXqXoXS.p.S.J.KXIXSXW.n.r.i.].[.r.6.6.2.q & / +.c T.N XX[.y./.| ).ZXFXZXSXJXKXLXUXmX( B.W.T.^./. X}.J.j.uX.XJ.e.CX5 V =XZXbXLXLX",
"L.K.j.A.S.p.BXLXUXqXW./.^.m.D.j.9.7.6.w 2 2 % , J.b ^.@XA.n.~.-X8XZXAXAXmXmXJXJXKX4XW b.T.W.Q.(./.}.}.^.L.k.[.y.DXcX  = B.fXBXfX",
"pXP.P.L.p.oXUXKXUXmXW.^.^.^.R.m.0.0.6.w 2 3 6.y.v.^ @XD.J.J.*X:XZXFXAXAXAXI..XI.H.^.o.Q.Q.~.Q.Q.).(.}. X XXX[.e.I.LXI.<.q.mX(.oX",
"fXpX[.L.P.IXUXKXIX9XQ.^.^.R.R.N.i.0.6.1.w t.`.e.Q =.^.m.}.0.*XtXFXFXFXAXAXqXF.J.K.N. .Q.X.W.Q.).).). X X+X9X9Xm./ AXLXy.1.x.5X).",
")..XpXL.NXHXBXvXvXV.L ) B.b.T.b.c.0.6.y.S.S.i.e O.*...( x.> m qXAXAXAXAXtXtXOXP.L.N.| X.o.~.$X~.).). X+X+X9XwX<XC.ZXLXBX7.r.(.&X",
"$XQ.[.[.fXsXsXP.P.n.G ! ( ) b.b.( x.p.D.S.m.`.n &.X.z i.aXq   % - z.2XrXrXrXtX[.].[.X.;X>X*X$X~.).).).9X9X0XMXJ.x.xXFXLX.Xa.Y U ",
" .+.(.BXBXvXsXP.G.A.L P ! ) } W.Q.~.^.`.`.}. X^.Q.m r.kX'.3 2 < * : : x.;XrXeXwXpXiX/.+X=.>X*.+._._._.6XMXbXVXjX% * C.AXFXP.9.B ",
"J ..CXUXUXUXKXKXUXcXf E W.X.O.O._ o.!.N.N.^.c.0 _.8XkX'.l 1.6.1.6.e.8.<.<.^.:X<XjXiX/.u.1 T +. .-X-X-X).nXVXVXVXn.: % C.AXyX3XO.",
"! 3XUXUXLXAXZXZXCX|.U.O.*.Q.} } X.o.O.! b.c.* m _.6X`.u.].h.7.7.s.s.e.8.r.G.R.:X:XdXm m {.hX}.-X5XT.p.r.dXVXVXVXbX< -   z.qX|.z.",
"N.4XBXSX(.C.S.t.t.n.H.M.!.#.#.+.+.O._ ! m ; w ^ Q.).c.XXhXiXiXk.h.j.h.].k. X(.J.^ /.Q.w.@X#Xb.c.w 2 0.p.D.nXVXVXMXt.< - % P..X{.",
"mXJ.G. XW.n.e.8.3.3.1.t.Z.n.' ) ~ x.2.q < l 9.' } T.+XjXpXpXaXaXk.].aXpXk.w.l % % 7 ( 7X}.v 1 1 9 l 0.p.D.XXMXnXmXOX6.2 r vXvXcX"
};
