/* XPM */
static char *_df5224535c34ebbf9138139851eb3e2FBMyAIiVs8djFrYQ[] = {
/* columns rows colors chars-per-pixel */
"64 64 255 2 ",
"   c #000001",
".  c #090306",
"X  c #02010B",
"o  c #130708",
"O  c #040114",
"+  c #090519",
"@  c #0B011C",
"#  c #15041A",
"$  c #19141A",
"%  c #060127",
"&  c #0C0123",
"*  c #140124",
"=  c #14012C",
"-  c #190628",
";  c #191426",
":  c #0F0935",
">  c #180335",
",  c #1B013C",
"<  c #2A0E2E",
"1  c #240438",
"2  c #281638",
"3  c #2E2736",
"4  c #11034B",
"5  c #270447",
"6  c #340849",
"7  c #291746",
"8  c #351A4A",
"9  c #2B0756",
"0  c #340658",
"q  c #2C1556",
"w  c #351756",
"e  c #1B205F",
"r  c #372449",
"t  c #382757",
"y  c #332D52",
"u  c #120063",
"i  c #390568",
"p  c #320D6C",
"a  c #381765",
"s  c #2A0179",
"d  c #360377",
"f  c #372666",
"g  c #35336C",
"h  c #382A75",
"j  c #480A53",
"k  c #650050",
"l  c #47275C",
"z  c #453252",
"x  c #440668",
"c  c #5A0569",
"v  c #45186A",
"b  c #460977",
"n  c #560E74",
"m  c #491879",
"M  c #660568",
"N  c #6F0672",
"B  c #492769",
"V  c #47366A",
"C  c #55316B",
"Z  c #492876",
"A  c #55297A",
"S  c #4B3477",
"D  c #57377A",
"F  c #63317B",
"G  c #4A494A",
"H  c #4E4773",
"J  c #564678",
"K  c #674F77",
"L  c #840975",
"P  c #33048C",
"I  c #3C3197",
"U  c #500F8E",
"Y  c #4B1789",
"T  c #551A89",
"R  c #4B179A",
"E  c #700F8C",
"W  c #572785",
"Q  c #483A88",
"!  c #593788",
"~  c #4E2E94",
"^  c #573899",
"/  c #6B3290",
"(  c #4D18AE",
")  c #710FAC",
"_  c #5726A7",
"`  c #532CB6",
"'  c #6737A5",
"]  c #6E2FB2",
"[  c #584689",
"{  c #565588",
"}  c #4E4C91",
"|  c #584897",
" . c #654A87",
".. c #665687",
"X. c #654997",
"o. c #764C91",
"O. c #695698",
"+. c #755897",
"@. c #6F6891",
"#. c #76679A",
"$. c #5751AD",
"%. c #6648A6",
"&. c #7744A6",
"*. c #685AA6",
"=. c #7658AA",
"-. c #6849B6",
";. c #7A4AB8",
":. c #6A57B7",
">. c #7758B6",
",. c #5B64A9",
"<. c #7567A8",
"1. c #6C6EB2",
"2. c #7668B8",
"3. c #5C34D8",
"4. c #6D33D3",
"5. c #7437F4",
"6. c #5B5ECD",
"7. c #7647C8",
"8. c #704FCD",
"9. c #7659C6",
"0. c #7856D5",
"q. c #716DCB",
"w. c #7A69D5",
"e. c #7651EB",
"r. c #7946FC",
"t. c #7957FA",
"y. c #786DF4",
"u. c #8A1998",
"i. c #8A2A96",
"p. c #863896",
"a. c #9011AC",
"s. c #9133AD",
"d. c #AD32B5",
"f. c #874598",
"g. c #8B489A",
"h. c #8D7298",
"j. c #9449A7",
"k. c #8951AC",
"l. c #9A57B5",
"z. c #A453B8",
"x. c #8D6DAB",
"c. c #8775A7",
"v. c #8769B8",
"b. c #9769B8",
"n. c #8A77B8",
"m. c #9778B9",
"M. c #A570B9",
"N. c #A21BD3",
"B. c #9530CD",
"V. c #B42CD3",
"C. c #8D37F3",
"Z. c #B530EC",
"A. c #BA37F9",
"S. c #C13AD1",
"D. c #C32AF3",
"F. c #C436FA",
"G. c #9051CA",
"H. c #875BD6",
"J. c #9659D8",
"K. c #AB51D1",
"L. c #866BC8",
"P. c #8678C7",
"I. c #9770C8",
"U. c #8869D7",
"Y. c #9667DB",
"T. c #8977D8",
"R. c #9779DA",
"E. c #AD6DD0",
"W. c #8C55E4",
"Q. c #8847FA",
"!. c #9749FB",
"~. c #8658FA",
"^. c #9755FB",
"/. c #AF54EF",
"(. c #A747FB",
"). c #B849FA",
"_. c #B858FB",
"`. c #8869E8",
"'. c #9766E7",
"]. c #887AEE",
"[. c #9875E8",
"{. c #8669FB",
"}. c #9769FA",
"|. c #9778F7",
" X c #AD6DEF",
".X c #A677FC",
"XX c #B678FC",
"oX c #CB4ADC",
"OX c #C276DB",
"+X c #D04EEE",
"@X c #C749FB",
"#X c #C558FB",
"$X c #E95BFD",
"%X c #C677E8",
"&X c #CB6CF5",
"*X c #C876F8",
"=X c #E86AFB",
"-X c #758CAE",
";X c #7B88D9",
":X c #7A8BF1",
">X c #9B8AA2",
",X c #8E87B5",
"<X c #B5ACBE",
"1X c #9889C8",
"2X c #8E8FD2",
"3X c #9986D6",
"4X c #A68AC5",
"5X c #AA90D2",
"6X c #B597D7",
"7X c #AFA8D7",
"8X c #8F8FF3",
"9X c #AE8FE8",
"0X c #A988FB",
"qX c #B688FD",
"wX c #A996FB",
"eX c #B697FD",
"rX c #9AACF7",
"tX c #B7A5E7",
"yX c #A9AEF4",
"uX c #B9A8FD",
"iX c #BAB6FE",
"pX c #CA91D9",
"aX c #CFB0DC",
"sX c #C787E8",
"dX c #D18EE8",
"fX c #C886FC",
"gX c #D789FB",
"hX c #C59AFD",
"jX c #D696FA",
"kX c #E791FF",
"lX c #E698FD",
"zX c #CDB5E8",
"xX c #C8A7FD",
"cX c #D6A8FE",
"vX c #C8B7FC",
"bX c #D8B8FF",
"nX c #E9A7FC",
"mX c #E7BAFE",
"MX c #F6B1FC",
"NX c #A7C8FE",
"BX c #B7CDFB",
"VX c #D8C5FC",
"CX c #D4D0F6",
"ZX c #D1DDF1",
"AX c #E8C8FE",
"SX c #F9C8FE",
"DX c #E6D1F4",
"FX c #F5D7FD",
"GX c #FCD4FF",
"HX c #FEDCFF",
"JX c #EAE4FE",
"KX c #FDE4FE",
"LX c #FCECFE",
"PX c #FDF4FE",
"IX c #FFFDFF",
/* pixels */
"f.c 6 , 5 x 0 > R R Y p =.vXBXNXNXBX,Xg ,.{ <.vX9X$.0.W.W.H.H.9.9.2.5 0 w 8 S a i i x j j x c n n n c c M M M N u.i.i.i.s.j.E.z.",
"E.l.- 6 = 5 0 # p R Y Z m qXxXyXNXNXBX-Xg } { 1.{ Q -.7.'.'.H.H.>.[ t y O     > , , 1 1 1 5 6 1 1 < < < j j j 6 j j N i.p.p.s.g.",
"g.gX/ 1 1 @ 1 5   b T A i E.hXyXrXNXNXBX;Xh g { *.2.w.T.R.[.[.L.n.T.8X8X3X1X| r w w t t l l l / f.k.k.k.l.l.l.z.E.E.E.E.E.K.K.o.",
"F sX%X5 2 * # 1 O X m W x G.qX0XwXrXNXBXyX1.{ <.S ^ Q 2.T.8X8X[.T.3X].].].uXxXeX{.|.[.9X.X0XXXXX*XfXfXgXgXgXgXkXkXkXkX*X*XgX%X/ ",
"/ l.lXl.. 2 O O O   # v W &.qXqX0XwXyXNXBXBX,.<.h Q 5 1 q [ q.9.w.T.U.U.w.w.0X0X|.`.[.[.[.[.|.}. XXXXXXXXXfXfX*X&X&X*X*X%X&X%Xf.",
"p.p.dXnX/ o * O X X   5 n o.[.qX0X0XwXyXCXJX,X{ h ~ a w q 5 5 w ^ >.L.w.9.9.:.`.{.`.R.[.`.[.[.}. XXXXXXXXX*X*X*X&X&X&X%X%X*X*Xj.",
"p.j.M.nXsX, - X X X   @ x F E.qX.X|.0XuXvXJXJX,.a ^ f w w w q 5 > 5 S %.:.>.-.-.0.0.U.H.0.H.Y.'.'./. X X X X X X%X%XE.E.%X*XgXl.",
"p.j.f.nXSXE.  $   X X   6 A x..X}.|.0XeXvXJXIXBXu | f q q w q 9 9 5 , = 7 S %.-.:.L.U.0.0.H.U.'.'.J.J.K.K.K.K.K.E.OXOXOX%XgXlXl.",
"p.j./ 4XSXmX+.  $         C o.qX}.}.0XeXbXFXPXJX<.Y V q w q q q 9 9 5 > @   # B O.>.L.U.0.U.`.'.'.J.J.J.K.E.E.E.OXOXOX%X%XgXlXE.",
"f.j.f.k.SXHXmX,   +   X   6 / R.0X'.}.qXcXFXFXDX7Xd [ 7 w q q q 9 5 , = * - @     2 D v.`.[.[.[.'.J.J.J.K.E.E.OXOXsXsXdXgXlXnXjX",
"f.j.g./ pXGXSX6X  $     +   j E.eX[.[.qXqXxXtXtXuX[ Z t f w a w , 1 > = * * & * @       J L.0X0X[.Y.J.J.J. X%XsXsXdXdXjXlXlXnXnX",
"f.j.g.f.j.MXSXMXk.  ;   . #   +.hX0X0XhXhXxX9XL.9.*.  1 8 q q 5 , , > = = = = & O X + X     B =.U.[.[.Y.Y. X%XsXsXdXjXlXlXnXMXMX",
"p.g.p.j.p.pXSXSXcXj   #   #   z hXeX0XcXbXbX9XL.9.Z ,.g   ; q 5 5 , > > > > & O X     X ; $ X   1  .k.Y. X XsXsXsXdXlXlXlXlXMXMX",
"p.p.p.j.j.E.SXSXSXaX  o .   ;   4XcXeXmXSXbX9XU.:.% 2.rX,.    7 , > , > = % + % % + X         2 2 . # l o.I.9XfXgXgXnXnXlXlXlXMX",
"/ s.p.g.j.j.nXSXGXKXm.  ;   #   K bXcXGXHXbX9XT.! 9 i T.rX2Xg   9 5 =                 ; 3 G z     2 2 - . 1 F b.sXgXlXMXMXlXlXMX",
"l.p.p.g.j.j.6XSXHXLXFXK   $       6XmXLXFXxXqXL.q a 9 X.P.3X2X*.t O 7 f f Q } } $.w.U.`..XxXxX5Xo.    $ 3 < - # C k.OXnXSXMXMXMX",
"pX/ f.j.j.l.l.AXKXKXLXaX& . . #   ..zXLXHXbX9X+.5 a 9 [ >.>.2.2.q.{ q | 6.q.w.6.w.w.0.0.W.W.'.cXHXaXh.1     O 3 z # 1 / pXMXGXHX",
"DXc f.j.l.M.M.pXHXPXIXIX<X  3 X   r m.SXSXAX6Xw w w 6 ! :.-.:.2.2.q.y @ h $.$.$.:.-.-.-.-.7.J.E.DXIXLXDX6Xh.z %     3 - / E.pXDX",
"cXb.F g.l.M.M.M.KXIXIXIXIX@.  3   < k.pXmXcX,X1 8 w 0 a :.:.:.:.%.2.S % X f $.$.$.$.%.%.%.>.v.b.E.KXLXKXKXHXGXaX<XK     z I.E.sX",
"%XdXb.k.l.b.b.h.aXLXLXPXIXCX@.  $ ; &.s.jXjXD # 8 w w 0 ! 9.:.:.:.P.g & , : 4 } | | ^ ^ X.=.x.b.b.pXSXGXHXHXGXGXHXHXCXh.  x sXjX",
"sXE.E.M.x.b.E.b.k.nXSXSXHXHXPX<X%   D E b.R.% 7 8 t w w v X.>.9.w.8X<.  2 , , 5 h Q Q ^ | <.<.x.m.x.tXAXGXHXHXFXSXGXKXLXDX>XE.sX",
"5X6X4Xm.x.&.&.I.J.XXjXcXcXhXAXIXaXS   C 0 v > 5 8 l r w B Z =.2.L.3X9Xy   & = , 4 a Q } O.#.c.n.x.m.4XxXbXAXGXGXGXGXHXKXPXIXZXx.",
"z h.M.M.k.&./ m ' '.qXqX.X.X0XSXGXSXc.4 [ ^ q 5 5 6 8 r B B X.v.L.T.8Xn.  $   O = > q } O.#.c.c.c.m.4X6XxXxXbXbXAXSXFXHXLXLXIX>X",
"2   8 o.k.&./ / / T ;.'.W.H.0.qXnXMXKX7X~ ^ m > , 5 6 8 l C D =.L.T.3X9XH   + X O & = 7 H #.c.c.n.m.4X4XtXxXxXxXbXAXAXAXFXHXLXLX",
"<X  3 @ 8 A &.&./ W 0 A &.7.' 0..XfXSXzXP ~ Y 9 , 5 5 6 B J C o.n.P.P.3X,X  ; O @ & = = > V ..#.n.1X5X5X6XvXvXxXcXbXbXAXAXFXKXIX",
"PXG   2 1   / G.T A v v v ! =.%.0.0.9XmX' U Y m 5 5 5 0 v D K K x.n.L.P.9XJ   + O @ - 2 7 r t J +.c.m.5X6XzXVXbXcXxXxXbXVXAXKXIX",
"IX<X  3 * 1 @ k.&.Z B B v 6 l ! >.9.0.cXI.P T Y i , 5 0 w A F K ..x.v.L.9X5X  + O # - 2 7 y g V  . .O.<.m.6XDXAXbXcXcXxXVXAXFXPX",
"PXJX@.  ; -   C l.D l w 5 = 1 # V =.7.eX XP ~ Y Y 9 5 0 a A D D ..x.x.m.1XzX#.  ; # ; 2 8 t g g S  .O.*.=.v.4XVXbXcXxXxXvXVXDXKX",
"PXIXZX  $ X + % m v 9 , O     X     a R.qX_ R U Y Y 0 i x A ! X.o.+.x.m.4X5X1X= * * 1 2 8 t f g Q | X.%.=.2.v.5XVXcXcXhXxXVXCXJX",
"PXPXPX>X  ;   0 b 0 5 2 ; + .   + +   w R.' R Y U T b i x v v Z B C +.m.4X4XtXc.  2 1 6 w a f h Q | ^ ' %.=.v.L.9XbXjXjXqXeXVXJX",
"CXJXLXDX  o . i i 0 <       $ .   X +   i Y Y R U U T x i x i v B Z B  .x.6XtXzXV = 6 w w a a h h Q ^ ' %.=.v.L.I.hXcXjXqX.X0XuX",
"iXvXvXzX..  & Z l < % h.4XJ     +   $ . - 5 O a U T T m 0 i v v v Z Z B A x.6XxX3X@ w 6 j a a a f h ~ ' ' %.>.v.G.G.jXjXfX.X0XeX",
"uXvXiX3X<.  z J f h Q AXFXAX6X  O >     $ + O   5 b b m v 0 v v v v v A A A +.9XcX[ 1 l l v w a a p d R _ ] ] 7.G.s.Y.fX*XXX0XeX",
"eXuXuXvX5X%  .[ [ 4 v.bXcXmXHXaX4 =.,X4     $ *     = 0 m i i v v v m A ! / / W 9X9X5 l w 0 j i p s d s R ` ] 4.] ] ]  XqXXX.XqX",
"eXuXvXCXzX! X.V q % R.xXmXAXzXh.u h DXAX4XV     $ +   X 5 i i a v B A W / / / G.(.J.W - 6 w 0 i i i s s P ( ` ] ] ] ] '  X.X.XqX",
"eXvXzX5X[   q w %  .9X6X5Xb. .O Z % <XKXGXbX3XS     +     1 w v B Z A W / W j./.B.) &.I.i 5 0 0 i i s s P P ` ( ( _ _ U -.|..X.X",
"0XI.=.X.5 > > 9 : =.x.o.&.m...O t 9 K FXAXbXbX0XR.z   + O O * 8 Z A A W / G./.B.T ] /.fXeX=.4 9 p i s s P P ` ( ( ( R _ U 9.0XqX",
"7.~ X.V > > > 1 A T ! k.H.I.J   2 q 6 tXvXuXwXwXmX6X  o O * * @ 1 B ! / K.K./ E B._.*X X.XxX9Xs 4 p i s P P ( ( ( ( R R ~ Y T.[.",
"^ ^ ! 7 = O > 6 x ! k.G.H.n.z @   2 % %.wX0X|.0XxXhXm.  # X     # 1 v G.G./ W K._._.XX_.!.^.0XeX:.u p d P P ( ( ( ( ( R Y a p 9.",
"| Q 2     X > 5 m ! k.U.U.#.3 @ @ O , B 9.`.].wXeXeXxX+.  8 t B D  .X.=.k./ K./._.&X&X_.(.Q.Q.}.wX2Xu d P P P ( ( ( R d i q 5 f ",
"7XG   .   * # l ! ! ! G.L.C * - & @   8 *.$.T.eXwXwXeXn. .I.I.3X9X0XqXeXhXhX XE.&X&X&X_.!.!.~.~.r.0X:.u m d d U ( P i 9 4 4 q f ",
"| :   . @ # - A W W W ! O.1 = - * @ O   X.:.:.0XwXwXvXc.5 n.5X3X9X[..XqXhXxXjXfX&X#X#X#X(.Q.Q.r.~.~.t.s u i b b d 9 5 9 d U ~ $.",
"yX2X  + @   6 W W W W W V   2 = & @ +   V >.%.T.wXuXbXc.O ..4X3XR.R.9X0XqXfXfXfX&X#X@X)./.!.Q.C.~.t.3.3.$.u 0 x i d R _ ` 0.T.rX",
"yXrXO.  ;   v W T m p [ 7   < > & & O X . O.| T.eXuXbX#.   .c.1XR.R.[.}..X.X X(.).#XA.A.A.!.!.!.5.3.e.r.8X8X^ ) 4.3.t.t.{.8XwXuX",
"8X8X8Xy   7 Q m b | :.q.}   + * & O X O . J X.R.uXvXVX@.  J O.x.3XT.`.}.}.~.!.(.).).Z.Z.A.A.!.Q.4.5.r.5.r.wXeX7.C.Q.~.{.{.8X8X8X",
"8X8X8X;X  a Z } q.w.:.;X,.  + O X X X X @ r D 3XvXVXVX@.  t O.<.P.].`.W.e.~.Q.(.(.).Z.V.V.A.C.4.Q.!.C.5.r.|.0X`.( !.r.t.t.y.8X8X",
"8X8X8X8X$.Q 1.q.q.*.q.iX1.  ; O X X X X O * B *.vXVXCXO.* 8 [ <.<.T.w.e.e.~.Q.(.(.).Z.V.V.N.N.C.Q.!.(.(.!.~.}.}.s ` Q.r.t.t.y.:X",
":X:X:X:X6.,.q.1.*.[ | iX2X  ; @     X X O   t W tXJXCXt 2 q S *.2.P.w.y.e.~.Q.!.Z.A.Z.V.N.N.F.A.C.C.(.).C.Q.}.}.` s 4.!.Q.r.t.y.",
"y.:X:X;X} 4 q.8X@.H f 2Xq.% & = & O X   X   2 =.2.CXtX% 2 t Z *.P.2X;Xy.y.t.t.r.C.Z.A.N.Z.F.Z.F.A.A.A.F.A.(.^.XXG.s U C.C.C.r.y.",
"{.:X:X:XH   ,.yX,Xl f { 8X: * > & & & O X     <.L.3XtX% 2 t Z O.1X2X2X8X8X].{.e.5.C.B.A.A.A.Z.S.S.D.D.D.D.A.).#XG.b U U B.C.!.~.",
"Q.y.y.q.e 7 h 8XyX....D 2XH   , & = = & & -   ..R.3X5X3 = t S O.1X2X2X;X8X8X].e.4.4.!.).).).@XoXS.V.D.D.D.D.@X#X_.U E x n B./.^.",
"!.Q.y.6.u I h } 8X{ [ [ 2.{   7 , , , = = =   y tXtX,X> - t V #.1X7X2X2X;X:X:X8.3.5.C.C.(.).).oXd.d.V.Z.D.D.F.@X&X] E ) ) B.)._.",
"_.!.~.` I I Q h H { H l S H = 7 5 5 5 , > > - X tXJX..> y t J c.1XtXyX8X8X:X6.6.t.r.r.5.C.Q.(.).V.d.V.V.Z.Z.Z.A.@XB.) N.N.A.)._.",
"XX_.^.( ` $.$.{ ,.1.,X#.K y ; r 8 7 7 7 2 2 3   ,XLX#.  r 7 ..,X4XtXiXyXrXq.q.:Xy.t.5.5.5.Q.!.A.Z.V.u.u.E E a.F.F.) N.N.N.A.)._.",
"&XXXW.e.t.y.:X;X1.,X7X1X1X,X; r r 2 8 r 2 2 2 O K DXV   ; < t ..c.6XVXiX8X,.:X:Xy.t.r.5.5.C.4.B.E M k k N N N N.N.a.N.a.N.A.@X#X",
"#XJ.W.}.~.t.y.q.,.#.ZX7X1X7X,X  [ ! f t 8 2 < @ z 4X: O > 8 8 * O K 1XtX,X2X8X8Xy.t.` ( i i 5 j c M N M u.B.B.Z.B.c E M N V.@X@X",
"_.G.] ^.~.e.e.q.1.Q aXCXP.1XVX#.a [ ! ! ! Z S D 5 O.y   2 2 2 2 $     z #.yXq.$.O     : 7 _ 7.7.G.).@X+X+X+X@X$X$Xd.j E M E F.@X",
"#XG.E _ 7.0.0.w.1.[ ,XJX7Xn.7X7XH > 7 9 q q Z V l [ 2 = : O     . r J y y 7   | 2.P.`.y.{.|..X}._.#X@X@X+XoXoX+X$X$Xs.k N M d.$X",
"oXB.B.T ' ' ^ ^ %.| [ JXZX2XP.CX7X: t t f g *.O.{ J     : 7 V r t J V . & ..3X|.|.0X0X|.|.{.~.^._._.@X@X+XoXoX+X+X$X$Xd.k L N K.",
"z.d.s.] ' Y.G.A w r t 7XZXyX2.vXzX..g | $.} Q | <.P.:.| $.L.*.J ..K l J ,XzX9XR.Y.H.Y.[.|.{.~.^.(.#X@X@X@XoXoX+X+X+X$X$Xd.k N d.",
"i.s.s.] T ] H.7.' ~ % 1.rXrX2X1X7X5Xy g H { P.3XwXT.w.w.9.w.| [ <. . .+...3XR.U.U.H.J.J.J.W.~.^.(.#X#X).@X@X+X+X+X+X+X$X$Xs.M d.",
"j p.s.) T b ` 4.` ` ^ @.BXrX;X1X1X1Xy ,.2.8XiXvXxX|.`.0.8.9.} [ =.=.+.J 5 v.T.U.H.H.J.I.I.J.H.W.(.)._./.V.V.K.+X+X+X+X+X$X=XK.&X",
"1 n E E E b Y ` ` ` _ X.ZXZXrX2X2Xn.g g 1.9XiXVXuX|.}.0.8.0.$.| =.=.O.w w X.L.9.0.H.J.G.l.G.G.] ] ) E u.u.u.i.s.V.K.+X+X&X=X+X=X",
"p.j 5 6 x x 1 R ` _ ^ s 5XZXBXNXNX1X{ y y 2XiXVXiX].0.8.0.8.:.:.*.L.[ 0 a B v.9.0.7.' ' F n n n n n c c N E i.u.u.u.u.s.K.K.oXE."
};
